<svg width="89" height="88" viewBox="0 0 89 88" fill="none" xmlns="http://www.w3.org/2000/svg">
<path d="M23.27 48.7287C22.9258 48.3892 22.5133 48.1267 22.06 47.9587C21.1673 47.592 20.166 47.592 19.2733 47.9587C18.8183 48.1234 18.405 48.3861 18.0629 48.7283C17.7207 49.0704 17.458 49.4837 17.2933 49.9387C17.0558 50.4963 16.9601 51.1041 17.015 51.7077C17.0699 52.3113 17.2735 52.8919 17.6077 53.3975C17.9419 53.9032 18.3963 54.3181 18.9301 54.6051C19.4639 54.8922 20.0605 55.0424 20.6666 55.0424C21.2727 55.0424 21.8694 54.8922 22.4032 54.6051C22.937 54.3181 23.3913 53.9032 23.7255 53.3975C24.0597 52.8919 24.2634 52.3113 24.3182 51.7077C24.3731 51.1041 24.2775 50.4963 24.04 49.9387C23.8654 49.4886 23.6038 49.0774 23.27 48.7287ZM50 40.332H53.6666C54.6391 40.332 55.5717 39.9457 56.2594 39.2581C56.947 38.5705 57.3333 37.6378 57.3333 36.6654C57.3333 35.6929 56.947 34.7603 56.2594 34.0726C55.5717 33.385 54.6391 32.9987 53.6666 32.9987H50C49.0275 32.9987 48.0949 33.385 47.4072 34.0726C46.7196 34.7603 46.3333 35.6929 46.3333 36.6654C46.3333 37.6378 46.7196 38.5705 47.4072 39.2581C48.0949 39.9457 49.0275 40.332 50 40.332ZM35.3333 40.332H39C39.9724 40.332 40.9051 39.9457 41.5927 39.2581C42.2803 38.5705 42.6666 37.6378 42.6666 36.6654C42.6666 35.6929 42.2803 34.7603 41.5927 34.0726C40.9051 33.385 39.9724 32.9987 39 32.9987H35.3333C34.3608 32.9987 33.4282 33.385 32.7406 34.0726C32.0529 34.7603 31.6666 35.6929 31.6666 36.6654C31.6666 37.6378 32.0529 38.5705 32.7406 39.2581C33.4282 39.9457 34.3608 40.332 35.3333 40.332ZM24.3333 32.9987H20.6666C19.6942 32.9987 18.7615 33.385 18.0739 34.0726C17.3863 34.7603 17 35.6929 17 36.6654C17 37.6378 17.3863 38.5705 18.0739 39.2581C18.7615 39.9457 19.6942 40.332 20.6666 40.332H24.3333C25.3058 40.332 26.2384 39.9457 26.926 39.2581C27.6137 38.5705 28 37.6378 28 36.6654C28 35.6929 27.6137 34.7603 26.926 34.0726C26.2384 33.385 25.3058 32.9987 24.3333 32.9987ZM73.8333 18.332H15.1666C12.2492 18.332 9.45135 19.491 7.38845 21.5539C5.32555 23.6168 4.16663 26.4146 4.16663 29.332V58.6654C4.16663 61.5827 5.32555 64.3806 7.38845 66.4435C9.45135 68.5064 12.2492 69.6654 15.1666 69.6654H73.8333C76.7507 69.6654 79.5486 68.5064 81.6115 66.4435C83.6744 64.3806 84.8333 61.5827 84.8333 58.6654V29.332C84.8333 26.4146 83.6744 23.6168 81.6115 21.5539C79.5486 19.491 76.7507 18.332 73.8333 18.332ZM77.5 58.6654C77.5 59.6378 77.1137 60.5705 76.426 61.2581C75.7384 61.9457 74.8058 62.332 73.8333 62.332H15.1666C14.1942 62.332 13.2615 61.9457 12.5739 61.2581C11.8863 60.5705 11.5 59.6378 11.5 58.6654V29.332C11.5 28.3596 11.8863 27.4269 12.5739 26.7393C13.2615 26.0517 14.1942 25.6654 15.1666 25.6654H73.8333C74.8058 25.6654 75.7384 26.0517 76.426 26.7393C77.1137 27.4269 77.5 28.3596 77.5 29.332V58.6654ZM55.5 47.6654H33.5C32.5275 47.6654 31.5949 48.0517 30.9072 48.7393C30.2196 49.4269 29.8333 50.3596 29.8333 51.332C29.8333 52.3045 30.2196 53.2371 30.9072 53.9248C31.5949 54.6124 32.5275 54.9987 33.5 54.9987H55.5C56.4724 54.9987 57.4051 54.6124 58.0927 53.9248C58.7803 53.2371 59.1666 52.3045 59.1666 51.332C59.1666 50.3596 58.7803 49.4269 58.0927 48.7393C57.4051 48.0517 56.4724 47.6654 55.5 47.6654ZM68.3333 32.9987H64.6666C63.6942 32.9987 62.7615 33.385 62.0739 34.0726C61.3863 34.7603 61 35.6929 61 36.6654C61 37.6378 61.3863 38.5705 62.0739 39.2581C62.7615 39.9457 63.6942 40.332 64.6666 40.332H68.3333C69.3058 40.332 70.2384 39.9457 70.926 39.2581C71.6137 38.5705 72 37.6378 72 36.6654C72 35.6929 71.6137 34.7603 70.926 34.0726C70.2384 33.385 69.3058 32.9987 68.3333 32.9987ZM70.9366 48.7287C70.5879 48.3949 70.1767 48.1332 69.7266 47.9587C68.8339 47.592 67.8327 47.592 66.94 47.9587C66.4866 48.1267 66.0742 48.3892 65.73 48.7287C65.3962 49.0774 65.1345 49.4886 64.96 49.9387C64.7463 50.4406 64.6472 50.9839 64.6701 51.5289C64.693 52.0739 64.8372 52.607 65.0922 53.0892C65.3472 53.5714 65.7066 53.9907 66.1442 54.3164C66.5818 54.6421 67.0865 54.8661 67.6217 54.972C68.1568 55.0779 68.7088 55.0631 69.2375 54.9286C69.7662 54.7942 70.2582 54.5434 70.6776 54.1947C71.0971 53.8459 71.4335 53.408 71.6622 52.9128C71.891 52.4175 72.0064 51.8775 72 51.332C72.0124 50.851 71.9119 50.3739 71.7066 49.9387C71.5321 49.4886 71.2704 49.0774 70.9366 48.7287Z" fill="#869096"/>
</svg>
