<svg width="16" height="16" viewBox="0 0 16 16" fill="none" xmlns="http://www.w3.org/2000/svg">
<path d="M12.6667 1.33203H3.33334C2.80291 1.33203 2.2942 1.54274 1.91913 1.91782C1.54406 2.29289 1.33334 2.8016 1.33334 3.33203V4.11203C1.33325 4.38733 1.38999 4.65968 1.50001 4.91203V4.95203C1.5942 5.16601 1.72761 5.36047 1.89334 5.52536L6.00001 9.60536V13.9987C5.99978 14.112 6.02843 14.2235 6.08326 14.3226C6.13808 14.4218 6.21727 14.5053 6.31334 14.5654C6.41944 14.6311 6.54186 14.6658 6.66668 14.6654C6.77104 14.6647 6.8738 14.6396 6.96668 14.592L9.63334 13.2587C9.74329 13.2033 9.83574 13.1185 9.90046 13.0138C9.96518 12.9091 9.99964 12.7885 10 12.6654V9.60536L14.08 5.52536C14.2457 5.36047 14.3792 5.16601 14.4733 4.95203V4.91203C14.5926 4.66165 14.6584 4.38922 14.6667 4.11203V3.33203C14.6667 2.8016 14.456 2.29289 14.0809 1.91782C13.7058 1.54274 13.1971 1.33203 12.6667 1.33203ZM8.86001 8.8587C8.79822 8.92099 8.74934 8.99487 8.71616 9.07609C8.68299 9.15732 8.66617 9.24429 8.66668 9.33203V12.252L7.33334 12.9187V9.33203C7.33385 9.24429 7.31703 9.15732 7.28386 9.07609C7.25068 8.99487 7.2018 8.92099 7.14001 8.8587L3.60668 5.33203H12.3933L8.86001 8.8587ZM13.3333 3.9987H2.66668V3.33203C2.66668 3.15522 2.73691 2.98565 2.86194 2.86063C2.98696 2.7356 3.15653 2.66536 3.33334 2.66536H12.6667C12.8435 2.66536 13.0131 2.7356 13.1381 2.86063C13.2631 2.98565 13.3333 3.15522 13.3333 3.33203V3.9987Z" fill="#7F7F91"/>
</svg>
