<svg width="33" height="32" viewBox="0 0 33 32" fill="none" xmlns="http://www.w3.org/2000/svg">
<g opacity="0.4">
<path d="M22.0867 2.66669H10.9134C6.06002 2.66669 3.16669 5.56002 3.16669 10.4134V21.5734C3.16669 26.44 6.06002 29.3334 10.9134 29.3334H22.0734C26.9267 29.3334 29.82 26.44 29.82 21.5867V10.4134C29.8334 5.56002 26.94 2.66669 22.0867 2.66669Z" fill="#466BF0"/>
<path d="M22.0867 2.66669H10.9134C6.06002 2.66669 3.16669 5.56002 3.16669 10.4134V21.5734C3.16669 26.44 6.06002 29.3334 10.9134 29.3334H22.0734C26.9267 29.3334 29.82 26.44 29.82 21.5867V10.4134C29.8334 5.56002 26.94 2.66669 22.0867 2.66669Z" fill="#006FAC"/>
</g>
<path d="M14.82 21.7067C14.5667 21.7067 14.3134 21.6134 14.1134 21.4134C13.7267 21.0267 13.7267 20.3867 14.1134 20L18.1134 16L14.1134 12C13.7267 11.6134 13.7267 10.9734 14.1134 10.5867C14.5 10.2 15.14 10.2 15.5267 10.5867L20.2334 15.2934C20.62 15.68 20.62 16.32 20.2334 16.7067L15.5267 21.4134C15.3267 21.6134 15.0734 21.7067 14.82 21.7067Z" fill="#466BF0"/>
<path d="M14.82 21.7067C14.5667 21.7067 14.3134 21.6134 14.1134 21.4134C13.7267 21.0267 13.7267 20.3867 14.1134 20L18.1134 16L14.1134 12C13.7267 11.6134 13.7267 10.9734 14.1134 10.5867C14.5 10.2 15.14 10.2 15.5267 10.5867L20.2334 15.2934C20.62 15.68 20.62 16.32 20.2334 16.7067L15.5267 21.4134C15.3267 21.6134 15.0734 21.7067 14.82 21.7067Z" fill="#006FAC"/>
</svg>
