<svg width="170" height="110" viewBox="0 0 170 110" fill="none" xmlns="http://www.w3.org/2000/svg">
<g opacity="0.2">
<path d="M136.917 14.218L159.576 0.999996L182.236 14.218L182.236 41.3326L159.576 54.6169L136.917 41.3326L136.917 14.218Z" fill="#E1E5EC" fill-opacity="0.4" stroke="white"/>
<path d="M159.596 54.5676L182.255 41.3495L204.915 54.5676L204.915 81.6821L182.255 94.9665L159.596 81.6821L159.596 54.5676Z" fill="#E1E5EC" fill-opacity="0.4" stroke="white"/>
<path d="M114.277 54.5676L136.937 41.3495L159.596 54.5676L159.596 81.6821L136.937 94.9665L114.277 81.6821L114.277 54.5676Z" fill="#E1E5EC" fill-opacity="0.4" stroke="white"/>
<path d="M91.5986 14.2181L114.258 1.00006L136.917 14.2181L136.917 41.3326L114.258 54.617L91.5986 41.3326L91.5986 14.2181Z" fill="#E1E5EC" fill-opacity="0.4" stroke="white"/>
<path d="M46.28 14.2181L68.9392 1.00006L91.5984 14.2181L91.5984 41.3326L68.9392 54.617L46.28 41.3326L46.28 14.2181Z" stroke="white"/>
<path d="M68.9585 54.5676L91.6177 41.3496L114.277 54.5676L114.277 81.6822L91.6177 94.9665L68.9585 81.6822L68.9585 54.5676Z" fill="#E1E5EC" fill-opacity="0.4" stroke="white"/>
<path d="M23.6399 54.5676L46.2991 41.3495L68.9583 54.5676L68.9583 81.6821L46.2991 94.9665L23.6399 81.6821L23.6399 54.5676Z" stroke="white"/>
<path d="M46.3528 94.9179L69.012 81.6998L91.6712 94.9178L91.6712 122.032L69.012 135.317L46.3528 122.032L46.3528 94.9179Z" fill="#E1E5EC" fill-opacity="0.4" stroke="white"/>
<path d="M136.951 94.9179L159.611 81.6998L182.27 94.9178L182.27 122.032L159.611 135.317L136.951 122.032L136.951 94.9179Z" fill="#E1E5EC" fill-opacity="0.4" stroke="white"/>
<path d="M136.951 94.9179L159.611 81.6998L182.27 94.9178L182.27 122.032L159.611 135.317L136.951 122.032L136.951 94.9179Z" fill="#E1E5EC" fill-opacity="0.4" stroke="white"/>
<path d="M91.6326 94.9179L114.292 81.6998L136.951 94.9178L136.951 122.032L114.292 135.317L91.6326 122.032L91.6326 94.9179Z" fill="#E1E5EC" fill-opacity="0.4" stroke="white"/>
<path d="M159.596 27.5518L182.255 14.3338L204.915 27.5518L204.915 54.6664L182.255 67.9507L159.596 54.6664L159.596 27.5518Z" stroke="white"/>
<path d="M114.277 27.5518L136.937 14.3338L159.596 27.5518L159.596 54.6664L136.937 67.9507L114.277 54.6664L114.277 27.5518Z" stroke="white"/>
<path d="M136.956 67.9011L159.615 54.6831L182.274 67.9011L182.274 95.0157L159.615 108.3L136.956 95.0157L136.956 67.9011Z" stroke="white"/>
<path d="M91.6372 67.9011L114.296 54.6831L136.956 67.9011L136.956 95.0157L114.296 108.3L91.6372 95.0157L91.6372 67.9011Z" stroke="white"/>
<path d="M68.9585 27.5518L91.6177 14.3338L114.277 27.5518L114.277 54.6664L91.6177 67.9507L68.9585 54.6664L68.9585 27.5518Z" stroke="white"/>
<path d="M23.6399 27.5518L46.2991 14.3338L68.9583 27.5518L68.9583 54.6664L46.2991 67.9507L23.6399 54.6664L23.6399 27.5518Z" stroke="white"/>
<path d="M46.3186 67.9012L68.9778 54.6832L91.637 67.9012L91.637 95.0157L68.9778 108.3L46.3186 95.0157L46.3186 67.9012Z" stroke="white"/>
<path d="M1 67.9012L23.6592 54.6832L46.3184 67.9012L46.3184 95.0157L23.6592 108.3L1.00001 95.0157L1 67.9012Z" stroke="white"/>
<path d="M159.63 108.251L182.289 95.0333L204.948 108.251L204.948 135.366L182.289 148.65L159.63 135.366L159.63 108.251Z" stroke="white"/>
<path d="M114.312 108.251L136.971 95.0333L159.63 108.251L159.63 135.366L136.971 148.65L114.312 135.366L114.312 108.251Z" stroke="white"/>
<path d="M114.312 108.251L136.971 95.0333L159.63 108.251L159.63 135.366L136.971 148.65L114.312 135.366L114.312 108.251Z" stroke="white"/>
<path d="M68.9924 108.251L91.6516 95.0333L114.311 108.251L114.311 135.366L91.6516 148.65L68.9924 135.366L68.9924 108.251Z" stroke="white"/>
<path d="M23.6738 108.251L46.333 95.0333L68.9922 108.251L68.9922 135.366L46.333 148.65L23.6738 135.366L23.6738 108.251Z" stroke="white"/>
</g>
</svg>
