<svg width="64" height="64" viewBox="0 0 64 64" fill="none" xmlns="http://www.w3.org/2000/svg">
<rect width="64" height="64" rx="8" fill="#466BF0"/>
<rect width="64" height="64" rx="8" fill="#006FAC"/>
<path d="M38.6666 25.3334H25.3333C24.9797 25.3334 24.6405 25.4738 24.3905 25.7239C24.1404 25.9739 24 26.3131 24 26.6667C24 27.0203 24.1404 27.3594 24.3905 27.6095C24.6405 27.8595 24.9797 28 25.3333 28H38.6666C39.0202 28 39.3594 27.8595 39.6094 27.6095C39.8595 27.3594 40 27.0203 40 26.6667C40 26.3131 39.8595 25.9739 39.6094 25.7239C39.3594 25.4738 39.0202 25.3334 38.6666 25.3334ZM38.6666 30.6667H25.3333C24.9797 30.6667 24.6405 30.8072 24.3905 31.0572C24.1404 31.3073 24 31.6464 24 32C24 32.3536 24.1404 32.6928 24.3905 32.9428C24.6405 33.1929 24.9797 33.3334 25.3333 33.3334H38.6666C39.0202 33.3334 39.3594 33.1929 39.6094 32.9428C39.8595 32.6928 40 32.3536 40 32C40 31.6464 39.8595 31.3073 39.6094 31.0572C39.3594 30.8072 39.0202 30.6667 38.6666 30.6667ZM41.3333 18.6667H22.6666C21.6058 18.6667 20.5883 19.0881 19.8382 19.8383C19.0881 20.5884 18.6666 21.6058 18.6666 22.6667V36C18.6666 37.0609 19.0881 38.0783 19.8382 38.8284C20.5883 39.5786 21.6058 40 22.6666 40H38.12L43.0533 44.9467C43.1779 45.0703 43.3256 45.168 43.4881 45.2344C43.6505 45.3007 43.8245 45.3344 44 45.3334C44.1749 45.3379 44.3484 45.3013 44.5066 45.2267C44.7501 45.1267 44.9586 44.9568 45.1057 44.7385C45.2528 44.5202 45.332 44.2633 45.3333 44V22.6667C45.3333 21.6058 44.9119 20.5884 44.1617 19.8383C43.4116 19.0881 42.3942 18.6667 41.3333 18.6667ZM42.6666 40.7867L39.6133 37.72C39.4887 37.5964 39.341 37.4987 39.1785 37.4323C39.0161 37.366 38.8421 37.3323 38.6666 37.3334H22.6666C22.313 37.3334 21.9739 37.1929 21.7238 36.9428C21.4738 36.6928 21.3333 36.3536 21.3333 36V22.6667C21.3333 22.3131 21.4738 21.9739 21.7238 21.7239C21.9739 21.4738 22.313 21.3334 22.6666 21.3334H41.3333C41.6869 21.3334 42.0261 21.4738 42.2761 21.7239C42.5262 21.9739 42.6666 22.3131 42.6666 22.6667V40.7867Z" fill="white"/>
</svg>
