<svg width="65" height="64" viewBox="0 0 65 64" fill="none" xmlns="http://www.w3.org/2000/svg">
<rect x="0.5" width="64" height="64" rx="8" fill="#466BF0"/>
<rect x="0.5" width="64" height="64" rx="8" fill="#006FAC"/>
<path d="M43.0333 32.88C42.8196 32.6367 42.7017 32.3239 42.7017 32C42.7017 31.6761 42.8196 31.3633 43.0333 31.12L44.74 29.2C44.9281 28.9902 45.0448 28.7263 45.0736 28.446C45.1023 28.1657 45.0416 27.8836 44.9 27.64L42.2333 23.0267C42.0932 22.7834 41.8798 22.5905 41.6237 22.4756C41.3675 22.3607 41.0816 22.3295 40.8067 22.3867L38.3 22.8933C37.981 22.9592 37.649 22.9061 37.3665 22.744C37.084 22.5819 36.8707 22.322 36.7667 22.0133L35.9533 19.5733C35.8639 19.3085 35.6935 19.0785 35.4662 18.9158C35.2389 18.7531 34.9662 18.6659 34.6867 18.6667H29.3533C29.0626 18.6515 28.7748 18.7319 28.5341 18.8956C28.2933 19.0593 28.1128 19.2974 28.02 19.5733L27.2733 22.0133C27.1693 22.322 26.956 22.5819 26.6735 22.744C26.391 22.9061 26.059 22.9592 25.74 22.8933L23.1667 22.3867C22.9061 22.3498 22.6404 22.391 22.4031 22.5049C22.1659 22.6187 21.9676 22.8003 21.8333 23.0267L19.1667 27.64C19.0216 27.8809 18.9563 28.1614 18.9802 28.4416C19.0042 28.7218 19.1161 28.9873 19.3 29.2L20.9933 31.12C21.2071 31.3633 21.325 31.6761 21.325 32C21.325 32.3239 21.2071 32.6367 20.9933 32.88L19.3 34.8C19.1161 35.0127 19.0042 35.2782 18.9802 35.5584C18.9563 35.8386 19.0216 36.1191 19.1667 36.36L21.8333 40.9733C21.9735 41.2166 22.1868 41.4095 22.443 41.5244C22.6992 41.6393 22.9851 41.6705 23.26 41.6133L25.7667 41.1067C26.0856 41.0408 26.4177 41.0939 26.7002 41.256C26.9826 41.4181 27.196 41.678 27.3 41.9867L28.1133 44.4267C28.2061 44.7026 28.3867 44.9407 28.6274 45.1044C28.8682 45.2681 29.1559 45.3485 29.4467 45.3333H34.78C35.0595 45.3341 35.3322 45.2469 35.5595 45.0842C35.7868 44.9215 35.9572 44.6915 36.0467 44.4267L36.86 41.9867C36.964 41.678 37.1774 41.4181 37.4599 41.256C37.7423 41.0939 38.0744 41.0408 38.3933 41.1067L40.9 41.6133C41.1749 41.6705 41.4608 41.6393 41.717 41.5244C41.9732 41.4095 42.1865 41.2166 42.3267 40.9733L44.9933 36.36C45.1349 36.1164 45.1957 35.8343 45.1669 35.554C45.1382 35.2737 45.0214 35.0098 44.8333 34.8L43.0333 32.88ZM41.0467 34.6667L42.1133 35.8667L40.4067 38.8267L38.8333 38.5067C37.873 38.3104 36.8741 38.4735 36.0261 38.9651C35.1782 39.4566 34.5402 40.2425 34.2333 41.1733L33.7267 42.6667H30.3133L29.8333 41.1467C29.5265 40.2158 28.8885 39.43 28.0405 38.9384C27.1926 38.4468 26.1936 38.2837 25.2333 38.48L23.66 38.8L21.9267 35.8533L22.9933 34.6533C23.6493 33.92 24.0119 32.9706 24.0119 31.9867C24.0119 31.0028 23.6493 30.0534 22.9933 29.32L21.9267 28.12L23.6333 25.1867L25.2067 25.5067C26.167 25.703 27.1659 25.5398 28.0139 25.0483C28.8618 24.5567 29.4998 23.7709 29.8067 22.84L30.3133 21.3333H33.7267L34.2333 22.8533C34.5402 23.7842 35.1782 24.57 36.0261 25.0616C36.8741 25.5532 37.873 25.7163 38.8333 25.52L40.4067 25.2L42.1133 28.16L41.0467 29.36C40.3981 30.0917 40.04 31.0356 40.04 32.0133C40.04 32.9911 40.3981 33.935 41.0467 34.6667ZM32.02 26.6667C30.9652 26.6667 29.934 26.9795 29.057 27.5655C28.1799 28.1515 27.4963 28.9845 27.0926 29.959C26.689 30.9336 26.5834 32.0059 26.7891 33.0405C26.9949 34.075 27.5029 35.0254 28.2488 35.7712C28.9946 36.5171 29.945 37.0251 30.9795 37.2309C32.0141 37.4366 33.0864 37.331 34.061 36.9274C35.0355 36.5237 35.8685 35.8401 36.4545 34.963C37.0405 34.086 37.3533 33.0548 37.3533 32C37.3533 30.5855 36.7914 29.229 35.7912 28.2288C34.791 27.2286 33.4345 26.6667 32.02 26.6667ZM32.02 34.6667C31.4926 34.6667 30.977 34.5103 30.5385 34.2173C30.1 33.9242 29.7582 33.5078 29.5563 33.0205C29.3545 32.5332 29.3017 31.997 29.4046 31.4798C29.5075 30.9625 29.7614 30.4873 30.1344 30.1144C30.5073 29.7414 30.9825 29.4875 31.4998 29.3846C32.017 29.2817 32.5532 29.3345 33.0405 29.5363C33.5278 29.7382 33.9442 30.08 34.2373 30.5185C34.5303 30.957 34.6867 31.4726 34.6867 32C34.6867 32.7072 34.4057 33.3855 33.9056 33.8856C33.4055 34.3857 32.7272 34.6667 32.02 34.6667Z" fill="white"/>
</svg>
