<svg width="64" height="64" viewBox="0 0 64 64" fill="none" xmlns="http://www.w3.org/2000/svg">
<rect width="64" height="64" rx="8" fill="#466BF0"/>
<rect width="64" height="64" rx="8" fill="#006FAC"/>
<path d="M32.4 32.2934C33.1114 31.6775 33.682 30.9159 34.0731 30.0601C34.4642 29.2042 34.6667 28.2743 34.6666 27.3334C34.6666 25.5652 33.9643 23.8696 32.714 22.6193C31.4638 21.3691 29.7681 20.6667 28 20.6667C26.2319 20.6667 24.5362 21.3691 23.2859 22.6193C22.0357 23.8696 21.3333 25.5652 21.3333 27.3334C21.3333 28.2743 21.5357 29.2042 21.9268 30.0601C22.3179 30.9159 22.8885 31.6775 23.6 32.2934C21.7335 33.1385 20.1499 34.5034 19.0386 36.2247C17.9273 37.9461 17.3353 39.9511 17.3333 42C17.3333 42.3536 17.4738 42.6928 17.7238 42.9428C17.9739 43.1929 18.313 43.3334 18.6666 43.3334C19.0203 43.3334 19.3594 43.1929 19.6095 42.9428C19.8595 42.6928 20 42.3536 20 42C20 39.8783 20.8428 37.8435 22.3431 36.3432C23.8434 34.8429 25.8782 34 28 34C30.1217 34 32.1565 34.8429 33.6568 36.3432C35.1571 37.8435 36 39.8783 36 42C36 42.3536 36.1405 42.6928 36.3905 42.9428C36.6406 43.1929 36.9797 43.3334 37.3333 43.3334C37.6869 43.3334 38.0261 43.1929 38.2761 42.9428C38.5262 42.6928 38.6666 42.3536 38.6666 42C38.6647 39.9511 38.0727 37.9461 36.9613 36.2247C35.85 34.5034 34.2665 33.1385 32.4 32.2934ZM28 31.3334C27.2089 31.3334 26.4355 31.0988 25.7777 30.6592C25.1199 30.2197 24.6072 29.595 24.3045 28.8641C24.0017 28.1332 23.9225 27.3289 24.0768 26.553C24.2312 25.7771 24.6121 25.0643 25.1716 24.5049C25.731 23.9455 26.4437 23.5646 27.2196 23.4102C27.9955 23.2559 28.7998 23.3351 29.5307 23.6378C30.2616 23.9406 30.8863 24.4533 31.3259 25.1111C31.7654 25.7689 32 26.5422 32 27.3334C32 28.3942 31.5786 29.4116 30.8284 30.1618C30.0783 30.9119 29.0608 31.3334 28 31.3334ZM40.9866 31.76C41.8399 30.7991 42.3973 29.6121 42.5917 28.3418C42.7861 27.0715 42.6092 25.7721 42.0823 24.6C41.5555 23.4279 40.701 22.4331 39.6219 21.7353C38.5428 21.0374 37.2851 20.6663 36 20.6667C35.6464 20.6667 35.3072 20.8072 35.0572 21.0572C34.8071 21.3073 34.6666 21.6464 34.6666 22C34.6666 22.3536 34.8071 22.6928 35.0572 22.9428C35.3072 23.1929 35.6464 23.3334 36 23.3334C37.0608 23.3334 38.0783 23.7548 38.8284 24.5049C39.5786 25.2551 40 26.2725 40 27.3334C39.9981 28.0337 39.8124 28.7212 39.4614 29.3272C39.1104 29.9333 38.6065 30.4365 38 30.7867C37.8023 30.9007 37.6372 31.0636 37.5205 31.2597C37.4037 31.4558 37.3393 31.6786 37.3333 31.9067C37.3277 32.133 37.3799 32.3571 37.4849 32.5577C37.5898 32.7583 37.7442 32.9289 37.9333 33.0534L38.4533 33.4L38.6266 33.4934C40.2338 34.2556 41.5897 35.4613 42.5346 36.9684C43.4795 38.4755 43.974 40.2213 43.96 42C43.96 42.3536 44.1005 42.6928 44.3505 42.9428C44.6006 43.1929 44.9397 43.3334 45.2933 43.3334C45.6469 43.3334 45.9861 43.1929 46.2361 42.9428C46.4862 42.6928 46.6266 42.3536 46.6266 42C46.6375 39.9539 46.1251 37.939 45.1379 36.1468C44.1508 34.3545 42.7218 32.8444 40.9866 31.76Z" fill="white"/>
</svg>
