<svg width="65" height="64" viewBox="0 0 65 64" fill="none" xmlns="http://www.w3.org/2000/svg">
<rect x="0.5" width="64" height="64" rx="8" fill="#466BF0"/>
<rect x="0.5" width="64" height="64" rx="8" fill="#006FAC"/>
<path d="M33.9267 32H27.26C26.9064 32 26.5673 32.1405 26.3172 32.3905C26.0672 32.6406 25.9267 32.9797 25.9267 33.3334C25.9267 33.687 26.0672 34.0261 26.3172 34.2762C26.5673 34.5262 26.9064 34.6667 27.26 34.6667H33.9267C34.2803 34.6667 34.6195 34.5262 34.8695 34.2762C35.1196 34.0261 35.26 33.687 35.26 33.3334C35.26 32.9797 35.1196 32.6406 34.8695 32.3905C34.6195 32.1405 34.2803 32 33.9267 32ZM35.26 42.6667H24.5934C24.2397 42.6667 23.9006 42.5262 23.6506 42.2762C23.4005 42.0261 23.26 41.687 23.26 41.3334V22.6667C23.26 22.3131 23.4005 21.9739 23.6506 21.7239C23.9006 21.4738 24.2397 21.3334 24.5934 21.3334H31.26V25.3334C31.26 26.3942 31.6815 27.4116 32.4316 28.1618C33.1818 28.9119 34.1992 29.3334 35.26 29.3334H39.26V30.6667C39.26 31.0203 39.4005 31.3594 39.6506 31.6095C39.9006 31.8595 40.2397 32 40.5934 32C40.947 32 41.2861 31.8595 41.5362 31.6095C41.7862 31.3594 41.9267 31.0203 41.9267 30.6667V28C41.9325 27.9737 41.9325 27.9464 41.9267 27.92C41.9154 27.7957 41.8839 27.6741 41.8334 27.56V27.44C41.7693 27.3029 41.6837 27.1769 41.58 27.0667L33.58 19.0667C33.4669 18.9604 33.336 18.8746 33.1934 18.8134C33.1934 18.8134 33.1267 18.8134 33.0867 18.8134C32.9553 18.7373 32.8104 18.6875 32.66 18.6667H24.66C23.5992 18.6667 22.5818 19.0881 21.8316 19.8383C21.0815 20.5884 20.66 21.6058 20.66 22.6667V41.3334C20.66 42.3942 21.0815 43.4116 21.8316 44.1618C22.5818 44.9119 23.5992 45.3334 24.66 45.3334H35.3267C35.6803 45.3334 36.0195 45.1929 36.2695 44.9428C36.5196 44.6928 36.66 44.3536 36.66 44C36.66 43.6464 36.5196 43.3073 36.2695 43.0572C36.0195 42.8072 35.6803 42.6667 35.3267 42.6667H35.26ZM33.9267 23.2134L37.3667 26.6667H35.26C34.9064 26.6667 34.5673 26.5262 34.3172 26.2762C34.0672 26.0261 33.9267 25.687 33.9267 25.3334V23.2134ZM41.3534 43.0534C41.29 42.996 41.2232 42.9426 41.1534 42.8934C41.0068 42.7981 40.8442 42.7303 40.6734 42.6934C40.4592 42.6505 40.2377 42.6609 40.0285 42.7236C39.8192 42.7864 39.6286 42.8996 39.4734 43.0534C39.3484 43.1773 39.2492 43.3248 39.1815 43.4873C39.1138 43.6497 39.079 43.824 39.079 44C39.079 44.176 39.1138 44.3503 39.1815 44.5128C39.2492 44.6753 39.3484 44.8227 39.4734 44.9467C39.7217 45.193 40.0569 45.3319 40.4067 45.3334C40.6262 45.3345 40.8426 45.2813 41.0366 45.1787C41.2307 45.0761 41.3964 44.9272 41.5191 44.7452C41.6418 44.5631 41.7176 44.3536 41.7399 44.1353C41.7621 43.9169 41.7301 43.6964 41.6467 43.4934C41.5742 43.3313 41.4751 43.1826 41.3534 43.0534ZM33.9267 37.3334H27.26C26.9064 37.3334 26.5673 37.4738 26.3172 37.7239C26.0672 37.9739 25.9267 38.3131 25.9267 38.6667C25.9267 39.0203 26.0672 39.3594 26.3172 39.6095C26.5673 39.8595 26.9064 40 27.26 40H33.9267C34.2803 40 34.6195 39.8595 34.8695 39.6095C35.1196 39.3594 35.26 39.0203 35.26 38.6667C35.26 38.3131 35.1196 37.9739 34.8695 37.7239C34.6195 37.4738 34.2803 37.3334 33.9267 37.3334ZM40.4067 33.3334C39.7041 33.3329 39.0138 33.5175 38.4052 33.8686C37.7967 34.2197 37.2913 34.7249 36.94 35.3334C36.8525 35.4857 36.7958 35.6538 36.7732 35.828C36.7506 36.0023 36.7626 36.1792 36.8084 36.3489C36.8542 36.5185 36.933 36.6774 37.0402 36.8166C37.1474 36.9558 37.281 37.0725 37.4334 37.16C37.5857 37.2476 37.7538 37.3043 37.928 37.3268C38.1023 37.3494 38.2793 37.3375 38.4489 37.2917C38.6185 37.2459 38.7774 37.1671 38.9166 37.0599C39.0558 36.9526 39.1725 36.819 39.26 36.6667C39.3772 36.4637 39.5459 36.2952 39.7489 36.1782C39.952 36.0611 40.1824 35.9997 40.4167 36C40.6511 36.0004 40.8813 36.0625 41.084 36.1802C41.2867 36.2978 41.4548 36.4669 41.5714 36.6702C41.688 36.8735 41.7489 37.104 41.748 37.3384C41.7472 37.5728 41.6845 37.8028 41.5664 38.0053C41.4483 38.2077 41.2789 38.3755 41.0753 38.4916C40.8717 38.6077 40.6411 38.6681 40.4067 38.6667C40.0531 38.6667 39.7139 38.8072 39.4639 39.0572C39.2138 39.3073 39.0734 39.6464 39.0734 40C39.0734 40.3536 39.2138 40.6928 39.4639 40.9428C39.7139 41.1929 40.0531 41.3334 40.4067 41.3334C41.4676 41.3334 42.485 40.9119 43.2351 40.1618C43.9853 39.4116 44.4067 38.3942 44.4067 37.3334C44.4067 36.2725 43.9853 35.2551 43.2351 34.5049C42.485 33.7548 41.4676 33.3334 40.4067 33.3334ZM27.26 29.3334H28.5934C28.947 29.3334 29.2861 29.1929 29.5362 28.9428C29.7862 28.6928 29.9267 28.3536 29.9267 28C29.9267 27.6464 29.7862 27.3073 29.5362 27.0572C29.2861 26.8072 28.947 26.6667 28.5934 26.6667H27.26C26.9064 26.6667 26.5673 26.8072 26.3172 27.0572C26.0672 27.3073 25.9267 27.6464 25.9267 28C25.9267 28.3536 26.0672 28.6928 26.3172 28.9428C26.5673 29.1929 26.9064 29.3334 27.26 29.3334Z" fill="white"/>
</svg>
