<svg width="64" height="64" viewBox="0 0 64 64" fill="none" xmlns="http://www.w3.org/2000/svg">
<rect width="64" height="64" rx="8" fill="#466BF0"/>
<rect width="64" height="64" rx="8" fill="#006FAC"/>
<path d="M42.1734 20.8667C42.0185 20.7414 41.8375 20.6524 41.6436 20.6062C41.4498 20.5601 41.2481 20.558 41.0534 20.6C39.6286 20.8986 38.1578 20.9024 36.7316 20.6112C35.3053 20.32 33.9537 19.7399 32.76 18.9067C32.5369 18.7519 32.2717 18.6689 32 18.6689C31.7284 18.6689 31.4632 18.7519 31.24 18.9067C30.0464 19.7399 28.6948 20.32 27.2685 20.6112C25.8423 20.9024 24.3715 20.8986 22.9467 20.6C22.752 20.558 22.5503 20.5601 22.3564 20.6062C22.1626 20.6524 21.9816 20.7414 21.8267 20.8667C21.672 20.9922 21.5474 21.1507 21.462 21.3307C21.3767 21.5107 21.3327 21.7075 21.3334 21.9067V31.84C21.3322 33.7517 21.7877 35.636 22.6621 37.336C23.5364 39.036 24.8043 40.5025 26.36 41.6134L31.2267 45.08C31.4525 45.2408 31.7228 45.3272 32 45.3272C32.2773 45.3272 32.5476 45.2408 32.7734 45.08L37.64 41.6134C39.1958 40.5025 40.4637 39.036 41.338 37.336C42.2124 35.636 42.6679 33.7517 42.6667 31.84V21.9067C42.6674 21.7075 42.6234 21.5107 42.5381 21.3307C42.4527 21.1507 42.3281 20.9922 42.1734 20.8667ZM40 31.84C40.0011 33.3264 39.6471 34.7915 38.9676 36.1134C38.2881 37.4353 37.3027 38.5758 36.0934 39.44L32 42.36L27.9067 39.44C26.6974 38.5758 25.712 37.4353 25.0325 36.1134C24.353 34.7915 23.999 33.3264 24 31.84V23.44C26.7953 23.6793 29.5948 23.0307 32 21.5867C34.4053 23.0307 37.2048 23.6793 40 23.44V31.84ZM34.0534 28.7867L30.4667 32.3867L29.28 31.1867C29.029 30.9356 28.6884 30.7946 28.3334 30.7946C27.9783 30.7946 27.6378 30.9356 27.3867 31.1867C27.1356 31.4378 26.9946 31.7783 26.9946 32.1334C26.9946 32.4884 27.1356 32.829 27.3867 33.08L29.52 35.2134C29.644 35.3383 29.7915 35.4375 29.9539 35.5052C30.1164 35.5729 30.2907 35.6078 30.4667 35.6078C30.6427 35.6078 30.817 35.5729 30.9795 35.5052C31.142 35.4375 31.2894 35.3383 31.4134 35.2134L36 30.6667C36.2511 30.4156 36.3922 30.0751 36.3922 29.72C36.3922 29.365 36.2511 29.0244 36 28.7734C35.749 28.5223 35.4084 28.3812 35.0534 28.3812C34.6983 28.3812 34.3578 28.5223 34.1067 28.7734L34.0534 28.7867Z" fill="white"/>
</svg>
