<svg width="65" height="64" viewBox="0 0 65 64" fill="none" xmlns="http://www.w3.org/2000/svg">
<rect x="0.5" width="64" height="64" rx="8" fill="#006FAC"/>
<path d="M41.8334 21.3333H23.1667C22.1058 21.3333 21.0884 21.7548 20.3383 22.5049C19.5881 23.2551 19.1667 24.2725 19.1667 25.3333V38.6667C19.1667 39.7275 19.5881 40.745 20.3383 41.4951C21.0884 42.2452 22.1058 42.6667 23.1667 42.6667H41.8334C42.8942 42.6667 43.9116 42.2452 44.6618 41.4951C45.4119 40.745 45.8334 39.7275 45.8334 38.6667V25.3333C45.8334 24.2725 45.4119 23.2551 44.6618 22.5049C43.9116 21.7548 42.8942 21.3333 41.8334 21.3333ZM23.1667 40C22.8131 40 22.4739 39.8595 22.2239 39.6095C21.9738 39.3594 21.8334 39.0203 21.8334 38.6667V35.44L26.2334 31.0533C26.4826 30.809 26.8177 30.6722 27.1667 30.6722C27.5157 30.6722 27.8508 30.809 28.1 31.0533L37.0467 40H23.1667ZM43.1667 38.6667C43.1667 39.0203 43.0262 39.3594 42.7762 39.6095C42.5261 39.8595 42.187 40 41.8334 40H40.8067L35.7267 34.8933L36.9 33.72C37.1493 33.4757 37.4844 33.3389 37.8334 33.3389C38.1824 33.3389 38.5175 33.4757 38.7667 33.72L43.1667 38.1067V38.6667ZM43.1667 34.3467L40.66 31.8533C39.9001 31.1233 38.8872 30.7155 37.8334 30.7155C36.7795 30.7155 35.7666 31.1233 35.0067 31.8533L33.8334 33.0267L29.9934 29.1867C29.2334 28.4566 28.2205 28.0488 27.1667 28.0488C26.1129 28.0488 25.0999 28.4566 24.34 29.1867L21.8334 31.68V25.3333C21.8334 24.9797 21.9738 24.6406 22.2239 24.3905C22.4739 24.1405 22.8131 24 23.1667 24H41.8334C42.187 24 42.5261 24.1405 42.7762 24.3905C43.0262 24.6406 43.1667 24.9797 43.1667 25.3333V34.3467Z" fill="white"/>
</svg>
