<svg width="65" height="64" viewBox="0 0 65 64" fill="none" xmlns="http://www.w3.org/2000/svg">
<rect x="0.25" width="64" height="64" rx="8" fill="#006FAC"/>
<path d="M31.3034 36.3867C31.246 36.45 31.1926 36.5168 31.1434 36.5867C31.0929 36.661 31.0525 36.7417 31.0234 36.8267C30.9849 36.9022 30.958 36.9831 30.9434 37.0667C30.9368 37.1554 30.9368 37.2446 30.9434 37.3333C30.9389 37.5082 30.9754 37.6817 31.05 37.84C31.1099 38.0055 31.2054 38.1557 31.3299 38.2801C31.4543 38.4046 31.6046 38.5001 31.77 38.56C31.9296 38.6305 32.1022 38.667 32.2767 38.667C32.4512 38.667 32.6238 38.6305 32.7834 38.56C32.9488 38.5001 33.0991 38.4046 33.2235 38.2801C33.3479 38.1557 33.4435 38.0055 33.5034 37.84C33.5626 37.6779 33.5897 37.5058 33.5834 37.3333C33.5844 37.1578 33.5507 36.9839 33.4844 36.8214C33.418 36.659 33.3203 36.5112 33.1967 36.3867C33.0727 36.2617 32.9253 36.1625 32.7628 36.0948C32.6003 36.0271 32.426 35.9923 32.25 35.9923C32.074 35.9923 31.8997 36.0271 31.7373 36.0948C31.5748 36.1625 31.4273 36.2617 31.3034 36.3867ZM32.25 18.6667C29.6129 18.6667 27.0351 19.4486 24.8424 20.9137C22.6498 22.3788 20.9408 24.4612 19.9316 26.8975C18.9225 29.3339 18.6584 32.0148 19.1729 34.6012C19.6874 37.1876 20.9572 39.5634 22.8219 41.4281C24.6866 43.2928 27.0624 44.5627 29.6488 45.0771C32.2352 45.5916 34.9161 45.3276 37.3525 44.3184C39.7888 43.3092 41.8712 41.6002 43.3363 39.4076C44.8014 37.2149 45.5834 34.6371 45.5834 32C45.5834 30.249 45.2385 28.5152 44.5684 26.8975C43.8984 25.2799 42.9162 23.81 41.6781 22.5719C40.44 21.3338 38.9701 20.3517 37.3525 19.6816C35.7348 19.0115 34.001 18.6667 32.25 18.6667ZM32.25 42.6667C30.1404 42.6667 28.0781 42.0411 26.3239 40.869C24.5698 39.6969 23.2026 38.031 22.3953 36.0819C21.588 34.1329 21.3767 31.9882 21.7883 29.919C22.1999 27.8499 23.2158 25.9493 24.7076 24.4575C26.1993 22.9658 28.0999 21.9499 30.1691 21.5383C32.2382 21.1267 34.3829 21.3379 36.332 22.1453C38.2811 22.9526 39.947 24.3198 41.119 26.0739C42.2911 27.828 42.9167 29.8903 42.9167 32C42.9167 34.829 41.7929 37.5421 39.7925 39.5425C37.7921 41.5429 35.079 42.6667 32.25 42.6667ZM32.25 25.3333C31.5474 25.3329 30.8571 25.5175 30.2486 25.8686C29.64 26.2197 29.1347 26.7249 28.7834 27.3333C28.6869 27.4851 28.6221 27.6548 28.5929 27.8322C28.5637 28.0097 28.5707 28.1912 28.6135 28.3658C28.6563 28.5405 28.734 28.7047 28.8419 28.8486C28.9498 28.9924 29.0856 29.113 29.2413 29.203C29.397 29.293 29.5693 29.3505 29.7478 29.3722C29.9263 29.3939 30.1074 29.3793 30.2801 29.3292C30.4528 29.2791 30.6136 29.1945 30.7528 29.0807C30.8919 28.9668 31.0067 28.826 31.09 28.6667C31.2075 28.4632 31.3767 28.2944 31.5804 28.1773C31.7841 28.0602 32.0151 27.9991 32.25 28C32.6036 28 32.9428 28.1405 33.1928 28.3905C33.4429 28.6406 33.5834 28.9797 33.5834 29.3333C33.5834 29.6869 33.4429 30.0261 33.1928 30.2761C32.9428 30.5262 32.6036 30.6667 32.25 30.6667C31.8964 30.6667 31.5573 30.8071 31.3072 31.0572C31.0572 31.3072 30.9167 31.6464 30.9167 32V33.3333C30.9167 33.6869 31.0572 34.0261 31.3072 34.2761C31.5573 34.5262 31.8964 34.6667 32.25 34.6667C32.6036 34.6667 32.9428 34.5262 33.1928 34.2761C33.4429 34.0261 33.5834 33.6869 33.5834 33.3333V33.0933C34.4652 32.7734 35.2065 32.1536 35.6777 31.3425C36.1489 30.5313 36.3201 29.5804 36.1612 28.6558C36.0024 27.7313 35.5236 26.892 34.8087 26.2847C34.0937 25.6773 33.1881 25.3406 32.25 25.3333Z" fill="white"/>
</svg>
