<svg width="65" height="64" viewBox="0 0 65 64" fill="none" xmlns="http://www.w3.org/2000/svg">
<rect x="0.75" width="64" height="64" rx="8" fill="#006FAC"/>
<g clip-path="url(#clip0_821_17236)">
<path fill-rule="evenodd" clip-rule="evenodd" d="M29.9894 20.6855H21.5952C21.2848 20.6855 20.987 20.5622 20.7675 20.3426C20.548 20.1231 20.4246 19.8253 20.4246 19.5149C20.4246 19.2044 20.548 18.9066 20.7675 18.6871C20.987 18.4676 21.2848 18.3442 21.5952 18.3442H29.9894C30.231 17.6588 30.6794 17.0652 31.2726 16.6454C31.8658 16.2255 32.5747 16 33.3015 16C34.0282 16 34.7371 16.2255 35.3303 16.6454C35.9236 17.0652 36.3719 17.6588 36.6135 18.3442H45.0077C45.3181 18.3442 45.6159 18.4676 45.8354 18.6871C46.055 18.9066 46.1783 19.2044 46.1783 19.5149C46.1783 19.8253 46.055 20.1231 45.8354 20.3426C45.6159 20.5622 45.3181 20.6855 45.0077 20.6855H36.6135C36.4384 21.1793 36.1553 21.6277 35.7848 21.9982C35.4143 22.3687 34.9659 22.6518 34.4721 22.8269V41.7567H41.4958C42.3237 41.7567 43.1177 42.0856 43.7032 42.671C44.2886 43.2564 44.6175 44.0504 44.6175 44.8783C44.6175 45.7063 44.2886 46.5003 43.7032 47.0857C43.1177 47.6711 42.3237 48 41.4958 48H25.1071C24.2792 48 23.4852 47.6711 22.8998 47.0857C22.3143 46.5003 21.9854 45.7063 21.9854 44.8783C21.9854 44.0504 22.3143 43.2564 22.8998 42.671C23.4852 42.0856 24.2792 41.7567 25.1071 41.7567H32.1308V22.8269C31.6371 22.6518 31.1886 22.3687 30.8181 21.9982C30.4477 21.6277 30.1645 21.1793 29.9894 20.6855ZM32.1308 19.5149C32.1308 19.2044 32.2542 18.9066 32.4737 18.6871C32.6932 18.4676 32.991 18.3442 33.3015 18.3442C33.6119 18.3442 33.9097 18.4676 34.1292 18.6871C34.3487 18.9066 34.4721 19.2044 34.4721 19.5149C34.4721 19.8253 34.3487 20.1231 34.1292 20.3426C33.9097 20.5622 33.6119 20.6855 33.3015 20.6855C32.991 20.6855 32.6932 20.5622 32.4737 20.3426C32.2542 20.1231 32.1308 19.8253 32.1308 19.5149ZM25.1071 44.0979C24.9001 44.0979 24.7016 44.1801 24.5553 44.3265C24.4089 44.4729 24.3267 44.6714 24.3267 44.8783C24.3267 45.0853 24.4089 45.2838 24.5553 45.4302C24.7016 45.5765 24.9001 45.6588 25.1071 45.6588H41.4958C41.7028 45.6588 41.9013 45.5765 42.0476 45.4302C42.194 45.2838 42.2762 45.0853 42.2762 44.8783C42.2762 44.6714 42.194 44.4729 42.0476 44.3265C41.9013 44.1801 41.7028 44.0979 41.4958 44.0979H25.1071Z" fill="white"/>
<path fill-rule="evenodd" clip-rule="evenodd" d="M18.0834 32.0015C18.0834 30.166 18.9621 27.6265 19.9626 25.6256C20.473 24.6032 21.0536 23.6464 21.6358 22.9253C21.9261 22.5663 22.2445 22.2308 22.5832 21.9763C22.9001 21.7375 23.3699 21.466 23.9365 21.466C24.5031 21.466 24.9729 21.7375 25.2897 21.9763C25.63 22.2308 25.9468 22.5663 26.2371 22.9253C26.8193 23.6464 27.4 24.6032 27.9104 25.6256C28.9108 27.6265 29.7896 30.166 29.7896 32.0015C29.7896 33.5539 29.1729 35.0426 28.0753 36.1403C26.9776 37.238 25.4888 37.8547 23.9365 37.8547C22.3841 37.8547 20.8954 37.238 19.7977 36.1403C18.7 35.0426 18.0834 33.5539 18.0834 32.0015ZM20.5588 30.8309C20.8008 29.6072 21.3549 28.0729 22.0572 26.6713C22.5224 25.7426 23.0156 24.9435 23.4573 24.3956C23.6493 24.1584 23.8116 23.9929 23.9365 23.8899C24.0613 23.9929 24.2237 24.1584 24.4157 24.3972C24.8574 24.9435 25.3522 25.7426 25.8157 26.6713C26.5181 28.0729 27.0722 29.6057 27.3141 30.8309H20.5588ZM27.2486 33.1722C27.0069 33.8576 26.5586 34.4512 25.9654 34.8711C25.3721 35.2909 24.6633 35.5164 23.9365 35.5164C23.2097 35.5164 22.5008 35.2909 21.9076 34.8711C21.3144 34.4512 20.866 33.8576 20.6244 33.1722H27.2486ZM38.6941 25.6256C37.6905 27.6265 36.8133 30.166 36.8133 32.0015C36.8133 33.5539 37.43 35.0426 38.5277 36.1403C39.6253 37.238 41.1141 37.8547 42.6664 37.8547C44.2188 37.8547 45.7075 37.238 46.8052 36.1403C47.9029 35.0426 48.5195 33.5539 48.5195 32.0015C48.5195 30.166 47.6408 27.6265 46.6403 25.6256C46.1299 24.6032 45.5493 23.6464 44.9671 22.9253C44.6906 22.572 44.3725 22.2534 44.0197 21.9763C43.7028 21.7375 43.233 21.466 42.6664 21.466C42.0998 21.466 41.63 21.7375 41.3132 21.9763C40.9604 22.2534 40.6423 22.572 40.3658 22.9253C39.7836 23.6464 39.2045 24.6032 38.6941 25.6256ZM40.7856 26.6713C40.0864 28.0729 39.5307 29.6057 39.2872 30.8309H46.0456C45.8021 29.6072 45.2465 28.0729 44.5472 26.6713C44.0805 25.7426 43.5873 24.9435 43.1456 24.3956C43.0022 24.2128 42.8417 24.044 42.6664 23.8915C42.5416 23.9945 42.3792 24.1599 42.1873 24.3987C41.7455 24.945 41.2508 25.7442 40.7872 26.6729L40.7856 26.6713ZM42.6664 35.5134C44.196 35.5134 45.4962 34.5363 45.9785 33.1722H39.3544C39.5967 33.8569 40.0453 34.4497 40.6384 34.869C41.2316 35.2883 41.9401 35.5134 42.6664 35.5134ZM42.8194 23.7822L42.8147 23.7853L42.8194 23.7822Z" fill="white"/>
</g>
<defs>
<clipPath id="clip0_821_17236">
<rect width="32" height="32" fill="white" transform="translate(16.75 16)"/>
</clipPath>
</defs>
</svg>
