<svg width="65" height="64" viewBox="0 0 65 64" fill="none" xmlns="http://www.w3.org/2000/svg">
<rect x="0.25" width="64" height="64" rx="8" fill="#006FAC"/>
<path d="M41.5834 24.6667H37.5834V23.3333C37.5834 22.2725 37.162 21.2551 36.4118 20.5049C35.6617 19.7548 34.6443 19.3333 33.5834 19.3333H30.9167C29.8559 19.3333 28.8385 19.7548 28.0883 20.5049C27.3382 21.2551 26.9167 22.2725 26.9167 23.3333V24.6667H22.9167C21.8559 24.6667 20.8385 25.0881 20.0883 25.8382C19.3382 26.5884 18.9167 27.6058 18.9167 28.6667V40.6667C18.9167 41.7275 19.3382 42.745 20.0883 43.4951C20.8385 44.2452 21.8559 44.6667 22.9167 44.6667H41.5834C42.6443 44.6667 43.6617 44.2452 44.4118 43.4951C45.162 42.745 45.5834 41.7275 45.5834 40.6667V28.6667C45.5834 27.6058 45.162 26.5884 44.4118 25.8382C43.6617 25.0881 42.6443 24.6667 41.5834 24.6667ZM29.5834 23.3333C29.5834 22.9797 29.7239 22.6406 29.9739 22.3905C30.224 22.1405 30.5631 22 30.9167 22H33.5834C33.937 22 34.2762 22.1405 34.5262 22.3905C34.7763 22.6406 34.9167 22.9797 34.9167 23.3333V24.6667H29.5834V23.3333ZM42.9167 40.6667C42.9167 41.0203 42.7763 41.3594 42.5262 41.6095C42.2762 41.8595 41.937 42 41.5834 42H22.9167C22.5631 42 22.224 41.8595 21.9739 41.6095C21.7239 41.3594 21.5834 41.0203 21.5834 40.6667V33.3333C22.884 33.8492 24.221 34.2681 25.5834 34.5867V35.3733C25.5834 35.727 25.7239 36.0661 25.9739 36.3162C26.224 36.5662 26.5631 36.7067 26.9167 36.7067C27.2704 36.7067 27.6095 36.5662 27.8596 36.3162C28.1096 36.0661 28.2501 35.727 28.2501 35.3733V35.0933C29.5759 35.2738 30.9121 35.3674 32.2501 35.3733C33.5881 35.3674 34.9243 35.2738 36.2501 35.0933V35.3733C36.2501 35.727 36.3906 36.0661 36.6406 36.3162C36.8907 36.5662 37.2298 36.7067 37.5834 36.7067C37.937 36.7067 38.2762 36.5662 38.5262 36.3162C38.7763 36.0661 38.9167 35.727 38.9167 35.3733V34.5867C40.2792 34.2681 41.6162 33.8492 42.9167 33.3333V40.6667ZM42.9167 30.4133C41.6199 30.9607 40.2826 31.4065 38.9167 31.7467V31.3333C38.9167 30.9797 38.7763 30.6406 38.5262 30.3905C38.2762 30.1405 37.937 30 37.5834 30C37.2298 30 36.8907 30.1405 36.6406 30.3905C36.3906 30.6406 36.2501 30.9797 36.2501 31.3333V32.32C33.5984 32.7201 30.9017 32.7201 28.2501 32.32V31.3333C28.2501 30.9797 28.1096 30.6406 27.8596 30.3905C27.6095 30.1405 27.2704 30 26.9167 30C26.5631 30 26.224 30.1405 25.9739 30.3905C25.7239 30.6406 25.5834 30.9797 25.5834 31.3333V31.7733C24.2176 31.4331 22.8802 30.9873 21.5834 30.44V28.6667C21.5834 28.3131 21.7239 27.9739 21.9739 27.7239C22.224 27.4738 22.5631 27.3333 22.9167 27.3333H41.5834C41.937 27.3333 42.2762 27.4738 42.5262 27.7239C42.7763 27.9739 42.9167 28.3131 42.9167 28.6667V30.4133Z" fill="white"/>
</svg>
