<svg width="65" height="64" viewBox="0 0 65 64" fill="none" xmlns="http://www.w3.org/2000/svg">
<rect x="0.5" width="64" height="64" rx="8" fill="#466BF0"/>
<rect x="0.5" width="64" height="64" rx="8" fill="#006FAC"/>
<path d="M41.8334 24.6666H37.8334V23.3333C37.8334 22.2724 37.4119 21.255 36.6618 20.5049C35.9116 19.7547 34.8942 19.3333 33.8334 19.3333H31.1667C30.1058 19.3333 29.0884 19.7547 28.3383 20.5049C27.5881 21.255 27.1667 22.2724 27.1667 23.3333V24.6666H23.1667C22.1058 24.6666 21.0884 25.0881 20.3383 25.8382C19.5881 26.5884 19.1667 27.6058 19.1667 28.6666V40.6666C19.1667 41.7275 19.5881 42.7449 20.3383 43.4951C21.0884 44.2452 22.1058 44.6666 23.1667 44.6666H41.8334C42.8942 44.6666 43.9116 44.2452 44.6618 43.4951C45.4119 42.7449 45.8334 41.7275 45.8334 40.6666V28.6666C45.8334 27.6058 45.4119 26.5884 44.6618 25.8382C43.9116 25.0881 42.8942 24.6666 41.8334 24.6666ZM29.8334 23.3333C29.8334 22.9797 29.9738 22.6406 30.2239 22.3905C30.4739 22.1405 30.8131 22 31.1667 22H33.8334C34.187 22 34.5261 22.1405 34.7762 22.3905C35.0262 22.6406 35.1667 22.9797 35.1667 23.3333V24.6666H29.8334V23.3333ZM43.1667 40.6666C43.1667 41.0203 43.0262 41.3594 42.7762 41.6095C42.5261 41.8595 42.187 42 41.8334 42H23.1667C22.8131 42 22.4739 41.8595 22.2239 41.6095C21.9738 41.3594 21.8334 41.0203 21.8334 40.6666V33.3333C23.1339 33.8492 24.4709 34.2681 25.8334 34.5866V35.3733C25.8334 35.7269 25.9738 36.0661 26.2239 36.3161C26.4739 36.5662 26.8131 36.7066 27.1667 36.7066C27.5203 36.7066 27.8594 36.5662 28.1095 36.3161C28.3595 36.0661 28.5 35.7269 28.5 35.3733V35.0933C29.8258 35.2738 31.162 35.3673 32.5 35.3733C33.838 35.3673 35.1742 35.2738 36.5 35.0933V35.3733C36.5 35.7269 36.6405 36.0661 36.8905 36.3161C37.1406 36.5662 37.4797 36.7066 37.8334 36.7066C38.187 36.7066 38.5261 36.5662 38.7762 36.3161C39.0262 36.0661 39.1667 35.7269 39.1667 35.3733V34.5866C40.5291 34.2681 41.8661 33.8492 43.1667 33.3333V40.6666ZM43.1667 30.4133C41.8699 30.9606 40.5325 31.4064 39.1667 31.7466V31.3333C39.1667 30.9797 39.0262 30.6406 38.7762 30.3905C38.5261 30.1405 38.187 30 37.8334 30C37.4797 30 37.1406 30.1405 36.8905 30.3905C36.6405 30.6406 36.5 30.9797 36.5 31.3333V32.32C33.8484 32.72 31.1517 32.72 28.5 32.32V31.3333C28.5 30.9797 28.3595 30.6406 28.1095 30.3905C27.8594 30.1405 27.5203 30 27.1667 30C26.8131 30 26.4739 30.1405 26.2239 30.3905C25.9738 30.6406 25.8334 30.9797 25.8334 31.3333V31.7733C24.4675 31.4331 23.1302 30.9873 21.8334 30.44V28.6666C21.8334 28.313 21.9738 27.9739 22.2239 27.7238C22.4739 27.4738 22.8131 27.3333 23.1667 27.3333H41.8334C42.187 27.3333 42.5261 27.4738 42.7762 27.7238C43.0262 27.9739 43.1667 28.313 43.1667 28.6666V30.4133Z" fill="white"/>
</svg>
