<svg width="65" height="64" viewBox="0 0 65 64" fill="none" xmlns="http://www.w3.org/2000/svg">
<rect x="0.75" width="64" height="64" rx="8" fill="#006FAC"/>
<path fill-rule="evenodd" clip-rule="evenodd" d="M21.75 39C21.75 37.8954 22.6454 37 23.75 37H34.75C35.8546 37 36.75 37.8954 36.75 39C36.75 40.1046 35.8546 41 34.75 41H23.75C22.6454 41 21.75 40.1046 21.75 39Z" fill="white"/>
<path fill-rule="evenodd" clip-rule="evenodd" d="M25.75 21C25.75 19.8954 26.6454 19 27.75 19H35.25C37.5043 19 39.6663 19.8955 41.2604 21.4896C42.8545 23.0837 43.75 25.2457 43.75 27.5C43.75 29.7543 42.8545 31.9163 41.2604 33.5104C39.6663 35.1045 37.5043 36 35.25 36H29.75V43C29.75 44.1046 28.8546 45 27.75 45C26.6454 45 25.75 44.1046 25.75 43V36H23.75C22.6454 36 21.75 35.1046 21.75 34C21.75 32.8954 22.6454 32 23.75 32H25.75V21ZM29.75 32H35.25C36.4435 32 37.5881 31.5259 38.432 30.682C39.2759 29.8381 39.75 28.6935 39.75 27.5C39.75 26.3065 39.2759 25.1619 38.432 24.318C37.5881 23.4741 36.4435 23 35.25 23H29.75V32Z" fill="white"/>
</svg>
