<svg width="64" height="64" viewBox="0 0 64 64" fill="none" xmlns="http://www.w3.org/2000/svg">
<rect width="64" height="64" rx="8" fill="#466BF0"/>
<rect width="64" height="64" rx="8" fill="#006FAC"/>
<path d="M38.6667 24.08C37.742 24.0806 36.846 24.4016 36.1313 24.9883C35.4166 25.575 34.9272 26.3913 34.7465 27.2981C34.5657 28.205 34.7048 29.1465 35.1399 29.9624C35.5751 30.7783 36.2795 31.4182 37.1333 31.7733C36.9303 32.2599 36.5877 32.6754 36.1486 32.9673C35.7096 33.2592 35.1939 33.4144 34.6667 33.4133H29.3333C28.3934 33.4173 27.472 33.6752 26.6667 34.16V26.5066C27.5563 26.1921 28.3061 25.5732 28.7835 24.7593C29.2609 23.9455 29.4353 22.989 29.2757 22.059C29.1162 21.129 28.633 20.2854 27.9115 19.6772C27.1901 19.069 26.2769 18.7354 25.3333 18.7354C24.3897 18.7354 23.4765 19.069 22.7551 19.6772C22.0337 20.2854 21.5505 21.129 21.3909 22.059C21.2314 22.989 21.4057 23.9455 21.8831 24.7593C22.3606 25.5732 23.1104 26.1921 24 26.5066V37.6533C23.1213 37.9693 22.3809 38.5828 21.907 39.3874C21.4331 40.192 21.2557 41.137 21.4054 42.0587C21.5551 42.9804 22.0226 43.8207 22.7268 44.4339C23.431 45.0471 24.3275 45.3946 25.2611 45.4162C26.1946 45.4378 27.1063 45.1322 27.8381 44.5522C28.5699 43.9722 29.0758 43.1545 29.268 42.2407C29.4602 41.3269 29.3266 40.3747 28.8905 39.549C28.4544 38.7234 27.7431 38.0763 26.88 37.72C27.0821 37.2355 27.4227 36.8214 27.8591 36.5297C28.2955 36.238 28.8084 36.0815 29.3333 36.08H34.6667C35.8864 36.0797 37.0693 35.6614 38.0179 34.8947C38.9666 34.128 39.6238 33.0592 39.88 31.8666C40.7714 31.5638 41.5275 30.9561 42.015 30.1507C42.5026 29.3453 42.6904 28.3937 42.5454 27.4635C42.4005 26.5332 41.932 25.6839 41.2225 25.065C40.513 24.4461 39.608 24.0973 38.6667 24.08ZM25.3333 21.4133C25.597 21.4133 25.8548 21.4915 26.0741 21.638C26.2933 21.7845 26.4642 21.9928 26.5652 22.2364C26.6661 22.48 26.6925 22.7481 26.641 23.0068C26.5896 23.2654 26.4626 23.503 26.2761 23.6895C26.0897 23.8759 25.8521 24.0029 25.5934 24.0544C25.3348 24.1058 25.0667 24.0794 24.8231 23.9785C24.5794 23.8776 24.3712 23.7067 24.2247 23.4874C24.0782 23.2681 24 23.0104 24 22.7466C24 22.393 24.1405 22.0539 24.3905 21.8038C24.6406 21.5538 24.9797 21.4133 25.3333 21.4133ZM25.3333 42.7466C25.0696 42.7466 24.8118 42.6685 24.5926 42.5219C24.3733 42.3754 24.2024 42.1672 24.1015 41.9236C24.0006 41.6799 23.9742 41.4118 24.0256 41.1532C24.0771 40.8946 24.204 40.657 24.3905 40.4705C24.577 40.284 24.8146 40.157 25.0732 40.1056C25.3318 40.0542 25.5999 40.0806 25.8436 40.1815C26.0872 40.2824 26.2954 40.4533 26.4419 40.6726C26.5885 40.8918 26.6667 41.1496 26.6667 41.4133C26.6667 41.7669 26.5262 42.1061 26.2761 42.3561C26.0261 42.6062 25.6869 42.7466 25.3333 42.7466ZM38.6667 29.4133C38.4029 29.4133 38.1452 29.3351 37.9259 29.1886C37.7066 29.0421 37.5357 28.8339 37.4348 28.5902C37.3339 28.3466 37.3075 28.0785 37.3589 27.8199C37.4104 27.5612 37.5374 27.3236 37.7238 27.1372C37.9103 26.9507 38.1479 26.8237 38.4065 26.7723C38.6652 26.7208 38.9333 26.7472 39.1769 26.8481C39.4205 26.9491 39.6288 27.12 39.7753 27.3392C39.9218 27.5585 40 27.8163 40 28.08C40 28.4336 39.8595 28.7727 39.6095 29.0228C39.3594 29.2728 39.0203 29.4133 38.6667 29.4133Z" fill="white"/>
</svg>
