<svg width="65" height="64" viewBox="0 0 65 64" fill="none" xmlns="http://www.w3.org/2000/svg">
<rect x="0.5" width="64" height="64" rx="8" fill="#466BF0"/>
<rect x="0.5" width="64" height="64" rx="8" fill="#006FAC"/>
<path d="M32.5 30.6667C31.7088 30.6667 30.9355 30.9013 30.2777 31.3408C29.6199 31.7803 29.1072 32.405 28.8044 33.136C28.5017 33.8669 28.4225 34.6711 28.5768 35.447C28.7312 36.223 29.1121 36.9357 29.6715 37.4951C30.2309 38.0545 30.9437 38.4355 31.7196 38.5898C32.4955 38.7442 33.2998 38.665 34.0307 38.3622C34.7616 38.0595 35.3863 37.5468 35.8258 36.889C36.2654 36.2312 36.5 35.4578 36.5 34.6667C36.5 33.6058 36.0785 32.5884 35.3284 31.8383C34.5782 31.0881 33.5608 30.6667 32.5 30.6667ZM32.5 36C32.2363 36 31.9785 35.9218 31.7592 35.7753C31.5399 35.6288 31.369 35.4206 31.2681 35.1769C31.1672 34.9333 31.1408 34.6652 31.1922 34.4066C31.2437 34.1479 31.3707 33.9103 31.5572 33.7239C31.7436 33.5374 31.9812 33.4104 32.2398 33.359C32.4985 33.3075 32.7666 33.3339 33.0102 33.4348C33.2538 33.5358 33.4621 33.7067 33.6086 33.9259C33.7551 34.1452 33.8333 34.403 33.8333 34.6667C33.8333 35.0203 33.6928 35.3594 33.4428 35.6095C33.1927 35.8595 32.8536 36 32.5 36ZM41.8333 24H37.8333V22.6667C37.8333 21.6058 37.4119 20.5884 36.6617 19.8383C35.9116 19.0881 34.8942 18.6667 33.8333 18.6667H31.1666C30.1058 18.6667 29.0883 19.0881 28.3382 19.8383C27.5881 20.5884 27.1666 21.6058 27.1666 22.6667V24H23.1666C22.1058 24 21.0883 24.4214 20.3382 25.1716C19.5881 25.9217 19.1666 26.9392 19.1666 28V41.3334C19.1666 42.3942 19.5881 43.4116 20.3382 44.1618C21.0883 44.9119 22.1058 45.3334 23.1666 45.3334H41.8333C42.8942 45.3334 43.9116 44.9119 44.6617 44.1618C45.4119 43.4116 45.8333 42.3942 45.8333 41.3334V28C45.8333 26.9392 45.4119 25.9217 44.6617 25.1716C43.9116 24.4214 42.8942 24 41.8333 24ZM29.8333 22.6667C29.8333 22.3131 29.9738 21.9739 30.2238 21.7239C30.4739 21.4738 30.813 21.3334 31.1666 21.3334H33.8333C34.1869 21.3334 34.5261 21.4738 34.7761 21.7239C35.0262 21.9739 35.1666 22.3131 35.1666 22.6667V24H29.8333V22.6667ZM21.8333 28C21.8333 27.6464 21.9738 27.3073 22.2238 27.0572C22.4739 26.8072 22.813 26.6667 23.1666 26.6667H24.5C24.5 27.3739 24.219 28.0522 23.7189 28.5523C23.2188 29.0524 22.5405 29.3334 21.8333 29.3334V28ZM23.1666 42.6667C22.813 42.6667 22.4739 42.5262 22.2238 42.2762C21.9738 42.0261 21.8333 41.687 21.8333 41.3334V40C22.5405 40 23.2188 40.281 23.7189 40.7811C24.219 41.2812 24.5 41.9594 24.5 42.6667H23.1666ZM43.1666 41.3334C43.1666 41.687 43.0262 42.0261 42.7761 42.2762C42.5261 42.5262 42.1869 42.6667 41.8333 42.6667H40.5C40.5 41.9594 40.7809 41.2812 41.281 40.7811C41.7811 40.281 42.4594 40 43.1666 40V41.3334ZM43.1666 37.3334C41.7521 37.3334 40.3956 37.8953 39.3954 38.8955C38.3952 39.8956 37.8333 41.2522 37.8333 42.6667H27.1666C27.1666 41.2522 26.6047 39.8956 25.6045 38.8955C24.6043 37.8953 23.2478 37.3334 21.8333 37.3334V32C23.2478 32 24.6043 31.4381 25.6045 30.4379C26.6047 29.4377 27.1666 28.0812 27.1666 26.6667H37.8333C37.8333 28.0812 38.3952 29.4377 39.3954 30.4379C40.3956 31.4381 41.7521 32 43.1666 32V37.3334ZM43.1666 29.3334C42.4594 29.3334 41.7811 29.0524 41.281 28.5523C40.7809 28.0522 40.5 27.3739 40.5 26.6667H41.8333C42.1869 26.6667 42.5261 26.8072 42.7761 27.0572C43.0262 27.3073 43.1666 27.6464 43.1666 28V29.3334Z" fill="white"/>
</svg>
