<svg width="65" height="64" viewBox="0 0 65 64" fill="none" xmlns="http://www.w3.org/2000/svg">
<rect x="0.5" width="64" height="64" rx="8" fill="#006FAC"/>
<path d="M45.8333 25.6527C45.8343 25.4772 45.8007 25.3033 45.7343 25.1408C45.668 24.9784 45.5702 24.8306 45.4466 24.706L39.7933 19.0527C39.6687 18.9291 39.521 18.8314 39.3585 18.765C39.1961 18.6987 39.0221 18.665 38.8466 18.666C38.6712 18.665 38.4972 18.6987 38.3348 18.765C38.1723 18.8314 38.0246 18.9291 37.9 19.0527L34.1266 22.826L19.5533 37.3994C19.4297 37.524 19.332 37.6717 19.2656 37.8342C19.1993 37.9966 19.1656 38.1706 19.1666 38.346V43.9994C19.1666 44.353 19.3071 44.6921 19.5572 44.9422C19.8072 45.1922 20.1464 45.3327 20.5 45.3327H26.1533C26.3399 45.3429 26.5265 45.3137 26.7011 45.2471C26.8756 45.1804 27.0343 45.0779 27.1666 44.946L41.66 30.3727L45.4466 26.666C45.5683 26.5368 45.6675 26.3881 45.74 26.226C45.7528 26.1198 45.7528 26.0123 45.74 25.906C45.7462 25.844 45.7462 25.7814 45.74 25.7194L45.8333 25.6527ZM25.6066 42.666H21.8333V38.8927L35.0733 25.6527L38.8466 29.426L25.6066 42.666ZM40.7266 27.546L36.9533 23.7727L38.8466 21.8927L42.6066 25.6527L40.7266 27.546Z" fill="white"/>
</svg>
