<svg width="64" height="64" viewBox="0 0 64 64" fill="none" xmlns="http://www.w3.org/2000/svg">
<rect width="64" height="64" rx="8" fill="#466BF0"/>
<rect width="64" height="64" rx="8" fill="#006FAC"/>
<path d="M47.0976 26.8148L32.5206 19.9449C32.1388 19.7632 31.7223 19.7632 31.3753 19.9449L16.7983 26.8148C16.3471 27.0693 16 27.5418 16 28.1234C16 28.6686 16.3471 29.1775 16.833 29.4319L18.0824 30.0499V35.1387C18.0824 35.6476 18.4642 36.0474 18.9501 36.0474C19.436 36.0474 19.8178 35.6476 19.8178 35.1387V30.9949L21.9002 32.1581V38.3374C21.9002 38.5918 21.9696 38.8099 22.1085 39.028C22.2473 39.2461 25.4056 44.1895 31.7918 44.1895C38.3514 44.1895 41.3709 39.2098 41.5098 39.028C41.6139 38.8463 41.718 38.5918 41.718 38.3737V32.3398L47.2364 29.3956C47.7223 29.1411 48 28.6323 48 28.087C47.9306 27.5418 47.5835 27.0693 47.0976 26.8148ZM39.2538 37.9376C38.5597 38.8099 36.1996 41.6451 31.7918 41.6451C27.4881 41.6451 25.0239 38.8463 24.3297 37.9376V33.4303L31.3406 37.1742C31.5488 37.2833 31.7571 37.3196 31.9653 37.3196C32.1735 37.3196 32.4165 37.2833 32.6247 37.1742L39.2538 33.6484V37.9376ZM31.9653 34.2663L20.5813 28.2324L31.9653 22.8528L43.3492 28.2324L31.9653 34.2663ZM19.8178 37.2833C20.0607 37.5377 20.2343 37.9376 20.2343 38.301C20.2343 38.6645 20.0954 39.0644 19.8178 39.3188C19.5748 39.5733 19.1931 39.755 18.846 39.755C18.4989 39.755 18.1171 39.6096 17.8742 39.3188C17.6312 39.0644 17.4577 38.6645 17.4577 38.301C17.4577 37.9376 17.5965 37.5377 17.8742 37.2833C18.1171 37.0288 18.4989 36.8471 18.846 36.8471C19.1931 36.8471 19.5401 36.9925 19.8178 37.2833Z" fill="white"/>
</svg>
