<svg width="89" height="88" viewBox="0 0 89 88" fill="none" xmlns="http://www.w3.org/2000/svg">
<path d="M77.7567 61.71L70.1667 53.9367C68.5341 52.3848 66.4747 51.3565 64.2532 50.9841C62.0317 50.6117 59.7495 50.9121 57.7 51.8467L54.4 48.5467C58.2887 43.3507 60.0647 36.8745 59.3704 30.4218C58.676 23.969 55.563 18.0189 50.658 13.7691C45.7529 9.51934 39.42 7.28554 32.9341 7.51737C26.4483 7.74921 20.2911 10.4295 15.7019 15.0186C11.1128 19.6077 8.43256 25.7649 8.20072 32.2508C7.96889 38.7367 10.2027 45.0695 14.4524 49.9746C18.7022 54.8797 24.6524 57.9927 31.1051 58.687C37.5579 59.3813 44.0341 57.6054 49.23 53.7167L52.4934 56.98C51.4487 59.032 51.0743 61.3601 51.423 63.6362C51.7716 65.9122 52.8257 68.0215 54.4367 69.6667L62.21 77.44C64.2725 79.5 67.0684 80.657 69.9834 80.657C72.8984 80.657 75.6942 79.5 77.7567 77.44C78.8044 76.4156 79.6369 75.1921 80.2052 73.8415C80.7736 72.4909 81.0663 71.0404 81.0663 69.575C81.0663 68.1097 80.7736 66.6591 80.2052 65.3085C79.6369 63.9579 78.8044 62.7345 77.7567 61.71ZM46.6634 46.1634C44.0976 48.7227 40.8308 50.4642 37.2758 51.1678C33.7207 51.8714 30.0369 51.5057 26.6896 50.1167C23.3423 48.7277 20.4818 46.3779 18.4693 43.364C16.4569 40.3501 15.3828 36.8074 15.3828 33.1834C15.3828 29.5593 16.4569 26.0166 18.4693 23.0027C20.4818 19.9888 23.3423 17.639 26.6896 16.25C30.0369 14.861 33.7207 14.4953 37.2758 15.1989C40.8308 15.9026 44.0976 17.644 46.6634 20.2034C48.3707 21.9064 49.7253 23.9295 50.6495 26.1568C51.5737 28.3841 52.0495 30.7719 52.0495 33.1834C52.0495 35.5948 51.5737 37.9826 50.6495 40.2099C49.7253 42.4373 48.3707 44.4604 46.6634 46.1634ZM72.5867 72.0867C72.2458 72.4304 71.8403 72.7031 71.3935 72.8893C70.9467 73.0754 70.4674 73.1713 69.9834 73.1713C69.4993 73.1713 69.0201 73.0754 68.5733 72.8893C68.1264 72.7031 67.7209 72.4304 67.38 72.0867L59.6067 64.3134C59.263 63.9725 58.9903 63.567 58.8041 63.1201C58.618 62.6733 58.5221 62.1941 58.5221 61.71C58.5221 61.226 58.618 60.7467 58.8041 60.2999C58.9903 59.8531 59.263 59.4476 59.6067 59.1067C59.9476 58.763 60.3531 58.4902 60.7999 58.3041C61.2467 58.1179 61.726 58.0221 62.21 58.0221C62.6941 58.0221 63.1733 58.1179 63.6202 58.3041C64.067 58.4902 64.4725 58.763 64.8134 59.1067L72.5867 66.88C72.9304 67.2209 73.2032 67.6264 73.3893 68.0732C73.5755 68.5201 73.6713 68.9993 73.6713 69.4834C73.6713 69.9674 73.5755 70.4467 73.3893 70.8935C73.2032 71.3403 72.9304 71.7458 72.5867 72.0867Z" fill="#869096"/>
</svg>
