<svg width="180" height="65" viewBox="0 0 180 65" fill="none" xmlns="http://www.w3.org/2000/svg">
<g clip-path="url(#clip0_481_22454)">
<path d="M144.989 49.4805H53.936V64.9789H144.989V49.4805Z" fill="white"/>
<path d="M48.2529 11.7413C46.8667 5.70685 43.3854 0.803187 42.9215 0C40.7978 3.17713 39.1325 6.63292 37.9741 10.2671C36.5598 15.0658 36.1391 20.0985 36.7372 25.0626C37.1897 28.3219 38.0364 31.5153 39.2589 34.574C40.23 36.8797 41.4585 39.0705 42.9215 41.1052C44.4356 39.1501 47.9223 33.327 49.0099 25.7125C49.623 21.48 49.6497 17.7758 48.2529 11.7413ZM42.9215 39.6309C41.7177 37.3158 41.0786 34.753 41.0556 32.1486C41.0572 29.5678 41.6999 27.0271 42.9269 24.7508C44.0351 26.9468 44.6465 29.3561 44.7182 31.8104C44.8056 34.5268 44.1869 37.2198 42.9215 39.6309ZM47.853 21.982C47.8328 24.0592 47.6096 26.1297 47.1866 28.1644C47.2762 25.2161 47.0222 22.2674 46.4295 19.3769C45.8484 16.6238 44.2064 12.0161 42.8949 9.86546C41.6794 11.8893 40.1919 15.8735 39.4082 19.324C38.839 22.2542 38.5676 25.2334 38.5979 28.2172C38.1194 25.372 37.9247 22.4871 38.0168 19.6041C38.1629 16.9626 38.5864 14.3434 39.2803 11.7889C40.1599 8.80254 41.3722 5.92256 42.8949 3.20218C44.4489 5.86683 45.6784 8.70488 46.5575 11.6568C47.4735 15.0217 47.9096 18.4972 47.853 21.982Z" fill="white"/>
<path d="M45.262 42.5108H34.69V49.5439V49.5122C35.9139 48.4734 37.4882 47.9306 39.0983 47.9922C40.7084 48.0539 42.2357 48.7155 43.3751 49.8447C44.5145 50.974 45.182 52.4879 45.2441 54.0837C45.3063 55.6796 44.7587 57.2399 43.7106 58.453L43.6786 58.4847C43.6786 58.4847 43.6786 58.4847 43.6413 58.5217C42.1549 59.9844 40.3276 61.0614 38.3212 61.6573C36.3147 62.2533 34.191 62.3498 32.138 61.9382C30.0849 61.5267 28.1659 60.6199 26.5508 59.298C24.9356 57.9762 23.6742 56.2801 22.8781 54.3598C22.082 52.4395 21.7757 50.3544 21.9865 48.2888C22.1973 46.2233 22.9186 44.2412 24.0866 42.5178C25.2545 40.7944 26.8331 39.3831 28.6826 38.4085C30.5321 37.434 32.5954 36.9264 34.69 36.9307V20.0215C30.9264 20.0202 27.2216 20.9467 23.9092 22.7177C20.5968 24.4887 17.7809 27.0485 15.7151 30.1667C13.6493 33.2848 12.3985 36.8632 12.0754 40.5798C11.7522 44.2963 12.3668 48.0341 13.8639 51.4565C15.361 54.879 17.6935 57.8786 20.6513 60.1852C23.6092 62.4918 27.0994 64.033 30.8078 64.6698C34.5161 65.3067 38.326 65.0193 41.8944 63.8335C45.4628 62.6477 48.6775 60.6007 51.249 57.877V42.5108H45.262Z" fill="white"/>
<path d="M53.936 20.0268H62.5887V22.8168H58.473V42.5055H53.936V20.0268Z" fill="white"/>
<path d="M67.4829 34.0615L68.2612 22.8168H68.5118L69.2902 34.0615H67.4829ZM62.4661 42.5161H66.9124L67.3336 36.5397H69.4661L69.8873 42.5161H74.3283L71.9558 20.0268H64.8279L62.4661 42.5161Z" fill="white"/>
<path d="M80.2833 34.6374V38.8647C80.2767 38.9604 80.2901 39.0565 80.3229 39.1468C80.3557 39.237 80.4071 39.3196 80.4737 39.3892C80.5404 39.4587 80.6209 39.5138 80.7102 39.5508C80.7995 39.5879 80.8956 39.6062 80.9924 39.6045C81.0885 39.6031 81.1834 39.5828 81.2716 39.5448C81.3597 39.5067 81.4394 39.4517 81.5058 39.3828C81.5723 39.314 81.6243 39.2327 81.6588 39.1438C81.6933 39.0548 81.7096 38.96 81.7068 38.8647V33.644C81.7068 32.9359 81.5788 32.1645 79.8942 32.1645H78.0442V29.6915H79.9581C81.2536 29.6915 81.7068 29.4061 81.7068 28.0217V23.5566C81.7096 23.4614 81.6933 23.3665 81.6588 23.2775C81.6243 23.1886 81.5723 23.1073 81.5058 23.0385C81.4394 22.9697 81.3597 22.9146 81.2716 22.8765C81.1834 22.8385 81.0885 22.8182 80.9924 22.8168C80.8956 22.8151 80.7995 22.8334 80.7102 22.8705C80.6209 22.9076 80.5404 22.9626 80.4737 23.0322C80.4071 23.1017 80.3557 23.1843 80.3229 23.2746C80.2901 23.3648 80.2767 23.4609 80.2833 23.5566V27.2185H75.7464V24.048C75.7464 22.4628 75.9437 20.0321 79.1158 20.0321H82.8743C86.0731 20.0321 86.2437 22.4734 86.2437 24.048V27.6412C86.2437 30.0825 84.5271 30.7589 83.1676 30.6955V30.9174C86.2117 30.854 86.2437 33.1684 86.2437 33.9663V38.4948C86.2437 40.0801 86.0518 42.5108 82.8743 42.5108H79.1158C75.9437 42.5108 75.7464 40.0695 75.7464 38.4948V34.6374H80.2833Z" fill="white"/>
<path d="M88.6268 20.0268H99.1241V42.5055H94.5925V22.8168H93.1637V42.5055H88.6268V20.0268Z" fill="white"/>
<path d="M106.311 32.3917V22.8168H106.897C107.382 22.8168 107.74 23.2343 107.74 23.9371V31.2662C107.74 31.9742 107.382 32.3917 106.897 32.3917H106.311ZM101.779 42.5055H106.311V34.8752H108.902C112.101 34.8752 112.271 32.4339 112.271 30.8593V24.0428C112.271 22.4575 112.079 20.0268 108.902 20.0268H101.779V42.5055Z" fill="white"/>
<path d="M120.439 38.87C120.441 38.9651 120.424 39.0596 120.389 39.1483C120.355 39.2369 120.302 39.3179 120.236 39.3866C120.17 39.4553 120.09 39.5104 120.003 39.5487C119.915 39.587 119.82 39.6077 119.724 39.6098C119.627 39.6122 119.53 39.5945 119.44 39.5578C119.351 39.521 119.269 39.4661 119.202 39.3964C119.135 39.3268 119.083 39.244 119.05 39.1533C119.017 39.0627 119.003 38.9662 119.01 38.87V23.5461C119.003 23.4499 119.017 23.3534 119.05 23.2627C119.083 23.1721 119.135 23.0893 119.202 23.0196C119.269 22.95 119.351 22.895 119.44 22.8583C119.53 22.8216 119.627 22.8038 119.724 22.8063C119.82 22.8083 119.915 22.8291 120.003 22.8674C120.09 22.9057 120.17 22.9608 120.236 23.0295C120.302 23.0982 120.355 23.1791 120.389 23.2678C120.424 23.3564 120.441 23.451 120.439 23.5461V38.87ZM114.478 38.4895C114.478 40.0748 114.67 42.5055 117.848 42.5055H121.606C124.778 42.5055 124.976 40.0642 124.976 38.4895V24.0428C124.976 22.4575 124.778 20.0268 121.606 20.0268H117.848C114.649 20.0268 114.478 22.4681 114.478 24.0428V38.4895Z" fill="white"/>
<path d="M139.104 20.0268H144.968V42.5055H140.484V28.4074H140.319L137.989 42.5055H134.359L132.008 28.4074H131.842V42.5055H127.311V20.0268H133.202L136.155 35.8264L139.104 20.0268Z" fill="white"/>
<path d="M68.3839 60.0699H69.8606V52.5347H72.1211V60.0699H72.6009V63.7688H70.3938V61.8242H66.1287V52.5242H68.3892L68.3839 60.0699Z" fill="#466BF0"/>
<path d="M68.3839 60.0699H69.8606V52.5347H72.1211V60.0699H72.6009V63.7688H70.3938V61.8242H66.1287V52.5242H68.3892L68.3839 60.0699Z" fill="#006FAC"/>
<path d="M102.515 52.5347V61.8242H100.254V54.2944H98.7776V61.8242H96.5172V52.5242L102.515 52.5347Z" fill="#466BF0"/>
<path d="M102.515 52.5347V61.8242H100.254V54.2944H98.7776V61.8242H96.5172V52.5242L102.515 52.5347Z" fill="#006FAC"/>
<path d="M132.765 58.1518V59.0236C132.765 61.1373 131.8 62.0514 129.71 62.0514C127.62 62.0514 126.65 61.1479 126.65 59.0078V54.9549C126.65 53.4912 127.567 52.3128 129.71 52.3128C131.853 52.3128 132.765 53.5017 132.765 54.9549V55.589H130.504V54.7488C130.499 54.6474 130.473 54.5481 130.429 54.4566C130.385 54.365 130.323 54.283 130.246 54.2153C130.17 54.1475 130.081 54.0954 129.984 54.0618C129.888 54.0282 129.785 54.0139 129.683 54.0196C129.586 54.0092 129.487 54.0192 129.394 54.049C129.301 54.0788 129.215 54.1277 129.142 54.1924C129.069 54.2572 129.011 54.3364 128.971 54.425C128.931 54.5136 128.91 54.6095 128.91 54.7065V59.3407C128.91 60.0435 129.214 60.3288 129.683 60.3288C130.152 60.3288 130.504 60.0699 130.504 59.3671V58.1359L132.765 58.1518Z" fill="#466BF0"/>
<path d="M132.765 58.1518V59.0236C132.765 61.1373 131.8 62.0514 129.71 62.0514C127.62 62.0514 126.65 61.1479 126.65 59.0078V54.9549C126.65 53.4912 127.567 52.3128 129.71 52.3128C131.853 52.3128 132.765 53.5017 132.765 54.9549V55.589H130.504V54.7488C130.499 54.6474 130.473 54.5481 130.429 54.4566C130.385 54.365 130.323 54.283 130.246 54.2153C130.17 54.1475 130.081 54.0954 129.984 54.0618C129.888 54.0282 129.785 54.0139 129.683 54.0196C129.586 54.0092 129.487 54.0192 129.394 54.049C129.301 54.0788 129.215 54.1277 129.142 54.1924C129.069 54.2572 129.011 54.3364 128.971 54.425C128.931 54.5136 128.91 54.6095 128.91 54.7065V59.3407C128.91 60.0435 129.214 60.3288 129.683 60.3288C130.152 60.3288 130.504 60.0699 130.504 59.3671V58.1359L132.765 58.1518Z" fill="#006FAC"/>
</g>
<defs>
<clipPath id="clip0_481_22454">
<rect width="133" height="65" fill="white" transform="translate(12)"/>
</clipPath>
</defs>
</svg>
