<svg width="24" height="24" viewBox="0 0 24 24" fill="none" xmlns="http://www.w3.org/2000/svg">
<path opacity="0.4" d="M21.6748 5.95342C21.3 5.57124 20.8217 5.32167 20.3156 5.24425C19.8096 5.16684 19.3047 5.26601 18.881 5.52605L17.3022 6.51479L16.3738 7.09491L5.57607 13.8473L2.33675 12.0836C2.27574 12.0511 2.20905 12.0342 2.14247 12.0342C2.07589 12.0342 2.01144 12.0511 1.9547 12.0836L0.625163 12.8512C0.567787 12.8806 0.519046 12.9246 0.483065 12.9793C0.447085 13.034 0.424924 13.0978 0.418459 13.1654C0.411993 13.2329 0.421413 13.3022 0.445922 13.3674C0.470431 13.4326 0.509306 13.4918 0.559258 13.5399L4.30813 17.1215L4.15483 18.2412C4.14273 18.3201 4.15297 18.4025 4.18434 18.4786C4.21572 18.5547 4.2669 18.6213 4.33178 18.6705C4.39667 18.7196 4.47252 18.7492 4.55029 18.7558C4.62806 18.7624 4.70448 18.7456 4.77041 18.7075L13.4697 13.6849L13.5366 13.8007L12.5557 19.0985C12.5411 19.1777 12.5494 19.2613 12.5795 19.3389C12.6096 19.4166 12.6602 19.485 12.7251 19.5358C12.7901 19.5865 12.8666 19.6175 12.9453 19.6249C13.024 19.6323 13.1015 19.6158 13.1684 19.5774L15.1703 18.4216C15.2355 18.382 15.2884 18.3248 15.3241 18.2556L18.9942 10.4954L22.8147 8.2896C23.0786 8.13817 23.2705 7.88429 23.3521 7.57896C23.4337 7.27364 23.3988 6.93949 23.2544 6.64365C23.1101 6.34781 22.867 6.11221 22.5739 5.98417C22.2809 5.85613 21.9597 5.84514 21.6748 5.95342Z" fill="white"/>
<path d="M11.4177 9.59235L16.3285 6.53101L9.17502 6.60795C9.10978 6.61058 9.04687 6.62809 8.99068 6.65923L7.37078 7.59448C7.30394 7.63484 7.25123 7.69546 7.2191 7.76892C7.18698 7.84238 7.17683 7.92548 7.18991 8.00806C7.20298 8.09064 7.23871 8.1691 7.29272 8.23384C7.34673 8.29858 7.41667 8.34679 7.49399 8.37257L11.4177 9.59235Z" fill="white"/>
</svg>
