<svg width="24" height="24" viewBox="0 0 24 24" fill="none" xmlns="http://www.w3.org/2000/svg">
<path d="M14.2176 9.69756C14.2161 9.7017 14.2159 9.7062 14.2171 9.71045C14.2182 9.71469 14.2207 9.71848 14.224 9.72131C14.8041 10.2258 15.4053 10.6565 16.0278 11.0919C16.0336 11.0959 16.0403 11.0982 16.0473 11.0985C16.0543 11.0989 16.0613 11.0974 16.0674 11.094C16.1828 11.0307 16.2858 10.9513 16.3765 10.8558C16.3802 10.8519 16.3827 10.8471 16.3838 10.8419C16.3848 10.8367 16.3844 10.8313 16.3826 10.8263C15.9904 9.7303 15.636 8.5285 15.6946 7.36233C15.7461 6.33396 16.0512 5.34589 16.9939 4.79645C17.5535 4.47009 18.2486 4.37438 18.8995 4.40568C20.332 4.47369 21.3211 5.19477 21.5982 6.63657C21.767 7.51309 21.6838 8.42236 21.4651 9.27585C21.3523 9.71531 21.2654 10.015 21.2042 10.175C21.1212 10.3921 21.0441 10.6114 20.9728 10.8328C20.969 10.8443 20.9718 10.8538 20.9811 10.8612C21.6061 11.3711 22.2671 11.6974 22.9259 12.0763C23.2235 12.2476 23.3012 12.6693 23.2282 12.982C23.1881 13.1538 23.0661 13.5191 22.8622 14.078C22.5163 15.0258 22.064 15.9194 21.5054 16.759C20.9232 17.6338 20.2266 18.4459 19.4314 19.1331C16.9464 21.2816 13.6994 22.2161 10.4528 21.8793C7.89985 21.6144 5.50776 20.5361 3.65181 18.7661C1.99304 17.184 0.839097 15.1197 0.246114 12.91C0.210851 12.7786 0.222845 12.6209 0.282096 12.4369C0.33463 12.2747 0.435619 12.1513 0.585064 12.0666C1.10009 11.7749 1.56497 11.5021 1.97973 11.248C2.15436 11.141 2.32851 11.0137 2.50219 10.8659C2.51178 10.8577 2.5149 10.8475 2.51154 10.8353C2.49139 10.7669 2.46105 10.6788 2.42051 10.5708C2.1847 9.94236 2.00839 9.29768 1.89157 8.63681C1.79274 8.07933 1.77691 7.50985 1.84407 6.92838C1.97217 5.81654 2.56371 4.8497 3.68815 4.54601C4.2298 4.39969 4.78608 4.36167 5.357 4.43195C7.87934 4.74284 8.08659 7.29648 7.58608 9.24023C7.45175 9.76149 7.29223 10.2875 7.10752 10.8184C7.10386 10.8285 7.10352 10.8396 7.10656 10.85C7.10959 10.8604 7.11585 10.8696 7.12443 10.8763L7.41265 11.0994C7.41702 11.1028 7.42206 11.1052 7.42744 11.1064C7.43283 11.1077 7.43841 11.1077 7.44382 11.1066C7.44922 11.1055 7.45432 11.1032 7.45876 11.0999C7.46319 11.0966 7.46686 11.0924 7.4695 11.0875C7.47814 11.072 7.49361 11.0567 7.51592 11.0418C8.12761 10.6348 8.71484 10.1947 9.2776 9.72167C9.28719 9.71351 9.28959 9.70379 9.28479 9.69252C9.02381 9.05924 8.81391 8.41048 8.65511 7.74625C8.4349 6.82475 8.33271 5.80682 8.50147 4.86805C8.6821 3.86451 9.21931 3.04916 10.1376 2.61774C11.3444 2.05066 13.2403 2.16616 14.1899 3.20245C14.2611 3.28053 14.3345 3.34925 14.3953 3.43597C14.4666 3.53708 14.5464 3.63891 14.6044 3.74254C14.8229 4.13498 14.9643 4.55501 15.0286 5.00263C15.2592 6.60922 14.7476 8.21258 14.2176 9.69756ZM16.6813 10.9371C16.4776 11.1037 16.2905 11.266 16.0692 11.4128C16.0579 11.4203 16.0467 11.4201 16.0354 11.4125C15.3031 10.9202 14.5968 10.4075 13.933 9.80946C13.9236 9.80104 13.917 9.78996 13.9142 9.77772C13.9114 9.76548 13.9124 9.75269 13.9171 9.7411C14.0085 9.51537 14.0951 9.27765 14.1769 9.02793C14.1895 8.98979 14.2151 8.94913 14.228 8.90667C14.2803 8.73708 14.3327 8.56748 14.3852 8.39789C14.5793 7.77204 14.712 7.13372 14.7832 6.48293C14.8239 6.11411 14.8124 5.74278 14.7875 5.37684C14.7015 4.10595 14.1139 3.08802 12.8549 2.69906C12.0504 2.45042 11.0206 2.48964 10.2581 2.84478C9.59892 3.15207 9.16246 3.67669 8.91778 4.35855C8.84773 4.55381 8.79868 4.73276 8.77061 4.8954C8.57631 6.02739 8.7519 7.29684 9.08797 8.4112C9.17829 8.71057 9.27256 9.00886 9.39094 9.29816C9.45403 9.45264 9.5188 9.60772 9.58525 9.76341C9.5898 9.77468 9.58764 9.78439 9.57877 9.79255C8.91202 10.3837 8.1931 10.9159 7.45151 11.4099C7.44072 11.4171 7.4298 11.4174 7.41877 11.4107C7.1946 11.2764 6.99778 11.1102 6.80455 10.9332C6.7952 10.9248 6.79268 10.9146 6.797 10.9026C6.84881 10.7627 6.89943 10.6228 6.94884 10.4827C7.19112 9.79711 7.36791 9.09498 7.47922 8.3763C7.60156 7.58721 7.5609 6.733 7.22986 5.99285C6.87976 5.2106 6.08563 4.75363 5.23466 4.67951C4.74351 4.63633 4.18075 4.6626 3.71334 4.8202C2.98938 5.06463 2.50662 5.56047 2.26506 6.30769C1.76419 7.85708 2.31148 9.44748 2.83862 10.8983C2.84085 10.9043 2.84118 10.9109 2.83957 10.9171C2.83796 10.9234 2.83449 10.929 2.82962 10.9332C2.20821 11.4661 1.46662 11.8532 0.749862 12.276C0.45373 12.4513 0.464525 12.7755 0.551241 13.063C1.3925 15.8638 3.13115 18.4149 5.63838 19.9755C6.64611 20.6027 7.71118 21.0517 8.83358 21.3223C11.3509 21.9296 14.0898 21.7508 16.4837 20.703C19.6976 19.2968 21.8871 16.4445 22.9108 13.149C22.9878 12.9007 23.0627 12.5117 22.813 12.3325C22.7045 12.255 22.6356 12.2079 22.6061 12.1911C22.0879 11.8946 21.6666 11.6679 21.2769 11.397C21.0595 11.2462 20.8505 11.1181 20.6565 10.9361C20.6521 10.9319 20.6491 10.9265 20.6476 10.9206C20.6462 10.9148 20.6466 10.9086 20.6486 10.903C20.7964 10.5014 20.9337 10.1073 21.0606 9.72059C21.1861 9.3375 21.2847 8.89972 21.3564 8.40724C21.5709 6.93126 21.26 5.14044 19.5289 4.75327C18.8229 4.59495 17.9597 4.6223 17.2973 4.94038C16.3315 5.40418 15.9562 6.46853 15.967 7.47675C15.9674 7.51669 15.9573 7.55375 15.958 7.58505C15.9864 8.74475 16.2829 9.83753 16.6895 10.9058C16.6943 10.9183 16.6916 10.9287 16.6813 10.9371Z" fill="#EEF9FF"/>
<path d="M9.21248 20.2784C8.27143 20.0777 7.3828 19.7397 6.54658 19.2645C6.5377 19.2594 6.53326 19.2519 6.53326 19.2418V13.3789C6.53326 13.3662 6.53866 13.3565 6.54946 13.3497C6.89896 13.1295 7.25039 12.9055 7.60373 12.6776C8.76379 11.9288 9.83353 11.1397 10.8457 10.2085C10.9382 10.1236 10.8648 9.85589 10.8198 9.75082C10.488 8.97361 10.2157 8.23202 10.0368 7.40336C9.8953 6.74872 9.84109 6.08665 9.87419 5.41715C9.90982 4.69499 10.2099 4.00413 10.9619 3.79904C11.0265 3.78153 11.0912 3.76593 11.1562 3.75226C11.6382 3.65031 12.1021 3.66446 12.548 3.79472C12.7529 3.85445 12.9349 3.95556 13.0942 4.09805C13.5616 4.5158 13.6376 5.13217 13.6408 5.72264C13.6433 6.25661 13.5904 6.76503 13.4684 7.29793C13.3495 7.81655 13.1985 8.32617 13.0154 8.8268C12.9135 9.10554 12.8103 9.38392 12.706 9.66195C12.6554 9.79652 12.6248 9.91658 12.6142 10.0221C12.6038 10.124 12.6509 10.202 12.7261 10.2787C13.3364 10.8997 14.0089 11.4384 14.7314 11.9231C15.1658 12.2143 15.6052 12.4979 16.0494 12.774C16.3445 12.9572 16.6251 13.154 16.9324 13.33C16.9455 13.3374 16.9564 13.3482 16.964 13.3613C16.9716 13.3744 16.9756 13.3893 16.9756 13.4044V19.2342C16.9756 19.2416 16.9736 19.2489 16.9698 19.2553C16.966 19.2617 16.9606 19.267 16.954 19.2706C16.3366 19.6138 15.6979 19.8783 15.038 20.064C14.896 20.1038 14.7536 20.1427 14.6109 20.1806C14.3169 20.2583 14.0319 20.3051 13.7351 20.3504C12.6107 20.5219 11.5047 20.5607 10.4168 20.4666C10.0558 20.4354 9.65434 20.3727 9.21248 20.2784Z" fill="#F5FCFF"/>
<path d="M5.69415 12.4891C5.37858 12.6776 5.35843 12.9093 5.35843 13.2526C5.35771 14.7967 5.35819 16.3407 5.35987 17.8846C5.35987 18.027 5.36107 18.1675 5.36347 18.3059C5.36355 18.3083 5.36294 18.3106 5.36171 18.3126C5.36048 18.3147 5.35869 18.3163 5.35656 18.3173C5.35442 18.3183 5.35204 18.3187 5.34969 18.3184C5.34734 18.3181 5.34513 18.3172 5.34332 18.3156C4.5546 17.6821 3.87406 16.9479 3.3017 16.1132C2.96419 15.6209 2.66842 15.1046 2.41439 14.5641C2.29972 14.3199 2.19046 14.0732 2.08659 13.824C1.98848 13.5882 1.88869 13.3369 1.78722 13.0702C1.78516 13.0648 1.78508 13.0589 1.78699 13.0534C1.78889 13.048 1.79267 13.0433 1.79765 13.0403C2.41691 12.6679 3.05918 12.289 3.61115 11.8166C3.82848 11.6306 3.9856 11.4579 4.08251 11.2984C4.15304 11.1828 4.15448 11.0481 4.08683 10.8943C3.62338 9.83934 3.26896 8.69331 3.25816 7.54009C3.25493 7.2051 3.29918 6.78915 3.43951 6.50093C3.77127 5.81943 4.65894 5.71904 5.33325 5.87196C6.09103 6.0436 6.33391 6.61751 6.36305 7.33283C6.37888 7.7188 6.3555 8.10237 6.29289 8.48354C6.19885 9.05301 6.07232 9.54525 5.91328 9.96024C5.7907 10.28 5.66464 10.5984 5.53511 10.9156C5.46746 11.0806 5.48653 11.233 5.59232 11.3729C5.79777 11.6456 6.08959 11.8705 6.3555 12.0803C6.35683 12.0814 6.35789 12.0827 6.35857 12.0843C6.35924 12.0859 6.35952 12.0876 6.35938 12.0893C6.35924 12.091 6.35868 12.0927 6.35775 12.0941C6.35682 12.0955 6.35555 12.0967 6.35406 12.0976C6.13409 12.2271 5.91412 12.3576 5.69415 12.4891Z" fill="#EEF9FF"/>
<path d="M21.0459 14.6724C20.391 16.0477 19.3788 17.3603 18.1695 18.3055C18.157 18.3154 18.1508 18.3124 18.1508 18.2965C18.1505 16.5996 18.1504 14.9031 18.1504 13.2069C18.1504 12.9068 18.1105 12.679 17.8406 12.5121C17.6156 12.3727 17.3871 12.2362 17.1551 12.1026C17.1527 12.1011 17.1506 12.0991 17.1491 12.0966C17.1476 12.0942 17.1467 12.0914 17.1465 12.0885C17.1463 12.0856 17.1469 12.0827 17.148 12.0801C17.1492 12.0775 17.1511 12.0752 17.1533 12.0734C17.42 11.8676 17.697 11.6453 17.9061 11.3772C18.0446 11.1994 18.0227 11.0526 17.9374 10.8396C17.8419 10.5997 17.748 10.3596 17.6556 10.1193C17.2793 9.13839 17.0727 8.13881 17.1551 7.08993C17.1599 7.02996 17.1791 6.93509 17.2127 6.80531C17.4146 6.02558 18.0417 5.79674 18.7794 5.81005C19.4238 5.82157 19.9894 6.09755 20.1532 6.76753C20.1859 6.90139 20.2201 7.02624 20.2291 7.1637C20.3165 8.50546 19.9038 9.74864 19.3932 10.9573C19.3539 11.0504 19.3601 11.1589 19.4119 11.2829C19.4335 11.3345 19.5158 11.438 19.6588 11.5934C19.8593 11.8115 20.1466 12.0459 20.5205 12.2965C20.763 12.4592 21.1584 12.7071 21.7065 13.0403C21.7171 13.0468 21.7203 13.0559 21.7162 13.0676C21.5183 13.6148 21.2949 14.1497 21.0459 14.6724Z" fill="#EEF9FF"/>
</svg>
