<svg width="48" height="48" viewBox="0 0 48 48" fill="none" xmlns="http://www.w3.org/2000/svg">
<rect width="48" height="48" rx="8" fill="#466BF0"/>
<rect width="48" height="48" rx="8" fill="#006FAC"/>
<path d="M24 16.4667C23.2381 16.0761 22.373 15.9342 21.5263 16.061C20.6796 16.1878 19.894 16.5768 19.28 17.1734C18.5309 17.9234 18.1101 18.9401 18.1101 20.0001C18.1101 21.0601 18.5309 22.0767 19.28 22.8267L23.0533 26.6667C23.1772 26.7917 23.3247 26.8909 23.4872 26.9586C23.6497 27.0263 23.8239 27.0611 24 27.0611C24.176 27.0611 24.3503 27.0263 24.5127 26.9586C24.6752 26.8909 24.8227 26.7917 24.9466 26.6667L28.72 22.8934C29.469 22.1434 29.8898 21.1268 29.8898 20.0667C29.8898 19.0067 29.469 17.9901 28.72 17.2401C28.1136 16.6326 27.3317 16.2311 26.4847 16.0923C25.6377 15.9535 24.7685 16.0845 24 16.4667ZM26.8266 20.9467L24 23.7734L21.1733 20.9467C21.0483 20.8228 20.9491 20.6753 20.8814 20.5129C20.8137 20.3504 20.7789 20.1761 20.7789 20.0001C20.7789 19.8241 20.8137 19.6498 20.8814 19.4873C20.9491 19.3248 21.0483 19.1774 21.1733 19.0534C21.4231 18.8051 21.761 18.6657 22.1133 18.6657C22.4655 18.6657 22.8035 18.8051 23.0533 19.0534C23.1772 19.1784 23.3247 19.2776 23.4872 19.3453C23.6497 19.413 23.8239 19.4478 24 19.4478C24.176 19.4478 24.3503 19.413 24.5127 19.3453C24.6752 19.2776 24.8227 19.1784 24.9466 19.0534C25.1964 18.8051 25.5344 18.6657 25.8866 18.6657C26.2389 18.6657 26.5768 18.8051 26.8266 19.0534C26.9516 19.1774 27.0508 19.3248 27.1185 19.4873C27.1862 19.6498 27.221 19.8241 27.221 20.0001C27.221 20.1761 27.1862 20.3504 27.1185 20.5129C27.0508 20.6753 26.9516 20.8228 26.8266 20.9467ZM33.3333 10.6667H14.6666C13.6058 10.6667 12.5883 11.0882 11.8382 11.8383C11.0881 12.5885 10.6666 13.6059 10.6666 14.6667V28.0001C10.6666 29.0609 11.0881 30.0784 11.8382 30.8285C12.5883 31.5787 13.6058 32.0001 14.6666 32.0001H30.12L35.0533 36.9467C35.1779 37.0703 35.3256 37.1681 35.4881 37.2344C35.6505 37.3008 35.8245 37.3344 36 37.3334C36.1749 37.3379 36.3484 37.3014 36.5066 37.2267C36.7501 37.1267 36.9586 36.9569 37.1057 36.7386C37.2528 36.5203 37.332 36.2633 37.3333 36.0001V14.6667C37.3333 13.6059 36.9119 12.5885 36.1617 11.8383C35.4116 11.0882 34.3942 10.6667 33.3333 10.6667ZM34.6666 32.7867L31.6133 29.7201C31.4887 29.5965 31.341 29.4987 31.1785 29.4324C31.0161 29.366 30.8421 29.3324 30.6666 29.3334H14.6666C14.313 29.3334 13.9739 29.1929 13.7238 28.9429C13.4738 28.6928 13.3333 28.3537 13.3333 28.0001V14.6667C13.3333 14.3131 13.4738 13.974 13.7238 13.7239C13.9739 13.4739 14.313 13.3334 14.6666 13.3334H33.3333C33.6869 13.3334 34.0261 13.4739 34.2761 13.7239C34.5262 13.974 34.6666 14.3131 34.6666 14.6667V32.7867Z" fill="white"/>
</svg>
