<svg width="48" height="48" viewBox="0 0 48 48" fill="none" xmlns="http://www.w3.org/2000/svg">
<rect width="48" height="48" rx="8" fill="#466BF0"/>
<rect width="48" height="48" rx="8" fill="#006FAC"/>
<path d="M24 26.6667C23.6464 26.6667 23.3073 26.8072 23.0572 27.0573C22.8072 27.3073 22.6667 27.6465 22.6667 28.0001V30.6667C22.6667 31.0204 22.8072 31.3595 23.0572 31.6096C23.3073 31.8596 23.6464 32.0001 24 32.0001C24.3537 32.0001 24.6928 31.8596 24.9428 31.6096C25.1929 31.3595 25.3334 31.0204 25.3334 30.6667V28.0001C25.3334 27.6465 25.1929 27.3073 24.9428 27.0573C24.6928 26.8072 24.3537 26.6667 24 26.6667ZM24.5067 22.7734C24.2653 22.6615 23.996 22.6244 23.7334 22.6667L23.4934 22.7467L23.2534 22.8667L23.0534 23.0267C22.9266 23.1545 22.8269 23.3066 22.7605 23.4739C22.694 23.6411 22.6621 23.8201 22.6667 24.0001C22.6657 24.1756 22.6993 24.3495 22.7657 24.512C22.832 24.6744 22.9298 24.8222 23.0534 24.9467C23.1802 25.0681 23.3297 25.1633 23.4934 25.2267C23.6516 25.3014 23.8251 25.3379 24 25.3334C24.1755 25.3344 24.3495 25.3008 24.5119 25.2344C24.6744 25.1681 24.8221 25.0703 24.9467 24.9467C25.0703 24.8222 25.168 24.6744 25.2344 24.512C25.3008 24.3495 25.3344 24.1756 25.3334 24.0001C25.3344 23.8246 25.3008 23.6507 25.2344 23.4882C25.168 23.3258 25.0703 23.178 24.9467 23.0534C24.8171 22.9356 24.6683 22.8409 24.5067 22.7734ZM34.6667 19.9201C34.6528 19.7976 34.626 19.6769 34.5867 19.5601V19.4401C34.5226 19.303 34.4371 19.177 34.3334 19.0667L26.3334 11.0667C26.2232 10.963 26.0971 10.8775 25.96 10.8134H25.8267C25.6971 10.7441 25.5577 10.6946 25.4134 10.6667H17.3334C16.2725 10.6667 15.2551 11.0882 14.5049 11.8383C13.7548 12.5885 13.3334 13.6059 13.3334 14.6667V33.3334C13.3334 34.3943 13.7548 35.4117 14.5049 36.1618C15.2551 36.912 16.2725 37.3334 17.3334 37.3334H30.6667C31.7276 37.3334 32.745 36.912 33.4951 36.1618C34.2453 35.4117 34.6667 34.3943 34.6667 33.3334V20.0001C34.6667 20.0001 34.6667 20.0001 34.6667 19.9201ZM26.6667 15.2134L30.12 18.6667H28C27.6464 18.6667 27.3073 18.5263 27.0572 18.2762C26.8072 18.0262 26.6667 17.687 26.6667 17.3334V15.2134ZM32 33.3334C32 33.687 31.8596 34.0262 31.6095 34.2762C31.3595 34.5263 31.0203 34.6667 30.6667 34.6667H17.3334C16.9798 34.6667 16.6406 34.5263 16.3906 34.2762C16.1405 34.0262 16 33.687 16 33.3334V14.6667C16 14.3131 16.1405 13.974 16.3906 13.7239C16.6406 13.4739 16.9798 13.3334 17.3334 13.3334H24V17.3334C24 18.3943 24.4215 19.4117 25.1716 20.1618C25.9218 20.912 26.9392 21.3334 28 21.3334H32V33.3334Z" fill="white"/>
</svg>
