<svg width="24" height="24" viewBox="0 0 24 24" fill="none" xmlns="http://www.w3.org/2000/svg">
<path fill-rule="evenodd" clip-rule="evenodd" d="M4.97703 19.3089C2.34099 16.6728 2.34099 12.399 4.97703 9.76294L10.6339 4.10609C12.4889 2.2511 15.4964 2.2511 17.3514 4.10609C19.2064 5.96108 19.2064 8.96861 17.3514 10.8236L11.5935 16.5815C10.5196 17.6554 8.77838 17.6554 7.70444 16.5815C6.6305 15.5075 6.6305 13.7663 7.70444 12.6924L13.2603 7.13654C13.5532 6.84365 14.028 6.84365 14.3209 7.13654C14.6138 7.42944 14.6138 7.90431 14.3209 8.1972L8.7651 13.753C8.27695 14.2412 8.27695 15.0327 8.7651 15.5208C9.25326 16.009 10.0447 16.009 10.5329 15.5208L16.2907 9.76294C17.5599 8.49374 17.5599 6.43595 16.2907 5.16675C15.0215 3.89754 12.9637 3.89754 11.6945 5.16675L6.03769 10.8236C3.98744 12.8739 3.98744 16.198 6.03769 18.2482C8.08794 20.2985 11.4121 20.2985 13.4623 18.2482L18.9171 12.7934C19.21 12.5005 19.6849 12.5005 19.9778 12.7934C20.2707 13.0863 20.2707 13.5612 19.9778 13.8541L14.523 19.3089C11.8869 21.9449 7.61307 21.9449 4.97703 19.3089Z" fill="#99C5DE"/>
</svg>
