<svg width="24" height="24" viewBox="0 0 24 24" fill="none" xmlns="http://www.w3.org/2000/svg">
<g opacity="0.4">
<path d="M9.51026 4.22867L18.0703 8.50867C21.9103 10.4287 21.9103 13.5687 18.0703 15.4887L9.51026 19.7687C3.75026 22.6487 1.40026 20.2887 4.28026 14.5387L5.15026 12.8087C5.40026 12.2987 5.40026 11.7087 5.15026 11.1987L4.28026 9.45867C1.40026 3.70867 3.76026 1.34867 9.51026 4.22867Z" fill="#466BF0"/>
<path d="M9.51026 4.22867L18.0703 8.50867C21.9103 10.4287 21.9103 13.5687 18.0703 15.4887L9.51026 19.7687C3.75026 22.6487 1.40026 20.2887 4.28026 14.5387L5.15026 12.8087C5.40026 12.2987 5.40026 11.7087 5.15026 11.1987L4.28026 9.45867C1.40026 3.70867 3.76026 1.34867 9.51026 4.22867Z" fill="#006FAC"/>
</g>
<path d="M14.8404 12.75H9.44043C9.03043 12.75 8.69043 12.41 8.69043 12C8.69043 11.59 9.03043 11.25 9.44043 11.25H14.8404C15.2504 11.25 15.5904 11.59 15.5904 12C15.5904 12.41 15.2504 12.75 14.8404 12.75Z" fill="#466BF0"/>
<path d="M14.8404 12.75H9.44043C9.03043 12.75 8.69043 12.41 8.69043 12C8.69043 11.59 9.03043 11.25 9.44043 11.25H14.8404C15.2504 11.25 15.5904 11.59 15.5904 12C15.5904 12.41 15.2504 12.75 14.8404 12.75Z" fill="#006FAC"/>
</svg>
