<svg width="65" height="64" viewBox="0 0 65 64" fill="none" xmlns="http://www.w3.org/2000/svg">
<rect x="0.5" width="64" height="64" rx="8" fill="#466BF0"/>
<rect x="0.5" width="64" height="64" rx="8" fill="#006FAC"/>
<path d="M32.5 35.9998C31.7088 35.9998 30.9355 36.2344 30.2777 36.6739C29.6199 37.1134 29.1072 37.7381 28.8045 38.4691C28.5017 39.2 28.4225 40.0042 28.5768 40.7801C28.7312 41.5561 29.1121 42.2688 29.6715 42.8282C30.231 43.3876 30.9437 43.7686 31.7196 43.9229C32.4955 44.0773 33.2998 43.9981 34.0307 43.6953C34.7616 43.3926 35.3863 42.8799 35.8258 42.2221C36.2654 41.5643 36.5 40.7909 36.5 39.9998C36.5 38.9389 36.0785 37.9215 35.3284 37.1714C34.5783 36.4212 33.5608 35.9998 32.5 35.9998ZM32.5 41.3331C32.2363 41.3331 31.9785 41.2549 31.7592 41.1084C31.5399 40.9619 31.369 40.7537 31.2681 40.51C31.1672 40.2664 31.1408 39.9983 31.1923 39.7397C31.2437 39.481 31.3707 39.2434 31.5572 39.057C31.7436 38.8705 31.9812 38.7435 32.2399 38.6921C32.4985 38.6406 32.7666 38.667 33.0102 38.7679C33.2539 38.8689 33.4621 39.0398 33.6086 39.259C33.7551 39.4783 33.8333 39.7361 33.8333 39.9998C33.8333 40.3534 33.6928 40.6925 33.4428 40.9426C33.1927 41.1926 32.8536 41.3331 32.5 41.3331ZM32.5 30.6665C30.0263 30.675 27.6554 31.6569 25.9 33.3998C25.6516 33.6496 25.5122 33.9875 25.5122 34.3398C25.5122 34.692 25.6516 35.03 25.9 35.2798C26.1498 35.5281 26.4877 35.6675 26.84 35.6675C27.1922 35.6675 27.5302 35.5281 27.78 35.2798C28.3992 34.6589 29.1349 34.1664 29.9449 33.8303C30.7548 33.4942 31.6231 33.3212 32.5 33.3212C33.3769 33.3212 34.2452 33.4942 35.0551 33.8303C35.865 34.1664 36.6007 34.6589 37.22 35.2798C37.4661 35.531 37.8016 35.6748 38.1533 35.6798C38.4238 35.6954 38.6927 35.6281 38.924 35.4871C39.1554 35.346 39.3383 35.1378 39.4483 34.8902C39.5584 34.6426 39.5904 34.3673 39.5401 34.101C39.4897 33.8348 39.3595 33.5902 39.1666 33.3998C38.2893 32.5287 37.2491 31.839 36.1052 31.37C34.9613 30.901 33.7362 30.662 32.5 30.6665ZM32.5 25.3331C28.612 25.3435 24.8847 26.8861 22.1266 29.6265C22.0023 29.7508 21.9037 29.8984 21.8364 30.0608C21.7691 30.2232 21.7345 30.3973 21.7345 30.5731C21.7345 30.9282 21.8756 31.2687 22.1266 31.5198C22.3777 31.7709 22.7182 31.9119 23.0733 31.9119C23.4284 31.9119 23.7689 31.7709 24.02 31.5198C26.27 29.2726 29.32 28.0103 32.5 28.0103C35.68 28.0103 38.73 29.2726 40.98 31.5198C41.1046 31.6434 41.2523 31.7411 41.4148 31.8075C41.5772 31.8738 41.7512 31.9075 41.9266 31.9065C42.1021 31.9075 42.2761 31.8738 42.4385 31.8075C42.601 31.7411 42.7487 31.6434 42.8733 31.5198C42.9983 31.3958 43.0975 31.2484 43.1652 31.0859C43.2329 30.9234 43.2677 30.7491 43.2677 30.5731C43.2677 30.3971 43.2329 30.2228 43.1652 30.0604C43.0975 29.8979 42.9983 29.7504 42.8733 29.6265C40.1152 26.8861 36.388 25.3435 32.5 25.3331ZM46.6466 25.8531C44.7893 23.9946 42.5839 22.5203 40.1566 21.5144C37.7293 20.5085 35.1275 19.9907 32.5 19.9907C29.8725 19.9907 27.2707 20.5085 24.8433 21.5144C22.416 22.5203 20.2106 23.9946 18.3533 25.8531C18.1022 26.1042 17.9612 26.4447 17.9612 26.7998C17.9612 27.1549 18.1022 27.4954 18.3533 27.7465C18.6044 27.9975 18.9449 28.1386 19.3 28.1386C19.655 28.1386 19.9956 27.9975 20.2466 27.7465C23.497 24.4978 27.9044 22.6728 32.5 22.6728C37.0955 22.6728 41.5029 24.4978 44.7533 27.7465C44.8773 27.8714 45.0247 27.9706 45.1872 28.0383C45.3497 28.106 45.524 28.1409 45.7 28.1409C45.876 28.1409 46.0503 28.106 46.2127 28.0383C46.3752 27.9706 46.5227 27.8714 46.6466 27.7465C46.7716 27.6225 46.8708 27.475 46.9385 27.3126C47.0062 27.1501 47.041 26.9758 47.041 26.7998C47.041 26.6238 47.0062 26.4495 46.9385 26.287C46.8708 26.1245 46.7716 25.9771 46.6466 25.8531Z" fill="white"/>
</svg>
