<svg width="64" height="64" viewBox="0 0 64 64" fill="none" xmlns="http://www.w3.org/2000/svg">
<rect width="64" height="64" rx="8" fill="#466BF0"/>
<rect width="64" height="64" rx="8" fill="#006FAC"/>
<path d="M36.0001 38.6665C35.7364 38.6665 35.4786 38.7447 35.2593 38.8912C35.0401 39.0377 34.8692 39.246 34.7682 39.4896C34.6673 39.7332 34.6409 40.0013 34.6924 40.26C34.7438 40.5186 34.8708 40.7562 35.0573 40.9426C35.2437 41.1291 35.4813 41.2561 35.74 41.3076C35.9986 41.359 36.2667 41.3326 36.5103 41.2317C36.754 41.1308 36.9622 40.9599 37.1087 40.7406C37.2552 40.5213 37.3334 40.2635 37.3334 39.9998C37.3334 39.6462 37.1929 39.3071 36.9429 39.057C36.6928 38.807 36.3537 38.6665 36.0001 38.6665ZM28.0001 38.6665H24.0001C23.6465 38.6665 23.3073 38.807 23.0573 39.057C22.8072 39.3071 22.6667 39.6462 22.6667 39.9998C22.6667 40.3535 22.8072 40.6926 23.0573 40.9426C23.3073 41.1927 23.6465 41.3332 24.0001 41.3332H28.0001C28.3537 41.3332 28.6928 41.1927 28.9429 40.9426C29.1929 40.6926 29.3334 40.3535 29.3334 39.9998C29.3334 39.6462 29.1929 39.3071 28.9429 39.057C28.6928 38.807 28.3537 38.6665 28.0001 38.6665ZM40.0001 38.6665C39.7364 38.6665 39.4786 38.7447 39.2593 38.8912C39.0401 39.0377 38.8692 39.246 38.7682 39.4896C38.6673 39.7332 38.6409 40.0013 38.6924 40.26C38.7438 40.5186 38.8708 40.7562 39.0573 40.9426C39.2437 41.1291 39.4813 41.2561 39.74 41.3076C39.9986 41.359 40.2667 41.3326 40.5103 41.2317C40.754 41.1308 40.9622 40.9599 41.1087 40.7406C41.2552 40.5213 41.3334 40.2635 41.3334 39.9998C41.3334 39.6462 41.1929 39.3071 40.9429 39.057C40.6928 38.807 40.3537 38.6665 40.0001 38.6665ZM36.0001 30.6665C35.7364 30.6665 35.4786 30.7447 35.2593 30.8912C35.0401 31.0377 34.8692 31.246 34.7682 31.4896C34.6673 31.7332 34.6409 32.0013 34.6924 32.26C34.7438 32.5186 34.8708 32.7562 35.0573 32.9426C35.2437 33.1291 35.4813 33.2561 35.74 33.3076C35.9986 33.359 36.2667 33.3326 36.5103 33.2317C36.754 33.1308 36.9622 32.9599 37.1087 32.7406C37.2552 32.5213 37.3334 32.2635 37.3334 31.9998C37.3334 31.6462 37.1929 31.3071 36.9429 31.057C36.6928 30.807 36.3537 30.6665 36.0001 30.6665ZM28.0001 30.6665H24.0001C23.6465 30.6665 23.3073 30.807 23.0573 31.057C22.8072 31.3071 22.6667 31.6462 22.6667 31.9998C22.6667 32.3535 22.8072 32.6926 23.0573 32.9426C23.3073 33.1927 23.6465 33.3332 24.0001 33.3332H28.0001C28.3537 33.3332 28.6928 33.1927 28.9429 32.9426C29.1929 32.6926 29.3334 32.3535 29.3334 31.9998C29.3334 31.6462 29.1929 31.3071 28.9429 31.057C28.6928 30.807 28.3537 30.6665 28.0001 30.6665ZM40.0001 22.6665C39.7364 22.6665 39.4786 22.7447 39.2593 22.8912C39.0401 23.0377 38.8692 23.246 38.7682 23.4896C38.6673 23.7332 38.6409 24.0013 38.6924 24.26C38.7438 24.5186 38.8708 24.7562 39.0573 24.9426C39.2437 25.1291 39.4813 25.2561 39.74 25.3076C39.9986 25.359 40.2667 25.3326 40.5103 25.2317C40.754 25.1308 40.9622 24.9599 41.1087 24.7406C41.2552 24.5213 41.3334 24.2635 41.3334 23.9998C41.3334 23.6462 41.1929 23.3071 40.9429 23.057C40.6928 22.807 40.3537 22.6665 40.0001 22.6665ZM40.0001 30.6665C39.7364 30.6665 39.4786 30.7447 39.2593 30.8912C39.0401 31.0377 38.8692 31.246 38.7682 31.4896C38.6673 31.7332 38.6409 32.0013 38.6924 32.26C38.7438 32.5186 38.8708 32.7562 39.0573 32.9426C39.2437 33.1291 39.4813 33.2561 39.74 33.3076C39.9986 33.359 40.2667 33.3326 40.5103 33.2317C40.754 33.1308 40.9622 32.9599 41.1087 32.7406C41.2552 32.5213 41.3334 32.2635 41.3334 31.9998C41.3334 31.6462 41.1929 31.3071 40.9429 31.057C40.6928 30.807 40.3537 30.6665 40.0001 30.6665ZM45.3334 22.6665C45.3334 21.6056 44.912 20.5882 44.1618 19.8381C43.4117 19.0879 42.3943 18.6665 41.3334 18.6665H22.6667C21.6059 18.6665 20.5885 19.0879 19.8383 19.8381C19.0882 20.5882 18.6667 21.6056 18.6667 22.6665V25.3332C18.6726 26.3199 19.043 27.2697 19.7067 27.9998C19.043 28.73 18.6726 29.6798 18.6667 30.6665V33.3332C18.6726 34.3199 19.043 35.2697 19.7067 35.9998C19.043 36.73 18.6726 37.6798 18.6667 38.6665V41.3332C18.6667 42.394 19.0882 43.4115 19.8383 44.1616C20.5885 44.9117 21.6059 45.3332 22.6667 45.3332H41.3334C42.3943 45.3332 43.4117 44.9117 44.1618 44.1616C44.912 43.4115 45.3334 42.394 45.3334 41.3332V38.6665C45.3275 37.6798 44.9571 36.73 44.2934 35.9998C44.9571 35.2697 45.3275 34.3199 45.3334 33.3332V30.6665C45.3275 29.6798 44.9571 28.73 44.2934 27.9998C44.9571 27.2697 45.3275 26.3199 45.3334 25.3332V22.6665ZM42.6667 41.3332C42.6667 41.6868 42.5263 42.0259 42.2762 42.276C42.0262 42.526 41.687 42.6665 41.3334 42.6665H22.6667C22.3131 42.6665 21.974 42.526 21.7239 42.276C21.4739 42.0259 21.3334 41.6868 21.3334 41.3332V38.6665C21.3334 38.3129 21.4739 37.9737 21.7239 37.7237C21.974 37.4736 22.3131 37.3332 22.6667 37.3332H41.3334C41.687 37.3332 42.0262 37.4736 42.2762 37.7237C42.5263 37.9737 42.6667 38.3129 42.6667 38.6665V41.3332ZM42.6667 33.3332C42.6667 33.6868 42.5263 34.0259 42.2762 34.276C42.0262 34.526 41.687 34.6665 41.3334 34.6665H22.6667C22.3131 34.6665 21.974 34.526 21.7239 34.276C21.4739 34.0259 21.3334 33.6868 21.3334 33.3332V30.6665C21.3334 30.3129 21.4739 29.9737 21.7239 29.7237C21.974 29.4736 22.3131 29.3332 22.6667 29.3332H41.3334C41.687 29.3332 42.0262 29.4736 42.2762 29.7237C42.5263 29.9737 42.6667 30.3129 42.6667 30.6665V33.3332ZM42.6667 25.3332C42.6667 25.6868 42.5263 26.0259 42.2762 26.276C42.0262 26.526 41.687 26.6665 41.3334 26.6665H22.6667C22.3131 26.6665 21.974 26.526 21.7239 26.276C21.4739 26.0259 21.3334 25.6868 21.3334 25.3332V22.6665C21.3334 22.3129 21.4739 21.9737 21.7239 21.7237C21.974 21.4736 22.3131 21.3332 22.6667 21.3332H41.3334C41.687 21.3332 42.0262 21.4736 42.2762 21.7237C42.5263 21.9737 42.6667 22.3129 42.6667 22.6665V25.3332ZM36.0001 22.6665C35.7364 22.6665 35.4786 22.7447 35.2593 22.8912C35.0401 23.0377 34.8692 23.246 34.7682 23.4896C34.6673 23.7332 34.6409 24.0013 34.6924 24.26C34.7438 24.5186 34.8708 24.7562 35.0573 24.9426C35.2437 25.1291 35.4813 25.2561 35.74 25.3076C35.9986 25.359 36.2667 25.3326 36.5103 25.2317C36.754 25.1308 36.9622 24.9599 37.1087 24.7406C37.2552 24.5213 37.3334 24.2635 37.3334 23.9998C37.3334 23.6462 37.1929 23.3071 36.9429 23.057C36.6928 22.807 36.3537 22.6665 36.0001 22.6665ZM28.0001 22.6665H24.0001C23.6465 22.6665 23.3073 22.807 23.0573 23.057C22.8072 23.3071 22.6667 23.6462 22.6667 23.9998C22.6667 24.3535 22.8072 24.6926 23.0573 24.9426C23.3073 25.1927 23.6465 25.3332 24.0001 25.3332H28.0001C28.3537 25.3332 28.6928 25.1927 28.9429 24.9426C29.1929 24.6926 29.3334 24.3535 29.3334 23.9998C29.3334 23.6462 29.1929 23.3071 28.9429 23.057C28.6928 22.807 28.3537 22.6665 28.0001 22.6665Z" fill="white"/>
</svg>
