<svg width="65" height="64" viewBox="0 0 65 64" fill="none" xmlns="http://www.w3.org/2000/svg">
<rect x="0.5" width="64" height="64" rx="8" fill="#466BF0"/>
<rect x="0.5" width="64" height="64" rx="8" fill="#006FAC"/>
<path d="M20.5 25.3346H44.5C44.8536 25.3346 45.1928 25.1942 45.4428 24.9441C45.6929 24.6941 45.8334 24.3549 45.8334 24.0013C45.8334 23.6477 45.6929 23.3085 45.4428 23.0585C45.1928 22.8084 44.8536 22.668 44.5 22.668H20.5C20.1464 22.668 19.8073 22.8084 19.5572 23.0585C19.3072 23.3085 19.1667 23.6477 19.1667 24.0013C19.1667 24.3549 19.3072 24.6941 19.5572 24.9441C19.8073 25.1942 20.1464 25.3346 20.5 25.3346ZM20.5 30.668H39.1667C39.5203 30.668 39.8594 30.5275 40.1095 30.2774C40.3595 30.0274 40.5 29.6883 40.5 29.3346C40.5 28.981 40.3595 28.6419 40.1095 28.3918C39.8594 28.1418 39.5203 28.0013 39.1667 28.0013H20.5C20.1464 28.0013 19.8073 28.1418 19.5572 28.3918C19.3072 28.6419 19.1667 28.981 19.1667 29.3346C19.1667 29.6883 19.3072 30.0274 19.5572 30.2774C19.8073 30.5275 20.1464 30.668 20.5 30.668ZM44.5 33.3346H20.5C20.1464 33.3346 19.8073 33.4751 19.5572 33.7252C19.3072 33.9752 19.1667 34.3143 19.1667 34.668C19.1667 35.0216 19.3072 35.3607 19.5572 35.6108C19.8073 35.8608 20.1464 36.0013 20.5 36.0013H44.5C44.8536 36.0013 45.1928 35.8608 45.4428 35.6108C45.6929 35.3607 45.8334 35.0216 45.8334 34.668C45.8334 34.3143 45.6929 33.9752 45.4428 33.7252C45.1928 33.4751 44.8536 33.3346 44.5 33.3346ZM39.1667 38.668H20.5C20.1464 38.668 19.8073 38.8084 19.5572 39.0585C19.3072 39.3085 19.1667 39.6477 19.1667 40.0013C19.1667 40.3549 19.3072 40.6941 19.5572 40.9441C19.8073 41.1942 20.1464 41.3346 20.5 41.3346H39.1667C39.5203 41.3346 39.8594 41.1942 40.1095 40.9441C40.3595 40.6941 40.5 40.3549 40.5 40.0013C40.5 39.6477 40.3595 39.3085 40.1095 39.0585C39.8594 38.8084 39.5203 38.668 39.1667 38.668Z" fill="white"/>
</svg>
