<svg width="64" height="64" viewBox="0 0 64 64" fill="none" xmlns="http://www.w3.org/2000/svg">
<rect width="64" height="64" rx="8" fill="#466BF0"/>
<rect width="64" height="64" rx="8" fill="#006FAC"/>
<path d="M41.3333 24.6654H37.3333V23.332C37.3333 22.2712 36.9119 21.2537 36.1618 20.5036C35.4116 19.7535 34.3942 19.332 33.3333 19.332H30.6667C29.6058 19.332 28.5884 19.7535 27.8382 20.5036C27.0881 21.2537 26.6667 22.2712 26.6667 23.332V24.6654H22.6667C21.6058 24.6654 20.5884 25.0868 19.8382 25.8369C19.0881 26.5871 18.6667 27.6045 18.6667 28.6654V40.6654C18.6667 41.7262 19.0881 42.7436 19.8382 43.4938C20.5884 44.2439 21.6058 44.6654 22.6667 44.6654H41.3333C42.3942 44.6654 43.4116 44.2439 44.1618 43.4938C44.9119 42.7436 45.3333 41.7262 45.3333 40.6654V28.6654C45.3333 27.6045 44.9119 26.5871 44.1618 25.8369C43.4116 25.0868 42.3942 24.6654 41.3333 24.6654ZM29.3333 23.332C29.3333 22.9784 29.4738 22.6393 29.7239 22.3892C29.9739 22.1392 30.3131 21.9987 30.6667 21.9987H33.3333C33.687 21.9987 34.0261 22.1392 34.2761 22.3892C34.5262 22.6393 34.6667 22.9784 34.6667 23.332V24.6654H29.3333V23.332ZM42.6667 40.6654C42.6667 41.019 42.5262 41.3581 42.2761 41.6082C42.0261 41.8582 41.687 41.9987 41.3333 41.9987H22.6667C22.313 41.9987 21.9739 41.8582 21.7239 41.6082C21.4738 41.3581 21.3333 41.019 21.3333 40.6654V33.332C22.6339 33.8479 23.9709 34.2668 25.3333 34.5854V35.372C25.3333 35.7257 25.4738 36.0648 25.7239 36.3148C25.9739 36.5649 26.313 36.7054 26.6667 36.7054C27.0203 36.7054 27.3594 36.5649 27.6095 36.3148C27.8595 36.0648 28 35.7257 28 35.372V35.092C29.3258 35.2725 30.662 35.3661 32 35.372C33.338 35.3661 34.6742 35.2725 36 35.092V35.372C36 35.7257 36.1405 36.0648 36.3905 36.3148C36.6406 36.5649 36.9797 36.7054 37.3333 36.7054C37.687 36.7054 38.0261 36.5649 38.2761 36.3148C38.5262 36.0648 38.6667 35.7257 38.6667 35.372V34.5854C40.0291 34.2668 41.3661 33.8479 42.6667 33.332V40.6654ZM42.6667 30.412C41.3699 30.9594 40.0325 31.4051 38.6667 31.7454V31.332C38.6667 30.9784 38.5262 30.6393 38.2761 30.3892C38.0261 30.1392 37.687 29.9987 37.3333 29.9987C36.9797 29.9987 36.6406 30.1392 36.3905 30.3892C36.1405 30.6393 36 30.9784 36 31.332V32.3187C33.3483 32.7187 30.6517 32.7187 28 32.3187V31.332C28 30.9784 27.8595 30.6393 27.6095 30.3892C27.3594 30.1392 27.0203 29.9987 26.6667 29.9987C26.313 29.9987 25.9739 30.1392 25.7239 30.3892C25.4738 30.6393 25.3333 30.9784 25.3333 31.332V31.772C23.9675 31.4318 22.6301 30.986 21.3333 30.4387V28.6654C21.3333 28.3117 21.4738 27.9726 21.7239 27.7226C21.9739 27.4725 22.313 27.332 22.6667 27.332H41.3333C41.687 27.332 42.0261 27.4725 42.2761 27.7226C42.5262 27.9726 42.6667 28.3117 42.6667 28.6654V30.412Z" fill="white"/>
</svg>
