<svg width="65" height="64" viewBox="0 0 65 64" fill="none" xmlns="http://www.w3.org/2000/svg">
<rect x="0.5" width="64" height="64" rx="8" fill="#466BF0"/>
<rect x="0.5" width="64" height="64" rx="8" fill="#006FAC"/>
<path d="M47.1667 28.4275C47.2502 28.085 47.2026 27.7235 47.0333 27.4142C46.6012 26.6644 46.0253 26.0073 45.3386 25.4806C44.6519 24.9539 43.868 24.568 43.0318 24.345C42.1956 24.122 41.3236 24.0664 40.4658 24.1812C39.6081 24.296 38.7814 24.5791 38.0333 25.0142L35.1667 26.6675L28.5 23.5342C28.3105 23.436 28.1001 23.3848 27.8867 23.3848C27.6732 23.3848 27.4629 23.436 27.2733 23.5342L23.2733 25.8409C23.0757 25.9549 22.9105 26.1178 22.7938 26.3139C22.6771 26.51 22.6127 26.7327 22.6067 26.9609C22.6002 27.1907 22.6533 27.4183 22.7608 27.6215C22.8682 27.8248 23.0264 27.9968 23.22 28.1209L27.62 30.8942L25.3 32.2275L18.9267 33.0009C18.6705 33.0326 18.429 33.138 18.2315 33.3042C18.034 33.4705 17.8891 33.6906 17.8143 33.9376C17.7394 34.1847 17.7379 34.4482 17.81 34.6961C17.882 34.944 18.0244 35.1657 18.22 35.3342L22.94 39.4142C23.5614 40.0073 24.3572 40.3845 25.2097 40.4902C26.0621 40.5958 26.926 40.4243 27.6733 40.0009L46.5 29.2409C46.6605 29.1576 46.8023 29.0425 46.9169 28.9027C47.0315 28.7629 47.1165 28.6012 47.1667 28.4275ZM26.46 37.7609C26.2039 37.9018 25.9085 37.9547 25.6194 37.9113C25.3303 37.8679 25.0635 37.7307 24.86 37.5209L22.3267 35.3475L25.9667 34.9075C26.1455 34.8846 26.3179 34.8257 26.4733 34.7342L30.9533 32.1609C31.1529 32.0457 31.3192 31.8807 31.4361 31.6821C31.5529 31.4835 31.6163 31.258 31.62 31.0275C31.6227 30.7987 31.5665 30.573 31.4568 30.3722C31.347 30.1713 31.1874 30.0022 30.9933 29.8809L26.5933 27.0942L28.06 26.2542L34.7267 29.3475C34.9162 29.4457 35.1265 29.497 35.34 29.497C35.5535 29.497 35.7638 29.4457 35.9533 29.3475L39.3667 27.3742C40.0661 26.9822 40.8673 26.8095 41.6661 26.8784C42.465 26.9474 43.2247 27.2548 43.8467 27.7609L26.46 37.7609Z" fill="white"/>
</svg>
