<svg width="64" height="64" viewBox="0 0 64 64" fill="none" xmlns="http://www.w3.org/2000/svg">
<rect width="64" height="64" rx="8" fill="#466BF0"/>
<rect width="64" height="64" rx="8" fill="#006FAC"/>
<path d="M33.2267 38.1594C33.1975 38.0744 33.1571 37.9937 33.1067 37.9193C33.0574 37.8495 33.004 37.7827 32.9467 37.7194C32.7592 37.5343 32.5211 37.409 32.2624 37.3592C32.0038 37.3093 31.7362 37.3372 31.4933 37.4394C31.3297 37.5028 31.1801 37.598 31.0533 37.7194C30.996 37.7827 30.9426 37.8495 30.8933 37.9193C30.8429 37.9937 30.8025 38.0744 30.7733 38.1594C30.7349 38.2349 30.7079 38.3158 30.6933 38.3993C30.6874 38.4881 30.6874 38.5772 30.6933 38.666C30.6888 38.8409 30.7254 39.0144 30.8 39.1727C30.8675 39.3343 30.9622 39.4831 31.08 39.6127C31.3251 39.8558 31.6549 39.9944 32 39.9993C32.1749 40.0039 32.3484 39.9673 32.5067 39.8927C32.6721 39.8328 32.8224 39.7373 32.9468 39.6128C33.0713 39.4884 33.1668 39.3381 33.2267 39.1727C33.3013 39.0144 33.3378 38.8409 33.3333 38.666C33.3393 38.5772 33.3393 38.4881 33.3333 38.3993C33.3104 38.3143 33.2744 38.2334 33.2267 38.1594ZM42.6667 27.9193C42.6528 27.7969 42.626 27.6762 42.5867 27.5593V27.4393C42.5226 27.3023 42.4371 27.1762 42.3333 27.066L34.3333 19.066C34.2231 18.9623 34.0971 18.8768 33.96 18.8127H33.84C33.7046 18.735 33.555 18.6851 33.4 18.666H25.3333C24.2725 18.666 23.2551 19.0874 22.5049 19.8376C21.7548 20.5877 21.3333 21.6051 21.3333 22.666V41.3327C21.3333 42.3935 21.7548 43.411 22.5049 44.1611C23.2551 44.9113 24.2725 45.3327 25.3333 45.3327H38.6667C39.7275 45.3327 40.745 44.9113 41.4951 44.1611C42.2452 43.411 42.6667 42.3935 42.6667 41.3327V27.9993C42.6667 27.9993 42.6667 27.9993 42.6667 27.9193ZM34.6667 23.2127L38.12 26.666H36C35.6464 26.666 35.3072 26.5255 35.0572 26.2755C34.8072 26.0254 34.6667 25.6863 34.6667 25.3327V23.2127ZM40 41.3327C40 41.6863 39.8595 42.0254 39.6095 42.2755C39.3594 42.5255 39.0203 42.666 38.6667 42.666H25.3333C24.9797 42.666 24.6406 42.5255 24.3905 42.2755C24.1405 42.0254 24 41.6863 24 41.3327V22.666C24 22.3124 24.1405 21.9733 24.3905 21.7232C24.6406 21.4732 24.9797 21.3327 25.3333 21.3327H32V25.3327C32 26.3935 32.4214 27.411 33.1716 28.1611C33.9217 28.9113 34.9391 29.3327 36 29.3327H40V41.3327ZM32 30.666C31.6464 30.666 31.3072 30.8065 31.0572 31.0565C30.8072 31.3066 30.6667 31.6457 30.6667 31.9993V34.666C30.6667 35.0196 30.8072 35.3588 31.0572 35.6088C31.3072 35.8589 31.6464 35.9993 32 35.9993C32.3536 35.9993 32.6928 35.8589 32.9428 35.6088C33.1929 35.3588 33.3333 35.0196 33.3333 34.666V31.9993C33.3333 31.6457 33.1929 31.3066 32.9428 31.0565C32.6928 30.8065 32.3536 30.666 32 30.666Z" fill="white"/>
</svg>
