<svg width="521" height="407" viewBox="0 0 521 407" fill="none" xmlns="http://www.w3.org/2000/svg">
<g opacity="0.2">
<path d="M221.666 100.226L221.363 43.2384L270.867 15.0074L321.953 44.5017L322.381 101.561L272.752 129.72L221.666 100.226Z" fill="#0078C0" fill-opacity="0.3" stroke="#0078C0"/>
<path d="M273.108 186.689L272.805 129.702L322.309 101.471L373.394 130.965L373.823 188.025L324.194 216.184L273.108 186.689Z" fill="#0078C0" fill-opacity="0.3" stroke="#0078C0"/>
<path d="M223.907 271.908L223.604 214.921L273.108 186.69L324.193 216.184L324.622 273.244L274.992 301.402L223.907 271.908Z" fill="#0078C0" fill-opacity="0.3" stroke="#0078C0"/>
<path d="M123.264 270.663L122.961 213.676L172.465 185.445L223.55 214.939L223.979 271.999L174.35 300.157L123.264 270.663Z" fill="#0078C0" fill-opacity="0.1" stroke="#0078C0"/>
<path d="M74.0629 355.882L73.7597 298.895L123.264 270.664L174.349 300.158L174.778 357.217L125.149 385.376L74.0629 355.882Z" stroke="#0078C0"/>
<path d="M174.706 357.127L174.402 300.14L223.906 271.909L274.992 301.403L275.42 358.463L225.791 386.622L174.706 357.127Z" fill="#0078C0" fill-opacity="0.2" stroke="#0078C0"/>
<path d="M125.504 442.346L125.201 385.359L174.705 357.128L225.791 386.622L226.219 443.681L176.59 471.84L125.504 442.346Z" stroke="#0078C0"/>
<path d="M226.186 443.528L225.883 386.54L275.387 358.309L326.472 387.804L326.9 444.863L277.271 473.022L226.186 443.528Z" fill="#0078C0" fill-opacity="0.2" stroke="#0078C0"/>
<path d="M373.747 187.944L373.443 130.957L422.947 102.726L474.033 132.22L474.461 189.28L424.832 217.439L373.747 187.944Z" fill="#0078C0" fill-opacity="0.3" stroke="#0078C0"/>
<path d="M324.546 273.163L324.243 216.176L373.747 187.945L424.832 217.439L425.261 274.498L375.631 302.657L324.546 273.163Z" fill="#0078C0" fill-opacity="0.1" stroke="#0078C0"/>
<path d="M425.188 274.408L424.885 217.421L474.389 189.19L525.475 218.684L525.903 275.744L476.274 303.903L425.188 274.408Z" fill="#0078C0" fill-opacity="0.3" stroke="#0078C0"/>
<path d="M375.988 359.626L375.684 302.639L425.188 274.408L476.274 303.902L476.702 360.962L427.073 389.121L375.988 359.626Z" fill="#0078C0" fill-opacity="0.3" stroke="#0078C0"/>
<path d="M275.345 358.382L275.041 301.395L324.545 273.163L375.631 302.658L376.059 359.717L326.43 387.876L275.345 358.382Z" fill="#0078C0" fill-opacity="0.3" stroke="#0078C0"/>
<path d="M222.208 157.302L221.905 100.315L271.409 72.0841L322.495 101.578L322.923 158.638L273.294 186.797L222.208 157.302Z" stroke="#0078C0"/>
<path d="M173.007 242.521L172.704 185.534L222.208 157.303L273.294 186.797L273.722 243.857L224.093 272.016L173.007 242.521Z" stroke="#0078C0"/>
<path d="M273.649 243.767L273.346 186.779L322.85 158.548L373.936 188.043L374.364 245.102L324.735 273.261L273.649 243.767Z" stroke="#0078C0"/>
<path d="M224.448 328.985L224.145 271.998L273.649 243.767L324.735 273.261L325.163 330.321L275.534 358.48L224.448 328.985Z" stroke="#0078C0"/>
<path d="M123.806 327.74L123.503 270.753L173.007 242.522L224.092 272.016L224.521 329.076L174.892 357.235L123.806 327.74Z" stroke="#0078C0"/>
<path d="M74.6048 412.959L74.3016 355.972L123.806 327.741L174.891 357.235L175.32 414.295L125.69 442.454L74.6048 412.959Z" stroke="#0078C0"/>
<path d="M175.248 414.204L174.944 357.217L224.448 328.986L275.534 358.48L275.962 415.539L226.333 443.698L175.248 414.204Z" stroke="#0078C0"/>
<path d="M126.046 499.423L125.743 442.435L175.247 414.204L226.333 443.699L226.761 500.758L177.132 528.917L126.046 499.423Z" stroke="#0078C0"/>
<path d="M374.288 245.021L373.985 188.034L423.489 159.803L474.575 189.297L475.003 246.357L425.374 274.516L374.288 245.021Z" stroke="#0078C0"/>
<path d="M325.088 330.239L324.784 273.252L374.289 245.021L425.374 274.515L425.802 331.575L376.173 359.734L325.088 330.239Z" stroke="#0078C0"/>
<path d="M325.088 330.239L324.784 273.252L374.289 245.021L425.374 274.515L425.802 331.575L376.173 359.734L325.088 330.239Z" stroke="#0078C0"/>
<path d="M425.73 331.486L425.427 274.498L474.931 246.267L526.016 275.762L526.445 332.821L476.816 360.98L425.73 331.486Z" stroke="#0078C0"/>
<path d="M376.529 416.704L376.226 359.717L425.73 331.485L476.816 360.98L477.244 418.039L427.615 446.198L376.529 416.704Z" stroke="#0078C0"/>
<path d="M275.886 415.459L275.583 358.472L325.087 330.241L376.173 359.735L376.601 416.794L326.972 444.953L275.886 415.459Z" stroke="#0078C0"/>
<path d="M226.685 500.678L226.382 443.691L275.886 415.46L326.971 444.954L327.4 502.013L277.771 530.172L226.685 500.678Z" stroke="#0078C0"/>
<path d="M327.328 501.923L327.025 444.935L376.529 416.704L427.615 446.199L428.043 503.258L378.414 531.417L327.328 501.923Z" stroke="#0078C0"/>
</g>
</svg>
