<svg width="64" height="64" viewBox="0 0 64 64" fill="none" xmlns="http://www.w3.org/2000/svg">
<rect width="64" height="64" rx="8" fill="#466BF0"/>
<rect width="64" height="64" rx="8" fill="#006FAC"/>
<path d="M46.6667 45.3376C46.6667 45.6912 46.5262 46.0304 46.2762 46.2804C46.0261 46.5305 45.687 46.6709 45.3334 46.6709H18.6667C18.3131 46.6709 17.9739 46.5305 17.7239 46.2804C17.4738 46.0304 17.3334 45.6912 17.3334 45.3376V18.6709C17.3334 18.3173 17.4738 17.9782 17.7239 17.7281C17.9739 17.4781 18.3131 17.3376 18.6667 17.3376C19.0203 17.3376 19.3595 17.4781 19.6095 17.7281C19.8596 17.9782 20 18.3173 20 18.6709V40.9376L28.2267 28.6043C28.3487 28.4228 28.5134 28.2741 28.7064 28.1712C28.8994 28.0684 29.1147 28.0146 29.3334 28.0146C29.552 28.0146 29.7674 28.0684 29.9604 28.1712C30.1533 28.2741 30.3181 28.4228 30.44 28.6043L34.5734 34.8043L44.1734 18.0043C44.3502 17.6966 44.642 17.4718 44.9845 17.3793C45.3271 17.2868 45.6924 17.3341 46 17.5109C46.3077 17.6877 46.5325 17.9795 46.625 18.3221C46.7175 18.6647 46.6702 19.03 46.4934 19.3376L35.8267 38.0043C35.7092 38.2077 35.5401 38.3766 35.3364 38.4936C35.1327 38.6107 34.9017 38.6719 34.6667 38.6709C34.4404 38.6765 34.2163 38.6244 34.0157 38.5194C33.8151 38.4144 33.6445 38.2601 33.52 38.0709L29.3334 31.7376L21.16 44.0043H45.3334C45.687 44.0043 46.0261 44.1447 46.2762 44.3948C46.5262 44.6448 46.6667 44.984 46.6667 45.3376Z" fill="white"/>
</svg>
