<svg width="64" height="64" viewBox="0 0 64 64" fill="none" xmlns="http://www.w3.org/2000/svg">
<rect width="64" height="64" rx="8" fill="#466BF0"/>
<rect width="64" height="64" rx="8" fill="#006FAC"/>
<path d="M44.9467 43.053L42.6667 40.7463C42.6667 40.5997 42.6667 40.4663 42.6667 40.333C42.6667 39.8515 42.5718 39.3747 42.3875 38.9298C42.2033 38.485 41.9332 38.0808 41.5927 37.7403C41.2522 37.3998 40.848 37.1297 40.4032 36.9454C39.9583 36.7612 39.4815 36.6663 39 36.6663H38.5467L36.6267 34.7463C36.7439 34.6931 36.8712 34.6658 37 34.6663H41.3333C41.6869 34.6663 42.0261 34.5259 42.2761 34.2758C42.5262 34.0258 42.6667 33.6866 42.6667 33.333C42.6667 32.9794 42.5262 32.6402 42.2761 32.3902C42.0261 32.1402 41.6869 31.9997 41.3333 31.9997H39.3333V30.6663C39.3333 30.3127 39.1928 29.9736 38.9428 29.7235C38.6928 29.4735 38.3536 29.333 38 29.333C37.6464 29.333 37.3072 29.4735 37.0572 29.7235C36.8071 29.9736 36.6667 30.3127 36.6667 30.6663V31.9997C35.9501 32.0632 35.2683 32.3369 34.7067 32.7863L32.9467 31.013C32.6956 30.7619 32.3551 30.6209 32 30.6209C31.6449 30.6209 31.3044 30.7619 31.0533 31.013C30.8023 31.2641 30.6612 31.6046 30.6612 31.9597C30.6612 32.3147 30.8023 32.6553 31.0533 32.9063L33.3333 35.253C33.3333 35.3997 33.3333 35.533 33.3333 35.6663C33.3333 36.6388 33.7196 37.5714 34.4073 38.2591C35.0949 38.9467 36.0275 39.333 37 39.333H37.4533L39.3733 41.253C39.2561 41.3063 39.1287 41.3336 39 41.333H34.6667C34.313 41.333 33.9739 41.4735 33.7238 41.7235C33.4738 41.9736 33.3333 42.3127 33.3333 42.6663C33.3333 43.02 33.4738 43.3591 33.7238 43.6091C33.9739 43.8592 34.313 43.9997 34.6667 43.9997H36.6667V45.333C36.6667 45.6866 36.8071 46.0258 37.0572 46.2758C37.3072 46.5259 37.6464 46.6663 38 46.6663C38.3536 46.6663 38.6928 46.5259 38.9428 46.2758C39.1928 46.0258 39.3333 45.6866 39.3333 45.333V43.9997C40.0682 43.9324 40.7654 43.6442 41.3333 43.173L43.0933 44.9463C43.2173 45.0713 43.3647 45.1705 43.5272 45.2382C43.6897 45.3059 43.864 45.3407 44.04 45.3407C44.216 45.3407 44.3903 45.3059 44.5528 45.2382C44.7152 45.1705 44.8627 45.0713 44.9867 44.9463C45.109 44.8198 45.2052 44.6702 45.2694 44.5063C45.3337 44.3424 45.3649 44.1674 45.3612 43.9913C45.3575 43.8153 45.3189 43.6418 45.2478 43.4807C45.1766 43.3197 45.0743 43.1743 44.9467 43.053ZM29.3333 41.333H22.6667C22.313 41.333 21.9739 41.1925 21.7238 40.9425C21.4738 40.6924 21.3333 40.3533 21.3333 39.9997V21.333C21.3333 20.9794 21.4738 20.6402 21.7238 20.3902C21.9739 20.1402 22.313 19.9997 22.6667 19.9997H30.6667V25.333C30.6667 25.6866 30.8071 26.0258 31.0572 26.2758C31.3072 26.5259 31.6464 26.6663 32 26.6663H38.6667C38.9299 26.665 39.1868 26.5858 39.4051 26.4387C39.6234 26.2916 39.7933 26.0832 39.8933 25.8397C39.9954 25.5969 40.0233 25.3292 39.9735 25.0706C39.9237 24.8119 39.7983 24.5738 39.6133 24.3863L32.9467 17.7197C32.8364 17.616 32.7104 17.5304 32.5733 17.4663H32.4533C32.3343 17.4079 32.2091 17.3631 32.08 17.333H22.6667C21.6058 17.333 20.5884 17.7544 19.8382 18.5046C19.0881 19.2547 18.6667 20.2721 18.6667 21.333V39.9997C18.6667 41.0605 19.0881 42.078 19.8382 42.8281C20.5884 43.5782 21.6058 43.9997 22.6667 43.9997H29.3333C29.6869 43.9997 30.0261 43.8592 30.2761 43.6091C30.5262 43.3591 30.6667 43.02 30.6667 42.6663C30.6667 42.3127 30.5262 41.9736 30.2761 41.7235C30.0261 41.4735 29.6869 41.333 29.3333 41.333ZM33.3333 21.8797L35.4533 23.9997H33.3333V21.8797Z" fill="white"/>
</svg>
