<svg width="64" height="64" viewBox="0 0 64 64" fill="none" xmlns="http://www.w3.org/2000/svg">
<rect width="64" height="64" rx="8" fill="#466BF0"/>
<rect width="64" height="64" rx="8" fill="#006FAC"/>
<path d="M41.3334 25.3333H37.3334V24C37.3334 22.9391 36.9119 21.9217 36.1618 21.1716C35.4116 20.4214 34.3942 20 33.3334 20H30.6667C29.6058 20 28.5884 20.4214 27.8383 21.1716C27.0881 21.9217 26.6667 22.9391 26.6667 24V25.3333H22.6667C21.6058 25.3333 20.5884 25.7548 19.8383 26.5049C19.0881 27.2551 18.6667 28.2725 18.6667 29.3333V40C18.6667 41.0609 19.0881 42.0783 19.8383 42.8284C20.5884 43.5786 21.6058 44 22.6667 44H41.3334C42.3942 44 43.4116 43.5786 44.1618 42.8284C44.9119 42.0783 45.3334 41.0609 45.3334 40V29.3333C45.3334 28.2725 44.9119 27.2551 44.1618 26.5049C43.4116 25.7548 42.3942 25.3333 41.3334 25.3333ZM29.3334 24C29.3334 23.6464 29.4738 23.3072 29.7239 23.0572C29.9739 22.8071 30.3131 22.6667 30.6667 22.6667H33.3334C33.687 22.6667 34.0261 22.8071 34.2762 23.0572C34.5262 23.3072 34.6667 23.6464 34.6667 24V25.3333H29.3334V24ZM21.3334 29.3333C21.3334 28.9797 21.4738 28.6406 21.7239 28.3905C21.9739 28.1405 22.3131 28 22.6667 28H24C24 28.7072 23.7191 29.3855 23.219 29.8856C22.7189 30.3857 22.0406 30.6667 21.3334 30.6667V29.3333ZM22.6667 41.3333C22.3131 41.3333 21.9739 41.1929 21.7239 40.9428C21.4738 40.6928 21.3334 40.3536 21.3334 40V38.6667C22.0406 38.6667 22.7189 38.9476 23.219 39.4477C23.7191 39.9478 24 40.6261 24 41.3333H22.6667ZM42.6667 40C42.6667 40.3536 42.5262 40.6928 42.2762 40.9428C42.0261 41.1929 41.687 41.3333 41.3334 41.3333H40C40 40.6261 40.281 39.9478 40.7811 39.4477C41.2812 38.9476 41.9594 38.6667 42.6667 38.6667V40ZM42.6667 36C41.2522 36 39.8956 36.5619 38.8955 37.5621C37.8953 38.5623 37.3334 39.9188 37.3334 41.3333H26.6667C26.6667 39.9188 26.1048 38.5623 25.1046 37.5621C24.1044 36.5619 22.7478 36 21.3334 36V33.3333C22.7478 33.3333 24.1044 32.7714 25.1046 31.7712C26.1048 30.771 26.6667 29.4145 26.6667 28H37.3334C37.3334 29.4145 37.8953 30.771 38.8955 31.7712C39.8956 32.7714 41.2522 33.3333 42.6667 33.3333V36ZM42.6667 30.6667C41.9594 30.6667 41.2812 30.3857 40.7811 29.8856C40.281 29.3855 40 28.7072 40 28H41.3334C41.687 28 42.0261 28.1405 42.2762 28.3905C42.5262 28.6406 42.6667 28.9797 42.6667 29.3333V30.6667ZM32 30.6667C31.2089 30.6667 30.4355 30.9013 29.7777 31.3408C29.1199 31.7803 28.6073 32.405 28.3045 33.1359C28.0018 33.8668 27.9225 34.6711 28.0769 35.447C28.2312 36.223 28.6122 36.9357 29.1716 37.4951C29.731 38.0545 30.4437 38.4355 31.2197 38.5898C31.9956 38.7442 32.7999 38.6649 33.5308 38.3622C34.2617 38.0594 34.8864 37.5467 35.3259 36.8889C35.7654 36.2312 36 35.4578 36 34.6667C36 33.6058 35.5786 32.5884 34.8284 31.8382C34.0783 31.0881 33.0609 30.6667 32 30.6667ZM32 36C31.7363 36 31.4785 35.9218 31.2593 35.7753C31.04 35.6288 30.8691 35.4205 30.7682 35.1769C30.6673 34.9333 30.6409 34.6652 30.6923 34.4065C30.7438 34.1479 30.8707 33.9103 31.0572 33.7239C31.2437 33.5374 31.4813 33.4104 31.7399 33.359C31.9985 33.3075 32.2666 33.3339 32.5103 33.4348C32.7539 33.5357 32.9621 33.7066 33.1086 33.9259C33.2552 34.1452 33.3334 34.403 33.3334 34.6667C33.3334 35.0203 33.1929 35.3594 32.9428 35.6095C32.6928 35.8595 32.3536 36 32 36Z" fill="white"/>
</svg>
