<svg width="64" height="64" viewBox="0 0 64 64" fill="none" xmlns="http://www.w3.org/2000/svg">
<rect width="64" height="64" rx="8" fill="#466BF0"/>
<rect width="64" height="64" rx="8" fill="#006FAC"/>
<path d="M32.0001 24.4667C31.2383 24.0761 30.3731 23.9342 29.5264 24.0609C28.6797 24.1877 27.8941 24.5768 27.2801 25.1734C26.531 25.9234 26.1103 26.94 26.1103 28C26.1103 29.06 26.531 30.0767 27.2801 30.8267L31.0534 34.6667C31.1774 34.7917 31.3248 34.8909 31.4873 34.9585C31.6498 35.0262 31.8241 35.0611 32.0001 35.0611C32.1761 35.0611 32.3504 35.0262 32.5129 34.9585C32.6753 34.8909 32.8228 34.7917 32.9467 34.6667L36.7201 30.8934C37.4692 30.1434 37.8899 29.1267 37.8899 28.0667C37.8899 27.0067 37.4692 25.99 36.7201 25.24C36.1137 24.6325 35.3318 24.231 34.4848 24.0923C33.6378 23.9535 32.7686 24.0845 32.0001 24.4667ZM34.8267 28.9467L32.0001 31.7734L29.1734 28.9467C29.0484 28.8227 28.9493 28.6753 28.8816 28.5128C28.8139 28.3503 28.779 28.176 28.779 28C28.779 27.824 28.8139 27.6497 28.8816 27.4873C28.9493 27.3248 29.0484 27.1773 29.1734 27.0534C29.4232 26.805 29.7612 26.6656 30.1134 26.6656C30.4657 26.6656 30.8036 26.805 31.0534 27.0534C31.1774 27.1783 31.3248 27.2775 31.4873 27.3452C31.6498 27.4129 31.8241 27.4478 32.0001 27.4478C32.1761 27.4478 32.3504 27.4129 32.5129 27.3452C32.6753 27.2775 32.8228 27.1783 32.9467 27.0534C33.1966 26.805 33.5345 26.6656 33.8867 26.6656C34.239 26.6656 34.5769 26.805 34.8267 27.0534C34.9517 27.1773 35.0509 27.3248 35.1186 27.4873C35.1863 27.6497 35.2211 27.824 35.2211 28C35.2211 28.176 35.1863 28.3503 35.1186 28.5128C35.0509 28.6753 34.9517 28.8227 34.8267 28.9467ZM41.3334 18.6667H22.6667C21.6059 18.6667 20.5885 19.0881 19.8383 19.8383C19.0882 20.5884 18.6667 21.6058 18.6667 22.6667V36C18.6667 37.0609 19.0882 38.0783 19.8383 38.8284C20.5885 39.5786 21.6059 40 22.6667 40H38.1201L43.0534 44.9467C43.178 45.0703 43.3258 45.168 43.4882 45.2344C43.6507 45.3007 43.8246 45.3344 44.0001 45.3334C44.175 45.3379 44.3485 45.3013 44.5067 45.2267C44.7502 45.1267 44.9587 44.9568 45.1058 44.7385C45.2529 44.5202 45.3321 44.2633 45.3334 44V22.6667C45.3334 21.6058 44.912 20.5884 44.1618 19.8383C43.4117 19.0881 42.3943 18.6667 41.3334 18.6667ZM42.6667 40.7867L39.6134 37.72C39.4888 37.5964 39.3411 37.4987 39.1786 37.4323C39.0162 37.366 38.8422 37.3323 38.6667 37.3334H22.6667C22.3131 37.3334 21.974 37.1929 21.7239 36.9428C21.4739 36.6928 21.3334 36.3536 21.3334 36V22.6667C21.3334 22.3131 21.4739 21.9739 21.7239 21.7239C21.974 21.4738 22.3131 21.3334 22.6667 21.3334H41.3334C41.687 21.3334 42.0262 21.4738 42.2762 21.7239C42.5263 21.9739 42.6667 22.3131 42.6667 22.6667V40.7867Z" fill="white"/>
</svg>
