<svg width="65" height="64" viewBox="0 0 65 64" fill="none" xmlns="http://www.w3.org/2000/svg">
<rect x="0.5" width="64" height="64" rx="8" fill="#466BF0"/>
<rect x="0.5" width="64" height="64" rx="8" fill="#006FAC"/>
<path d="M45.2067 25.5333C45.0041 25.4163 44.7741 25.3547 44.5401 25.3547C44.306 25.3547 44.0761 25.4163 43.8734 25.5333L39.1667 27.8533C39.1288 26.8181 38.6906 25.838 37.9446 25.1193C37.1985 24.4005 36.2027 23.9993 35.1667 24H23.1667C22.1059 24 21.0885 24.4214 20.3383 25.1716C19.5882 25.9217 19.1667 26.9391 19.1667 28V36C19.1667 37.0609 19.5882 38.0783 20.3383 38.8284C21.0885 39.5786 22.1059 40 23.1667 40H35.1667C36.2027 40.0007 37.1985 39.5995 37.9446 38.8807C38.6906 38.162 39.1288 37.1819 39.1667 36.1467L43.9134 38.52C44.0952 38.6132 44.2959 38.6634 44.5001 38.6667C44.7497 38.6675 44.9946 38.5982 45.2067 38.4667C45.3989 38.3466 45.5573 38.1795 45.6669 37.9812C45.7766 37.7829 45.8339 37.5599 45.8334 37.3333V26.6667C45.8339 26.4401 45.7766 26.2171 45.6669 26.0188C45.5573 25.8205 45.3989 25.6534 45.2067 25.5333ZM36.5001 36C36.5001 36.3536 36.3596 36.6928 36.1096 36.9428C35.8595 37.1929 35.5204 37.3333 35.1667 37.3333H23.1667C22.8131 37.3333 22.474 37.1929 22.2239 36.9428C21.9739 36.6928 21.8334 36.3536 21.8334 36V28C21.8334 27.6464 21.9739 27.3072 22.2239 27.0572C22.474 26.8071 22.8131 26.6667 23.1667 26.6667H35.1667C35.5204 26.6667 35.8595 26.8071 36.1096 27.0572C36.3596 27.3072 36.5001 27.6464 36.5001 28V36ZM43.1667 35.1733L39.1667 33.1733V30.8267L43.1667 28.8267V35.1733Z" fill="white"/>
</svg>
