<svg width="64" height="64" viewBox="0 0 64 64" fill="none" xmlns="http://www.w3.org/2000/svg">
<rect width="64" height="64" rx="8" fill="#466BF0"/>
<rect width="64" height="64" rx="8" fill="#006FAC"/>
<path fill-rule="evenodd" clip-rule="evenodd" d="M43.75 24.25V35.75C43.75 37.683 42.183 39.25 40.25 39.25H35.3162C34.0868 39.25 32.9475 38.605 32.315 37.5507C30.37 34.3091 27.8503 30.1096 27.3345 29.25C26.8187 28.3904 25.25 28.5214 25.25 29.25C25.25 33.3505 25.25 39.75 25.25 39.75H20.25V27.75C20.25 25.817 21.817 24.25 23.75 24.25H28.1838C29.4132 24.25 30.5525 24.895 31.185 25.9493C31.185 25.9493 34.7873 32.3306 36.1655 34.25C36.8863 35.2539 38.75 35.2288 38.75 34.25C38.75 31.2935 38.75 24.25 38.75 24.25H43.75Z" stroke="white" stroke-width="2"/>
</svg>
