<svg width="65" height="64" viewBox="0 0 65 64" fill="none" xmlns="http://www.w3.org/2000/svg">
<rect x="0.75" width="64" height="64" rx="8" fill="#466BF0"/>
<rect x="0.75" width="64" height="64" rx="8" fill="#006FAC"/>
<path d="M36.19 31.0667C36.796 30.3093 37.1294 29.37 37.1367 28.4C37.1367 27.2366 36.6745 26.1208 35.8518 25.2982C35.0292 24.4755 33.9134 24.0134 32.75 24.0134C31.5866 24.0134 30.4708 24.4755 29.6482 25.2982C28.8255 26.1208 28.3633 27.2366 28.3633 28.4C28.3706 29.37 28.704 30.3093 29.31 31.0667C28.1215 31.7899 27.1891 32.8669 26.6433 34.1467C26.567 34.3091 26.5241 34.4852 26.5174 34.6645C26.5107 34.8438 26.5403 35.0226 26.6044 35.1903C26.6685 35.3579 26.7657 35.5108 26.8903 35.64C27.0149 35.7691 27.1642 35.8718 27.3295 35.9418C27.4947 36.0119 27.6723 36.0478 27.8518 36.0476C28.0312 36.0473 28.2087 36.0108 28.3738 35.9403C28.5388 35.8698 28.6878 35.7667 28.8121 35.6372C28.9363 35.5077 29.0331 35.3545 29.0967 35.1867C29.4031 34.4703 29.9121 33.8591 30.5611 33.428C31.2101 32.9969 31.9709 32.7648 32.75 32.76C33.5314 32.7622 34.2951 32.9931 34.9467 33.4244C35.5983 33.8556 36.1093 34.4683 36.4167 35.1867C36.5187 35.4277 36.6895 35.6333 36.9076 35.7779C37.1257 35.9226 37.3816 35.9998 37.6433 36C37.8217 35.9967 37.998 35.9605 38.1633 35.8934C38.4885 35.7552 38.7455 35.4937 38.878 35.1662C39.0105 34.8387 39.0076 34.472 38.87 34.1467C38.3208 32.865 37.3835 31.7878 36.19 31.0667ZM32.75 30.0934C32.4093 30.0933 32.0762 29.9921 31.793 29.8025C31.5099 29.6129 31.2895 29.3435 31.1597 29.0285C31.0299 28.7134 30.9966 28.3669 31.0641 28.0329C31.1315 27.6989 31.2967 27.3924 31.5386 27.1524C31.7805 26.9124 32.0882 26.7496 32.4227 26.6848C32.7572 26.6199 33.1035 26.6559 33.4175 26.7881C33.7316 26.9204 33.9992 27.1429 34.1866 27.4275C34.374 27.7121 34.4726 28.0459 34.47 28.3867C34.4665 28.8405 34.2837 29.2746 33.9615 29.5943C33.6394 29.914 33.2039 30.0934 32.75 30.0934ZM40.75 18.6667H24.75C23.6891 18.6667 22.6717 19.0881 21.9216 19.8383C21.1714 20.5884 20.75 21.6058 20.75 22.6667V37.3334C20.75 38.3942 21.1714 39.4116 21.9216 40.1618C22.6717 40.9119 23.6891 41.3334 24.75 41.3334H28.2033L31.8033 44.9467C31.9279 45.0703 32.0757 45.168 32.2381 45.2344C32.4006 45.3007 32.5745 45.3344 32.75 45.3334C33.0678 45.3334 33.3751 45.2199 33.6167 45.0134L37.91 41.3334H40.75C41.8109 41.3334 42.8283 40.9119 43.5784 40.1618C44.3286 39.4116 44.75 38.3942 44.75 37.3334V22.6667C44.75 21.6058 44.3286 20.5884 43.5784 19.8383C42.8283 19.0881 41.8109 18.6667 40.75 18.6667ZM42.0833 37.3334C42.0833 37.687 41.9429 38.0261 41.6928 38.2762C41.4428 38.5262 41.1036 38.6667 40.75 38.6667H37.4167C37.0989 38.6667 36.7915 38.7801 36.55 38.9867L32.8167 42.1867L29.6967 39.0534C29.5721 38.9298 29.4243 38.832 29.2619 38.7657C29.0994 38.6993 28.9255 38.6657 28.75 38.6667H24.75C24.3964 38.6667 24.0572 38.5262 23.8072 38.2762C23.5571 38.0261 23.4167 37.687 23.4167 37.3334V22.6667C23.4167 22.3131 23.5571 21.9739 23.8072 21.7239C24.0572 21.4738 24.3964 21.3334 24.75 21.3334H40.75C41.1036 21.3334 41.4428 21.4738 41.6928 21.7239C41.9429 21.9739 42.0833 22.3131 42.0833 22.6667V37.3334Z" fill="white"/>
</svg>
