<svg width="65" height="64" viewBox="0 0 65 64" fill="none" xmlns="http://www.w3.org/2000/svg">
<rect x="0.5" width="64" height="64" rx="8" fill="#466BF0"/>
<rect x="0.5" width="64" height="64" rx="8" fill="#006FAC"/>
<path d="M44.5001 40H41.8334V36C41.8334 35.6464 41.6929 35.3072 41.4429 35.0572C41.1928 34.8071 40.8537 34.6667 40.5001 34.6667H33.8334V31.0533L35.3401 31.84C35.5598 31.9549 35.8072 32.0063 36.0545 31.9884C36.3019 31.9705 36.5393 31.8839 36.7401 31.7385C36.941 31.593 37.0973 31.3945 37.1915 31.1651C37.2857 30.9357 37.3141 30.6846 37.2734 30.44L36.7401 27.28L39.0334 25.0267C39.2071 24.8571 39.3312 24.6432 39.3923 24.4083C39.4534 24.1733 39.4492 23.9261 39.3801 23.6933C39.3028 23.4564 39.1606 23.2458 38.9697 23.0856C38.7788 22.9253 38.5469 22.8217 38.3001 22.7867L35.1667 22.2933L33.7001 19.4133C33.5909 19.1879 33.4204 18.9978 33.2082 18.8648C32.996 18.7317 32.7506 18.6612 32.5001 18.6612C32.2496 18.6612 32.0042 18.7317 31.792 18.8648C31.5797 18.9978 31.4093 19.1879 31.3001 19.4133L29.8334 22.2933L26.6467 22.76C26.4 22.7951 26.168 22.8986 25.9771 23.0589C25.7862 23.2191 25.644 23.4297 25.5667 23.6667C25.4977 23.8994 25.4934 24.1466 25.5545 24.3816C25.6156 24.6166 25.7397 24.8304 25.9134 25L28.2601 27.28L27.7267 30.44C27.6861 30.6846 27.7145 30.9357 27.8087 31.1651C27.9029 31.3945 28.0592 31.593 28.26 31.7385C28.4609 31.8839 28.6983 31.9705 28.9456 31.9884C29.1929 32.0063 29.4404 31.9549 29.6601 31.84L31.1667 31.0533V34.6667H24.5001C24.1465 34.6667 23.8073 34.8071 23.5573 35.0572C23.3072 35.3072 23.1667 35.6464 23.1667 36V40H20.5001C20.1465 40 19.8073 40.1405 19.5573 40.3905C19.3072 40.6406 19.1667 40.9797 19.1667 41.3333V44C19.1667 44.3536 19.3072 44.6928 19.5573 44.9428C19.8073 45.1929 20.1465 45.3333 20.5001 45.3333C20.8537 45.3333 21.1928 45.1929 21.4429 44.9428C21.6929 44.6928 21.8334 44.3536 21.8334 44V42.6667H27.1667V44C27.1667 44.3536 27.3072 44.6928 27.5573 44.9428C27.8073 45.1929 28.1465 45.3333 28.5001 45.3333C28.8537 45.3333 29.1928 45.1929 29.4429 44.9428C29.6929 44.6928 29.8334 44.3536 29.8334 44V41.3333C29.8334 40.9797 29.6929 40.6406 29.4429 40.3905C29.1928 40.1405 28.8537 40 28.5001 40H25.8334V37.3333H39.1667V40H36.5001C36.1465 40 35.8073 40.1405 35.5573 40.3905C35.3072 40.6406 35.1667 40.9797 35.1667 41.3333V44C35.1667 44.3536 35.3072 44.6928 35.5573 44.9428C35.8073 45.1929 36.1465 45.3333 36.5001 45.3333C36.8537 45.3333 37.1928 45.1929 37.4429 44.9428C37.6929 44.6928 37.8334 44.3536 37.8334 44V42.6667H43.1667V44C43.1667 44.3536 43.3072 44.6928 43.5573 44.9428C43.8073 45.1929 44.1465 45.3333 44.5001 45.3333C44.8537 45.3333 45.1928 45.1929 45.4429 44.9428C45.6929 44.6928 45.8334 44.3536 45.8334 44V41.3333C45.8334 40.9797 45.6929 40.6406 45.4429 40.3905C45.1928 40.1405 44.8537 40 44.5001 40ZM32.5001 27.5067C32.2812 27.5078 32.066 27.5627 31.8734 27.6667L30.8067 28.2267L31.0067 27.0267C31.0417 26.8144 31.0248 26.5968 30.9575 26.3925C30.8902 26.1882 30.7744 26.0032 30.6201 25.8533L29.7534 25L30.9534 24.8267C31.1681 24.798 31.3726 24.7174 31.5491 24.592C31.7257 24.4665 31.869 24.3 31.9667 24.1067L32.5001 23.0133L33.0334 24.1067C33.1311 24.3 33.2745 24.4665 33.451 24.592C33.6276 24.7174 33.8321 24.798 34.0467 24.8267L35.2467 25L34.3801 25.8533C34.2258 26.0032 34.11 26.1882 34.0427 26.3925C33.9753 26.5968 33.9584 26.8144 33.9934 27.0267L34.1934 28.2267L33.1267 27.6667C32.9342 27.5627 32.7189 27.5078 32.5001 27.5067Z" fill="white"/>
</svg>
