<svg width="48" height="48" viewBox="0 0 48 48" fill="none" xmlns="http://www.w3.org/2000/svg">
<rect width="48" height="48" rx="8" fill="#466BF0"/>
<rect width="48" height="48" rx="8" fill="#006FAC"/>
<path d="M33.3334 12H14.6667C13.6059 12 12.5885 12.4214 11.8383 13.1716C11.0882 13.9217 10.6667 14.9391 10.6667 16V26.6667C10.6667 27.7275 11.0882 28.7449 11.8383 29.4951C12.5885 30.2452 13.6059 30.6667 14.6667 30.6667H22.6667V33.3333H17.3334C16.9798 33.3333 16.6407 33.4738 16.3906 33.7239C16.1406 33.9739 16.0001 34.313 16.0001 34.6667C16.0001 35.0203 16.1406 35.3594 16.3906 35.6095C16.6407 35.8595 16.9798 36 17.3334 36H30.6667C31.0204 36 31.3595 35.8595 31.6096 35.6095C31.8596 35.3594 32.0001 35.0203 32.0001 34.6667C32.0001 34.313 31.8596 33.9739 31.6096 33.7239C31.3595 33.4738 31.0204 33.3333 30.6667 33.3333H25.3334V30.6667H33.3334C34.3943 30.6667 35.4117 30.2452 36.1618 29.4951C36.912 28.7449 37.3334 27.7275 37.3334 26.6667V16C37.3334 14.9391 36.912 13.9217 36.1618 13.1716C35.4117 12.4214 34.3943 12 33.3334 12ZM34.6667 26.6667C34.6667 27.0203 34.5263 27.3594 34.2762 27.6095C34.0262 27.8595 33.687 28 33.3334 28H14.6667C14.3131 28 13.974 27.8595 13.7239 27.6095C13.4739 27.3594 13.3334 27.0203 13.3334 26.6667V16C13.3334 15.6464 13.4739 15.3072 13.7239 15.0572C13.974 14.8071 14.3131 14.6667 14.6667 14.6667H33.3334C33.687 14.6667 34.0262 14.8071 34.2762 15.0572C34.5263 15.3072 34.6667 15.6464 34.6667 16V26.6667Z" fill="white"/>
</svg>
