<svg width="48" height="48" viewBox="0 0 48 48" fill="none" xmlns="http://www.w3.org/2000/svg">
<rect width="48" height="48" rx="8" fill="#466BF0"/>
<rect width="48" height="48" rx="8" fill="#006FAC"/>
<path d="M37.3332 20.8933C37.249 20.6494 37.0959 20.4352 36.8923 20.2766C36.6888 20.1181 36.4436 20.0219 36.1866 19.9999L28.5999 18.8933L25.1999 11.9999C25.0907 11.7745 24.9202 11.5844 24.708 11.4514C24.4958 11.3184 24.2504 11.2478 23.9999 11.2478C23.7494 11.2478 23.504 11.3184 23.2918 11.4514C23.0795 11.5844 22.9091 11.7745 22.7999 11.9999L19.3999 18.8799L11.8132 19.9999C11.5665 20.035 11.3345 20.1386 11.1436 20.2988C10.9527 20.4591 10.8105 20.6696 10.7332 20.9066C10.6625 21.1382 10.6561 21.3846 10.7149 21.6195C10.7736 21.8544 10.8952 22.0689 11.0666 22.24L16.5732 27.5733L15.2399 35.1466C15.1923 35.3966 15.2172 35.655 15.3117 35.8912C15.4062 36.1275 15.5664 36.3318 15.7732 36.4799C15.9748 36.6241 16.2127 36.7092 16.46 36.7257C16.7073 36.7422 16.9542 36.6894 17.1732 36.5733L23.9999 33.0133L30.7999 36.5866C30.987 36.6922 31.1984 36.7473 31.4132 36.7466C31.6957 36.7476 31.9711 36.6589 32.1999 36.4933C32.4067 36.3451 32.5669 36.1408 32.6614 35.9046C32.7559 35.6683 32.7808 35.4099 32.7332 35.16L31.3999 27.5866L36.9066 22.2533C37.0991 22.0902 37.2413 21.8758 37.3169 21.6351C37.3924 21.3943 37.3981 21.1371 37.3332 20.8933ZM29.1332 26.2266C28.9769 26.3779 28.8599 26.5651 28.7925 26.7719C28.7251 26.9788 28.7093 27.1989 28.7466 27.4133L29.7066 33L24.6932 30.3333C24.5003 30.2306 24.2851 30.1768 24.0666 30.1768C23.848 30.1768 23.6328 30.2306 23.4399 30.3333L18.4266 33L19.3866 27.4133C19.4238 27.1989 19.408 26.9788 19.3406 26.7719C19.2732 26.5651 19.1563 26.3779 18.9999 26.2266L14.9999 22.2266L20.6132 21.4133C20.8292 21.3832 21.0346 21.3007 21.2112 21.1728C21.3879 21.045 21.5305 20.8757 21.6266 20.6799L23.9999 15.5999L26.5066 20.6933C26.6026 20.8891 26.7452 21.0583 26.9219 21.1862C27.0986 21.314 27.3039 21.3966 27.5199 21.4266L33.1332 22.24L29.1332 26.2266Z" fill="white"/>
</svg>
