<svg width="49" height="48" viewBox="0 0 49 48" fill="none" xmlns="http://www.w3.org/2000/svg">
<rect x="0.333252" width="48" height="48" rx="8" fill="#466BF0"/>
<rect x="0.333252" width="48" height="48" rx="8" fill="#006FAC"/>
<path d="M35.4533 20.4267L16.7867 11.0933C16.05 10.7267 15.2182 10.5962 14.4046 10.7195C13.591 10.8429 12.8353 11.2142 12.2404 11.7828C11.6456 12.3514 11.2406 13.0896 11.0807 13.8968C10.9207 14.704 11.0136 15.5409 11.3467 16.2933L14.5467 23.4533C14.6193 23.6265 14.6567 23.8123 14.6567 24C14.6567 24.1877 14.6193 24.3736 14.5467 24.5467L11.3467 31.7067C11.0756 32.3156 10.961 32.9827 11.0133 33.6472C11.0656 34.3117 11.2831 34.9526 11.6461 35.5116C12.0091 36.0707 12.506 36.5301 13.0918 36.8483C13.6775 37.1664 14.3334 37.3332 15 37.3333C15.6243 37.3271 16.2393 37.1813 16.8 36.9067L35.4667 27.5733C36.1288 27.2403 36.6854 26.7297 37.0743 26.0988C37.4632 25.4678 37.6691 24.7412 37.6691 24C37.6691 23.2588 37.4632 22.5322 37.0743 21.9012C36.6854 21.2703 36.1288 20.7598 35.4667 20.4267H35.4533ZM34.2667 25.1867L15.6 34.52C15.3549 34.6377 15.0796 34.6776 14.8112 34.6345C14.5427 34.5913 14.2939 34.4671 14.098 34.2785C13.9022 34.0899 13.7686 33.8459 13.7154 33.5792C13.6621 33.3126 13.6916 33.0361 13.8 32.7867L16.9867 25.6267C17.0279 25.5311 17.0635 25.4331 17.0933 25.3333H26.28C26.6336 25.3333 26.9728 25.1929 27.2228 24.9428C27.4729 24.6928 27.6133 24.3536 27.6133 24C27.6133 23.6464 27.4729 23.3072 27.2228 23.0572C26.9728 22.8072 26.6336 22.6667 26.28 22.6667H17.0933C17.0635 22.5669 17.0279 22.469 16.9867 22.3733L13.8 15.2133C13.6916 14.964 13.6621 14.6874 13.7154 14.4208C13.7686 14.1541 13.9022 13.9101 14.098 13.7215C14.2939 13.5329 14.5427 13.4087 14.8112 13.3655C15.0796 13.3224 15.3549 13.3623 15.6 13.48L34.2667 22.8133C34.4851 22.9252 34.6684 23.0952 34.7963 23.3046C34.9243 23.514 34.9921 23.7546 34.9921 24C34.9921 24.2454 34.9243 24.486 34.7963 24.6954C34.6684 24.9048 34.4851 25.0748 34.2667 25.1867Z" fill="white"/>
</svg>
