<svg width="49" height="48" viewBox="0 0 49 48" fill="none" xmlns="http://www.w3.org/2000/svg">
<rect x="0.666504" width="48" height="48" rx="8" fill="#466BF0"/>
<rect x="0.666504" width="48" height="48" rx="8" fill="#006FAC"/>
<path d="M36.6666 16.0001H31.3333V14.6667C31.3333 13.6059 30.9118 12.5885 30.1617 11.8383C29.4115 11.0882 28.3941 10.6667 27.3333 10.6667H21.9999C20.9391 10.6667 19.9216 11.0882 19.1715 11.8383C18.4213 12.5885 17.9999 13.6059 17.9999 14.6667V16.0001H12.6666C12.313 16.0001 11.9738 16.1406 11.7238 16.3906C11.4737 16.6407 11.3333 16.9798 11.3333 17.3334V22.6667C11.3363 23.2259 11.4565 23.7783 11.6861 24.2881C11.9158 24.7979 12.2498 25.254 12.6666 25.6267V33.3334C12.6666 34.3943 13.088 35.4117 13.8382 36.1618C14.5883 36.912 15.6057 37.3334 16.6666 37.3334H32.6666C33.7275 37.3334 34.7449 36.912 35.495 36.1618C36.2452 35.4117 36.6666 34.3943 36.6666 33.3334V25.6267C37.0834 25.254 37.4174 24.7979 37.647 24.2881C37.8767 23.7783 37.9969 23.2259 37.9999 22.6667V17.3334C37.9999 16.9798 37.8594 16.6407 37.6094 16.3906C37.3593 16.1406 37.0202 16.0001 36.6666 16.0001ZM20.6666 14.6667C20.6666 14.3131 20.8071 13.974 21.0571 13.7239C21.3072 13.4739 21.6463 13.3334 21.9999 13.3334H27.3333C27.6869 13.3334 28.026 13.4739 28.2761 13.7239C28.5261 13.974 28.6666 14.3131 28.6666 14.6667V16.0001H20.6666V14.6667ZM33.9999 33.3334C33.9999 33.687 33.8594 34.0262 33.6094 34.2762C33.3593 34.5263 33.0202 34.6667 32.6666 34.6667H16.6666C16.313 34.6667 15.9738 34.5263 15.7238 34.2762C15.4737 34.0262 15.3333 33.687 15.3333 33.3334V26.6667H17.9999V28.0001C17.9999 28.3537 18.1404 28.6928 18.3904 28.9429C18.6405 29.1929 18.9796 29.3334 19.3333 29.3334C19.6869 29.3334 20.026 29.1929 20.2761 28.9429C20.5261 28.6928 20.6666 28.3537 20.6666 28.0001V26.6667H28.6666V28.0001C28.6666 28.3537 28.8071 28.6928 29.0571 28.9429C29.3072 29.1929 29.6463 29.3334 29.9999 29.3334C30.3535 29.3334 30.6927 29.1929 30.9427 28.9429C31.1928 28.6928 31.3333 28.3537 31.3333 28.0001V26.6667H33.9999V33.3334ZM35.3333 22.6667C35.3333 23.0204 35.1928 23.3595 34.9427 23.6096C34.6927 23.8596 34.3535 24.0001 33.9999 24.0001H31.3333V22.6667C31.3333 22.3131 31.1928 21.974 30.9427 21.7239C30.6927 21.4739 30.3535 21.3334 29.9999 21.3334C29.6463 21.3334 29.3072 21.4739 29.0571 21.7239C28.8071 21.974 28.6666 22.3131 28.6666 22.6667V24.0001H20.6666V22.6667C20.6666 22.3131 20.5261 21.974 20.2761 21.7239C20.026 21.4739 19.6869 21.3334 19.3333 21.3334C18.9796 21.3334 18.6405 21.4739 18.3904 21.7239C18.1404 21.974 17.9999 22.3131 17.9999 22.6667V24.0001H15.3333C14.9796 24.0001 14.6405 23.8596 14.3904 23.6096C14.1404 23.3595 13.9999 23.0204 13.9999 22.6667V18.6667H35.3333V22.6667Z" fill="white"/>
</svg>
