<svg width="49" height="48" viewBox="0 0 49 48" fill="none" xmlns="http://www.w3.org/2000/svg">
<rect x="0.666504" width="48" height="48" rx="8" fill="#466BF0"/>
<rect x="0.666504" width="48" height="48" rx="8" fill="#006FAC"/>
<path d="M9.99976 24.6666V31.3333C9.99976 31.6869 10.1402 32.026 10.3903 32.2761C10.6403 32.5261 10.9795 32.6666 11.3331 32.6666H12.6664C12.6664 33.7274 13.0878 34.7449 13.838 35.495C14.5881 36.2452 15.6056 36.6666 16.6664 36.6666C17.7273 36.6666 18.7447 36.2452 19.4948 35.495C20.245 34.7449 20.6664 33.7274 20.6664 32.6666H28.6664C28.6664 33.7274 29.0878 34.7449 29.838 35.495C30.5881 36.2452 31.6056 36.6666 32.6664 36.6666C33.7273 36.6666 34.7447 36.2452 35.4948 35.495C36.245 34.7449 36.6664 33.7274 36.6664 32.6666H37.9998C38.3534 32.6666 38.6925 32.5261 38.9426 32.2761C39.1926 32.026 39.3331 31.6869 39.3331 31.3333V15.3333C39.3331 14.2724 38.9117 13.255 38.1615 12.5048C37.4114 11.7547 36.394 11.3333 35.3331 11.3333H23.3331C22.2722 11.3333 21.2548 11.7547 20.5047 12.5048C19.7545 13.255 19.3331 14.2724 19.3331 15.3333V17.9999H16.6664C16.0454 17.9999 15.433 18.1445 14.8776 18.4222C14.3221 18.6999 13.839 19.1031 13.4664 19.5999L10.2664 23.8666C10.2274 23.9245 10.1961 23.9873 10.1731 24.0533L10.0931 24.1999C10.0342 24.3486 10.0026 24.5067 9.99976 24.6666ZM31.3331 32.6666C31.3331 32.4029 31.4113 32.1451 31.5578 31.9258C31.7043 31.7066 31.9125 31.5357 32.1562 31.4347C32.3998 31.3338 32.6679 31.3074 32.9265 31.3589C33.1852 31.4103 33.4228 31.5373 33.6092 31.7238C33.7957 31.9102 33.9227 32.1478 33.9741 32.4065C34.0256 32.6651 33.9992 32.9332 33.8983 33.1768C33.7973 33.4205 33.6264 33.6287 33.4072 33.7752C33.1879 33.9217 32.9301 33.9999 32.6664 33.9999C32.3128 33.9999 31.9737 33.8594 31.7236 33.6094C31.4736 33.3593 31.3331 33.0202 31.3331 32.6666ZM21.9998 15.3333C21.9998 14.9796 22.1402 14.6405 22.3903 14.3904C22.6403 14.1404 22.9795 13.9999 23.3331 13.9999H35.3331C35.6867 13.9999 36.0258 14.1404 36.2759 14.3904C36.5259 14.6405 36.6664 14.9796 36.6664 15.3333V29.9999H35.6264C35.2515 29.5874 34.7945 29.2579 34.2848 29.0324C33.7751 28.8068 33.2238 28.6903 32.6664 28.6903C32.109 28.6903 31.5578 28.8068 31.048 29.0324C30.5383 29.2579 30.0813 29.5874 29.7064 29.9999H21.9998V15.3333ZM19.3331 23.3333H13.9998L15.5998 21.1999C15.724 21.0343 15.885 20.8999 16.0701 20.8073C16.2553 20.7148 16.4594 20.6666 16.6664 20.6666H19.3331V23.3333ZM15.3331 32.6666C15.3331 32.4029 15.4113 32.1451 15.5578 31.9258C15.7043 31.7066 15.9125 31.5357 16.1562 31.4347C16.3998 31.3338 16.6679 31.3074 16.9265 31.3589C17.1852 31.4103 17.4228 31.5373 17.6092 31.7238C17.7957 31.9102 17.9227 32.1478 17.9741 32.4065C18.0256 32.6651 17.9992 32.9332 17.8983 33.1768C17.7973 33.4205 17.6264 33.6287 17.4072 33.7752C17.1879 33.9217 16.9301 33.9999 16.6664 33.9999C16.3128 33.9999 15.9737 33.8594 15.7236 33.6094C15.4736 33.3593 15.3331 33.0202 15.3331 32.6666ZM12.6664 25.9999H19.3331V29.7066C18.5462 29.0033 17.5133 28.6395 16.4593 28.6945C15.4054 28.7494 14.4159 29.2186 13.7064 29.9999H12.6664V25.9999Z" fill="white"/>
</svg>
