<svg width="49" height="48" viewBox="0 0 49 48" fill="none" xmlns="http://www.w3.org/2000/svg">
<rect x="0.333252" width="48" height="48" rx="8" fill="#466BF0"/>
<rect x="0.333252" width="48" height="48" rx="8" fill="#006FAC"/>
<path d="M34.9998 19.9201C34.9859 19.7976 34.9591 19.6769 34.9198 19.5601V19.4401C34.8557 19.303 34.7702 19.177 34.6665 19.0667L26.6665 11.0667C26.5563 10.963 26.4303 10.8775 26.2932 10.8134H26.1732L25.7465 10.6667H17.6665C16.6056 10.6667 15.5882 11.0882 14.8381 11.8383C14.0879 12.5885 13.6665 13.6059 13.6665 14.6667V33.3334C13.6665 34.3943 14.0879 35.4117 14.8381 36.1618C15.5882 36.912 16.6056 37.3334 17.6665 37.3334H30.9998C32.0607 37.3334 33.0781 36.912 33.8283 36.1618C34.5784 35.4117 34.9998 34.3943 34.9998 33.3334V20.0001C34.9998 20.0001 34.9998 20.0001 34.9998 19.9201ZM26.9998 15.2134L30.4532 18.6667H26.9998V15.2134ZM32.3332 33.3334C32.3332 33.687 32.1927 34.0262 31.9426 34.2762C31.6926 34.5263 31.3535 34.6667 30.9998 34.6667H17.6665C17.3129 34.6667 16.9737 34.5263 16.7237 34.2762C16.4736 34.0262 16.3332 33.687 16.3332 33.3334V14.6667C16.3332 14.3131 16.4736 13.974 16.7237 13.7239C16.9737 13.4739 17.3129 13.3334 17.6665 13.3334H24.3332V20.0001C24.3332 20.3537 24.4736 20.6928 24.7237 20.9429C24.9737 21.1929 25.3129 21.3334 25.6665 21.3334H32.3332V33.3334Z" fill="white"/>
</svg>
