<svg width="49" height="48" viewBox="0 0 49 48" fill="none" xmlns="http://www.w3.org/2000/svg">
<rect x="0.333252" width="48" height="48" rx="8" fill="#466BF0"/>
<rect x="0.333252" width="48" height="48" rx="8" fill="#006FAC"/>
<path d="M17.6667 21.3334C17.403 21.3334 17.1452 21.4116 16.9259 21.5581C16.7066 21.7046 16.5357 21.9129 16.4348 22.1565C16.3339 22.4001 16.3075 22.6682 16.359 22.9269C16.4104 23.1855 16.5374 23.4231 16.7239 23.6096C16.9103 23.796 17.1479 23.923 17.4065 23.9745C17.6652 24.0259 17.9333 23.9995 18.1769 23.8986C18.4205 23.7977 18.6288 23.6268 18.7753 23.4075C18.9218 23.1882 19 22.9305 19 22.6667C19 22.3131 18.8595 21.974 18.6095 21.7239C18.3594 21.4739 18.0203 21.3334 17.6667 21.3334ZM33.6667 16.0001H32.3333V12.0001C32.3333 11.6465 32.1929 11.3073 31.9428 11.0573C31.6928 10.8072 31.3536 10.6667 31 10.6667H17.6667C17.313 10.6667 16.9739 10.8072 16.7239 11.0573C16.4738 11.3073 16.3333 11.6465 16.3333 12.0001V16.0001H15C13.9391 16.0001 12.9217 16.4215 12.1716 17.1717C11.4214 17.9218 11 18.9392 11 20.0001V28.0001C11 29.0609 11.4214 30.0784 12.1716 30.8285C12.9217 31.5787 13.9391 32.0001 15 32.0001H16.3333V36.0001C16.3333 36.3537 16.4738 36.6928 16.7239 36.9429C16.9739 37.1929 17.313 37.3334 17.6667 37.3334H31C31.3536 37.3334 31.6928 37.1929 31.9428 36.9429C32.1929 36.6928 32.3333 36.3537 32.3333 36.0001V32.0001H33.6667C34.7275 32.0001 35.7449 31.5787 36.4951 30.8285C37.2452 30.0784 37.6667 29.0609 37.6667 28.0001V20.0001C37.6667 18.9392 37.2452 17.9218 36.4951 17.1717C35.7449 16.4215 34.7275 16.0001 33.6667 16.0001ZM19 13.3334H29.6667V16.0001H19V13.3334ZM29.6667 34.6667H19V29.3334H29.6667V34.6667ZM35 28.0001C35 28.3537 34.8595 28.6928 34.6095 28.9429C34.3594 29.1929 34.0203 29.3334 33.6667 29.3334H32.3333V28.0001C32.3333 27.6465 32.1929 27.3073 31.9428 27.0573C31.6928 26.8072 31.3536 26.6667 31 26.6667H17.6667C17.313 26.6667 16.9739 26.8072 16.7239 27.0573C16.4738 27.3073 16.3333 27.6465 16.3333 28.0001V29.3334H15C14.6464 29.3334 14.3072 29.1929 14.0572 28.9429C13.8071 28.6928 13.6667 28.3537 13.6667 28.0001V20.0001C13.6667 19.6465 13.8071 19.3073 14.0572 19.0573C14.3072 18.8072 14.6464 18.6667 15 18.6667H33.6667C34.0203 18.6667 34.3594 18.8072 34.6095 19.0573C34.8595 19.3073 35 19.6465 35 20.0001V28.0001Z" fill="white"/>
</svg>
