<svg width="48" height="48" viewBox="0 0 48 48" fill="none" xmlns="http://www.w3.org/2000/svg">
<rect width="48" height="48" rx="8" fill="#466BF0"/>
<rect width="48" height="48" rx="8" fill="#006FAC"/>
<path d="M24 28C23.2088 28 22.4355 28.2346 21.7777 28.6742C21.1199 29.1137 20.6072 29.7384 20.3045 30.4693C20.0017 31.2002 19.9225 32.0045 20.0768 32.7804C20.2312 33.5563 20.6121 34.269 21.1715 34.8285C21.731 35.3879 22.4437 35.7688 23.2196 35.9232C23.9955 36.0775 24.7998 35.9983 25.5307 35.6955C26.2616 35.3928 26.8863 34.8801 27.3258 34.2223C27.7654 33.5645 28 32.7912 28 32C28 30.9392 27.5785 29.9217 26.8284 29.1716C26.0783 28.4215 25.0608 28 24 28ZM24 33.3334C23.7363 33.3334 23.4785 33.2552 23.2592 33.1087C23.0399 32.9622 22.869 32.7539 22.7681 32.5103C22.6672 32.2666 22.6408 31.9986 22.6923 31.7399C22.7437 31.4813 22.8707 31.2437 23.0572 31.0572C23.2436 30.8708 23.4812 30.7438 23.7399 30.6923C23.9985 30.6409 24.2666 30.6673 24.5102 30.7682C24.7539 30.8691 24.9621 31.04 25.1086 31.2593C25.2551 31.4785 25.3333 31.7363 25.3333 32C25.3333 32.3537 25.1928 32.6928 24.9428 32.9428C24.6927 33.1929 24.3536 33.3334 24 33.3334ZM24 22.6667C21.5263 22.6752 19.1554 23.6571 17.4 25.4C17.1516 25.6498 17.0122 25.9878 17.0122 26.34C17.0122 26.6923 17.1516 27.0302 17.4 27.28C17.6498 27.5284 17.9877 27.6678 18.34 27.6678C18.6922 27.6678 19.0302 27.5284 19.28 27.28C19.8992 26.6592 20.6349 26.1666 21.4449 25.8305C22.2548 25.4944 23.1231 25.3214 24 25.3214C24.8769 25.3214 25.7452 25.4944 26.5551 25.8305C27.365 26.1666 28.1007 26.6592 28.72 27.28C28.9661 27.5312 29.3016 27.675 29.6533 27.68C29.9238 27.6956 30.1927 27.6284 30.424 27.4873C30.6554 27.3462 30.8383 27.138 30.9483 26.8904C31.0584 26.6428 31.0904 26.3675 31.0401 26.1013C30.9897 25.835 30.8595 25.5904 30.6666 25.4C29.7893 24.529 28.7491 23.8393 27.6052 23.3703C26.4613 22.9013 25.2362 22.6622 24 22.6667ZM24 17.3334C20.112 17.3437 16.3847 18.8863 13.6266 21.6267C13.5023 21.751 13.4037 21.8986 13.3364 22.061C13.2691 22.2235 13.2345 22.3976 13.2345 22.5734C13.2345 22.9284 13.3756 23.269 13.6266 23.52C13.8777 23.7711 14.2182 23.9122 14.5733 23.9122C14.9284 23.9122 15.2689 23.7711 15.52 23.52C17.77 21.2728 20.82 20.0106 24 20.0106C27.18 20.0106 30.23 21.2728 32.48 23.52C32.6046 23.6436 32.7523 23.7414 32.9148 23.8077C33.0772 23.8741 33.2512 23.9077 33.4266 23.9067C33.6021 23.9077 33.7761 23.8741 33.9385 23.8077C34.101 23.7414 34.2487 23.6436 34.3733 23.52C34.4983 23.3961 34.5975 23.2486 34.6652 23.0861C34.7329 22.9237 34.7677 22.7494 34.7677 22.5734C34.7677 22.3973 34.7329 22.2231 34.6652 22.0606C34.5975 21.8981 34.4983 21.7506 34.3733 21.6267C31.6152 18.8863 27.888 17.3437 24 17.3334ZM38.1466 17.8534C36.2893 15.9948 34.0839 14.5205 31.6566 13.5146C29.2293 12.5087 26.6275 11.991 24 11.991C21.3725 11.991 18.7707 12.5087 16.3433 13.5146C13.916 14.5205 11.7106 15.9948 9.8533 17.8534C9.60223 18.1044 9.46118 18.445 9.46118 18.8C9.46118 19.1551 9.60223 19.4956 9.8533 19.7467C10.1044 19.9978 10.4449 20.1388 10.8 20.1388C11.155 20.1388 11.4956 19.9978 11.7466 19.7467C14.997 16.498 19.4044 14.6731 24 14.6731C28.5955 14.6731 33.0029 16.498 36.2533 19.7467C36.3773 19.8717 36.5247 19.9709 36.6872 20.0386C36.8497 20.1062 37.024 20.1411 37.2 20.1411C37.376 20.1411 37.5503 20.1062 37.7127 20.0386C37.8752 19.9709 38.0227 19.8717 38.1466 19.7467C38.2716 19.6227 38.3708 19.4753 38.4385 19.3128C38.5062 19.1503 38.541 18.976 38.541 18.8C38.541 18.624 38.5062 18.4497 38.4385 18.2873C38.3708 18.1248 38.2716 17.9773 38.1466 17.8534Z" fill="white"/>
</svg>
