<svg width="49" height="48" viewBox="0 0 49 48" fill="none" xmlns="http://www.w3.org/2000/svg">
<rect x="0.666504" width="48" height="48" rx="8" fill="#466BF0"/>
<rect x="0.666504" width="48" height="48" rx="8" fill="#006FAC"/>
<path d="M36.6666 32.0001H28.4266C28.2275 31.4409 27.9064 30.933 27.4867 30.5133C27.067 30.0936 26.5591 29.7725 25.9999 29.5734V25.3334H35.3333C35.6869 25.3334 36.026 25.1929 36.2761 24.9429C36.5261 24.6928 36.6666 24.3537 36.6666 24.0001C36.6666 23.6465 36.5261 23.3073 36.2761 23.0573C36.026 22.8072 35.6869 22.6667 35.3333 22.6667H33.9999V14.6667C33.9999 13.6059 33.5785 12.5885 32.8283 11.8383C32.0782 11.0882 31.0608 10.6667 29.9999 10.6667H19.3333C18.2724 10.6667 17.255 11.0882 16.5048 11.8383C15.7547 12.5885 15.3333 13.6059 15.3333 14.6667V22.6667H13.9999C13.6463 22.6667 13.3072 22.8072 13.0571 23.0573C12.8071 23.3073 12.6666 23.6465 12.6666 24.0001C12.6666 24.3537 12.8071 24.6928 13.0571 24.9429C13.3072 25.1929 13.6463 25.3334 13.9999 25.3334H23.3333V29.5734C22.7741 29.7725 22.2662 30.0936 21.8465 30.5133C21.4267 30.933 21.1057 31.4409 20.9066 32.0001H12.6666C12.313 32.0001 11.9738 32.1406 11.7238 32.3906C11.4737 32.6407 11.3333 32.9798 11.3333 33.3334C11.3333 33.687 11.4737 34.0262 11.7238 34.2762C11.9738 34.5263 12.313 34.6667 12.6666 34.6667H20.9066C21.1869 35.439 21.6981 36.1061 22.3708 36.5776C23.0435 37.0491 23.8451 37.3021 24.6666 37.3021C25.4881 37.3021 26.2897 37.0491 26.9624 36.5776C27.6351 36.1061 28.1463 35.439 28.4266 34.6667H36.6666C37.0202 34.6667 37.3593 34.5263 37.6094 34.2762C37.8594 34.0262 37.9999 33.687 37.9999 33.3334C37.9999 32.9798 37.8594 32.6407 37.6094 32.3906C37.3593 32.1406 37.0202 32.0001 36.6666 32.0001ZM17.9999 22.6667V14.6667C17.9999 14.3131 18.1404 13.974 18.3904 13.7239C18.6405 13.4739 18.9796 13.3334 19.3333 13.3334H29.9999C30.3535 13.3334 30.6927 13.4739 30.9427 13.7239C31.1928 13.974 31.3333 14.3131 31.3333 14.6667V22.6667H17.9999ZM24.6666 34.6667C24.4029 34.6667 24.1451 34.5886 23.9258 34.442C23.7066 34.2955 23.5357 34.0873 23.4347 33.8437C23.3338 33.6 23.3074 33.3319 23.3589 33.0733C23.4103 32.8147 23.5373 32.5771 23.7238 32.3906C23.9102 32.2041 24.1478 32.0771 24.4065 32.0257C24.6651 31.9743 24.9332 32.0007 25.1768 32.1016C25.4205 32.2025 25.6287 32.3734 25.7752 32.5927C25.9217 32.8119 25.9999 33.0697 25.9999 33.3334C25.9999 33.687 25.8594 34.0262 25.6094 34.2762C25.3593 34.5263 25.0202 34.6667 24.6666 34.6667Z" fill="white"/>
</svg>
