<svg width="49" height="48" viewBox="0 0 49 48" fill="none" xmlns="http://www.w3.org/2000/svg">
<rect x="0.666504" width="48" height="48" rx="8" fill="#466BF0"/>
<rect x="0.666504" width="48" height="48" rx="8" fill="#006FAC"/>
<path d="M36.6666 32.0001H28.4266C28.2275 31.4409 27.9064 30.933 27.4867 30.5133C27.067 30.0936 26.5591 29.7725 25.9999 29.5734V26.6668H30.8933C31.7161 26.6633 32.5043 26.3348 33.0861 25.753C33.668 25.1711 33.9964 24.383 33.9999 23.5601V16.4401C33.9964 15.6172 33.668 14.8291 33.0861 14.2472C32.5043 13.6654 31.7161 13.3369 30.8933 13.3334H25.5599L25.3866 12.7868C25.181 12.1787 24.7928 11.6488 24.275 11.2694C23.7572 10.89 23.135 10.6796 22.4933 10.6668H18.4933C18.0813 10.6615 17.6724 10.7378 17.2901 10.8914C16.9078 11.045 16.5597 11.2728 16.2659 11.5616C15.9721 11.8505 15.7384 12.1946 15.5784 12.5742C15.4183 12.9539 15.335 13.3614 15.3333 13.7734V23.5601C15.3368 24.383 15.6652 25.1711 16.2471 25.753C16.8289 26.3348 17.6171 26.6633 18.4399 26.6668H23.3333V29.5734C22.7741 29.7725 22.2662 30.0936 21.8465 30.5133C21.4267 30.933 21.1057 31.4409 20.9066 32.0001H12.6666C12.313 32.0001 11.9738 32.1406 11.7238 32.3906C11.4737 32.6407 11.3333 32.9798 11.3333 33.3334C11.3333 33.687 11.4737 34.0262 11.7238 34.2762C11.9738 34.5263 12.313 34.6668 12.6666 34.6668H20.9066C21.1869 35.439 21.6981 36.1061 22.3708 36.5776C23.0435 37.0491 23.8451 37.3021 24.6666 37.3021C25.4881 37.3021 26.2897 37.0491 26.9624 36.5776C27.6351 36.1061 28.1463 35.439 28.4266 34.6668H36.6666C37.0202 34.6668 37.3593 34.5263 37.6094 34.2762C37.8594 34.0262 37.9999 33.687 37.9999 33.3334C37.9999 32.9798 37.8594 32.6407 37.6094 32.3906C37.3593 32.1406 37.0202 32.0001 36.6666 32.0001ZM18.4399 24.0001C18.3232 24.0001 18.2113 23.9537 18.1288 23.8712C18.0463 23.7887 17.9999 23.6768 17.9999 23.5601V13.7734C17.9999 13.6567 18.0463 13.5448 18.1288 13.4623C18.2113 13.3798 18.3232 13.3334 18.4399 13.3334H22.4399C22.5346 13.3318 22.6272 13.3608 22.7041 13.4161C22.7809 13.4713 22.8379 13.5499 22.8666 13.6401L23.3466 15.0934C23.4387 15.3671 23.6173 15.6035 23.8553 15.767C24.0934 15.9305 24.3781 16.0123 24.6666 16.0001H30.8933C31.0099 16.0001 31.1219 16.0465 31.2044 16.129C31.2869 16.2115 31.3333 16.3234 31.3333 16.4401V23.5601C31.3333 23.6768 31.2869 23.7887 31.2044 23.8712C31.1219 23.9537 31.0099 24.0001 30.8933 24.0001H18.4399ZM24.6666 34.6668C24.4029 34.6668 24.1451 34.5886 23.9258 34.4421C23.7066 34.2955 23.5357 34.0873 23.4347 33.8437C23.3338 33.6 23.3074 33.3319 23.3589 33.0733C23.4103 32.8147 23.5373 32.5771 23.7238 32.3906C23.9102 32.2041 24.1478 32.0772 24.4065 32.0257C24.6651 31.9743 24.9332 32.0007 25.1768 32.1016C25.4205 32.2025 25.6287 32.3734 25.7752 32.5927C25.9217 32.8119 25.9999 33.0697 25.9999 33.3334C25.9999 33.687 25.8594 34.0262 25.6094 34.2762C25.3593 34.5263 25.0202 34.6668 24.6666 34.6668Z" fill="white"/>
</svg>
