<svg width="48" height="48" viewBox="0 0 48 48" fill="none" xmlns="http://www.w3.org/2000/svg">
<rect width="48" height="48" rx="8" fill="#466BF0"/>
<rect width="48" height="48" rx="8" fill="#006FAC"/>
<path d="M34.1733 12.8668C34.0184 12.7414 33.8373 12.6525 33.6435 12.6063C33.4497 12.5602 33.248 12.558 33.0533 12.6001C31.6285 12.8987 30.1577 12.9025 28.7314 12.6113C27.3052 12.32 25.9536 11.74 24.7599 10.9068C24.5367 10.7519 24.2716 10.6689 23.9999 10.6689C23.7283 10.6689 23.4631 10.7519 23.2399 10.9068C22.0463 11.74 20.6947 12.32 19.2684 12.6113C17.8421 12.9025 16.3713 12.8987 14.9466 12.6001C14.7518 12.558 14.5501 12.5602 14.3563 12.6063C14.1625 12.6525 13.9815 12.7414 13.8266 12.8668C13.6719 12.9922 13.5473 13.1508 13.4619 13.3308C13.3765 13.5107 13.3326 13.7076 13.3333 13.9068V23.8401C13.3321 25.7517 13.7876 27.636 14.662 29.336C15.5363 31.036 16.8042 32.5025 18.3599 33.6134L23.2266 37.0801C23.4524 37.2409 23.7227 37.3273 23.9999 37.3273C24.2771 37.3273 24.5474 37.2409 24.7733 37.0801L29.6399 33.6134C31.1957 32.5025 32.4635 31.036 33.3379 29.336C34.2122 27.636 34.6678 25.7517 34.6666 23.8401V13.9068C34.6673 13.7076 34.6233 13.5107 34.5379 13.3308C34.4526 13.1508 34.328 12.9922 34.1733 12.8668ZM31.9999 23.8401C32.0009 25.3264 31.647 26.7915 30.9675 28.1134C30.2879 29.4354 29.3025 30.5759 28.0933 31.4401L23.9999 34.3601L19.9066 31.4401C18.6973 30.5759 17.7119 29.4354 17.0324 28.1134C16.3529 26.7915 15.9989 25.3264 15.9999 23.8401V15.4401C18.7952 15.6793 21.5946 15.0308 23.9999 13.5868C26.4052 15.0308 29.2047 15.6793 31.9999 15.4401V23.8401ZM26.0533 20.7868L22.4666 24.3868L21.2799 23.1868C21.0289 22.9357 20.6883 22.7946 20.3333 22.7946C19.9782 22.7946 19.6377 22.9357 19.3866 23.1868C19.1355 23.4378 18.9945 23.7784 18.9945 24.1334C18.9945 24.4885 19.1355 24.829 19.3866 25.0801L21.5199 27.2134C21.6439 27.3384 21.7913 27.4376 21.9538 27.5053C22.1163 27.573 22.2906 27.6078 22.4666 27.6078C22.6426 27.6078 22.8169 27.573 22.9794 27.5053C23.1418 27.4376 23.2893 27.3384 23.4133 27.2134L27.9999 22.6668C28.251 22.4157 28.392 22.0752 28.392 21.7201C28.392 21.365 28.251 21.0245 27.9999 20.7734C27.7489 20.5223 27.4083 20.3813 27.0533 20.3813C26.6982 20.3813 26.3577 20.5223 26.1066 20.7734L26.0533 20.7868Z" fill="white"/>
</svg>
