<svg width="49" height="48" viewBox="0 0 49 48" fill="none" xmlns="http://www.w3.org/2000/svg">
<rect x="0.333252" width="48" height="48" rx="8" fill="#466BF0"/>
<rect x="0.333252" width="48" height="48" rx="8" fill="#006FAC"/>
<path d="M27 20.0001H21.6667C21.313 20.0001 20.9739 20.1406 20.7239 20.3906C20.4738 20.6407 20.3333 20.9798 20.3333 21.3334V26.6667C20.3333 27.0204 20.4738 27.3595 20.7239 27.6096C20.9739 27.8596 21.313 28.0001 21.6667 28.0001H27C27.3536 28.0001 27.6928 27.8596 27.9428 27.6096C28.1929 27.3595 28.3333 27.0204 28.3333 26.6667V21.3334C28.3333 20.9798 28.1929 20.6407 27.9428 20.3906C27.6928 20.1406 27.3536 20.0001 27 20.0001ZM25.6667 25.3334H23V22.6667H25.6667V25.3334ZM36.3333 25.3334C36.687 25.3334 37.0261 25.1929 37.2761 24.9429C37.5262 24.6928 37.6667 24.3537 37.6667 24.0001C37.6667 23.6465 37.5262 23.3073 37.2761 23.0573C37.0261 22.8072 36.687 22.6667 36.3333 22.6667H33.6667V20.0001H36.3333C36.687 20.0001 37.0261 19.8596 37.2761 19.6096C37.5262 19.3595 37.6667 19.0204 37.6667 18.6667C37.6667 18.3131 37.5262 17.974 37.2761 17.7239C37.0261 17.4739 36.687 17.3334 36.3333 17.3334H33.4267C33.2276 16.7742 32.9065 16.2663 32.4868 15.8466C32.0671 15.4269 31.5592 15.1058 31 14.9067V12.0001C31 11.6465 30.8595 11.3073 30.6095 11.0573C30.3594 10.8072 30.0203 10.6667 29.6667 10.6667C29.313 10.6667 28.9739 10.8072 28.7239 11.0573C28.4738 11.3073 28.3333 11.6465 28.3333 12.0001V14.6667H25.6667V12.0001C25.6667 11.6465 25.5262 11.3073 25.2761 11.0573C25.0261 10.8072 24.687 10.6667 24.3333 10.6667C23.9797 10.6667 23.6406 10.8072 23.3905 11.0573C23.1405 11.3073 23 11.6465 23 12.0001V14.6667H20.3333V12.0001C20.3333 11.6465 20.1929 11.3073 19.9428 11.0573C19.6928 10.8072 19.3536 10.6667 19 10.6667C18.6464 10.6667 18.3072 10.8072 18.0572 11.0573C17.8071 11.3073 17.6667 11.6465 17.6667 12.0001V14.9067C17.1075 15.1058 16.5996 15.4269 16.1799 15.8466C15.7601 16.2663 15.4391 16.7742 15.24 17.3334H12.3333C11.9797 17.3334 11.6406 17.4739 11.3905 17.7239C11.1405 17.974 11 18.3131 11 18.6667C11 19.0204 11.1405 19.3595 11.3905 19.6096C11.6406 19.8596 11.9797 20.0001 12.3333 20.0001H15V22.6667H12.3333C11.9797 22.6667 11.6406 22.8072 11.3905 23.0573C11.1405 23.3073 11 23.6465 11 24.0001C11 24.3537 11.1405 24.6928 11.3905 24.9429C11.6406 25.1929 11.9797 25.3334 12.3333 25.3334H15V28.0001H12.3333C11.9797 28.0001 11.6406 28.1406 11.3905 28.3906C11.1405 28.6407 11 28.9798 11 29.3334C11 29.687 11.1405 30.0262 11.3905 30.2762C11.6406 30.5263 11.9797 30.6667 12.3333 30.6667H15.24C15.4391 31.2259 15.7601 31.7338 16.1799 32.1535C16.5996 32.5733 17.1075 32.8943 17.6667 33.0934V36.0001C17.6667 36.3537 17.8071 36.6928 18.0572 36.9429C18.3072 37.1929 18.6464 37.3334 19 37.3334C19.3536 37.3334 19.6928 37.1929 19.9428 36.9429C20.1929 36.6928 20.3333 36.3537 20.3333 36.0001V33.3334H23V36.0001C23 36.3537 23.1405 36.6928 23.3905 36.9429C23.6406 37.1929 23.9797 37.3334 24.3333 37.3334C24.687 37.3334 25.0261 37.1929 25.2761 36.9429C25.5262 36.6928 25.6667 36.3537 25.6667 36.0001V33.3334H28.3333V36.0001C28.3333 36.3537 28.4738 36.6928 28.7239 36.9429C28.9739 37.1929 29.313 37.3334 29.6667 37.3334C30.0203 37.3334 30.3594 37.1929 30.6095 36.9429C30.8595 36.6928 31 36.3537 31 36.0001V33.0934C31.5592 32.8943 32.0671 32.5733 32.4868 32.1535C32.9065 31.7338 33.2276 31.2259 33.4267 30.6667H36.3333C36.687 30.6667 37.0261 30.5263 37.2761 30.2762C37.5262 30.0262 37.6667 29.687 37.6667 29.3334C37.6667 28.9798 37.5262 28.6407 37.2761 28.3906C37.0261 28.1406 36.687 28.0001 36.3333 28.0001H33.6667V25.3334H36.3333ZM31 29.3334C31 29.687 30.8595 30.0262 30.6095 30.2762C30.3594 30.5263 30.0203 30.6667 29.6667 30.6667H19C18.6464 30.6667 18.3072 30.5263 18.0572 30.2762C17.8071 30.0262 17.6667 29.687 17.6667 29.3334V18.6667C17.6667 18.3131 17.8071 17.974 18.0572 17.7239C18.3072 17.4739 18.6464 17.3334 19 17.3334H29.6667C30.0203 17.3334 30.3594 17.4739 30.6095 17.7239C30.8595 17.974 31 18.3131 31 18.6667V29.3334Z" fill="white"/>
</svg>
