<svg width="64" height="64" viewBox="0 0 64 64" fill="none" xmlns="http://www.w3.org/2000/svg">
<rect width="64" height="64" rx="8" fill="#466BF0"/>
<rect width="64" height="64" rx="8" fill="#006FAC"/>
<path d="M32.3999 32.2932C33.1114 31.6773 33.682 30.9157 34.0731 30.0599C34.4642 29.2041 34.6666 28.2741 34.6666 27.3332C34.6666 25.5651 33.9642 23.8694 32.714 22.6191C31.4637 21.3689 29.768 20.6665 27.9999 20.6665C26.2318 20.6665 24.5361 21.3689 23.2859 22.6191C22.0356 23.8694 21.3333 25.5651 21.3333 27.3332C21.3332 28.2741 21.5357 29.2041 21.9268 30.0599C22.3179 30.9157 22.8885 31.6773 23.5999 32.2932C21.7334 33.1383 20.1499 34.5032 19.0386 36.2246C17.9272 37.9459 17.3352 39.9509 17.3333 41.9998C17.3333 42.3535 17.4737 42.6926 17.7238 42.9426C17.9738 43.1927 18.313 43.3332 18.6666 43.3332C19.0202 43.3332 19.3593 43.1927 19.6094 42.9426C19.8594 42.6926 19.9999 42.3535 19.9999 41.9998C19.9999 39.8781 20.8428 37.8433 22.3431 36.343C23.8434 34.8427 25.8782 33.9998 27.9999 33.9998C30.1217 33.9998 32.1565 34.8427 33.6568 36.343C35.1571 37.8433 35.9999 39.8781 35.9999 41.9998C35.9999 42.3535 36.1404 42.6926 36.3904 42.9426C36.6405 43.1927 36.9796 43.3332 37.3333 43.3332C37.6869 43.3332 38.026 43.1927 38.2761 42.9426C38.5261 42.6926 38.6666 42.3535 38.6666 41.9998C38.6646 39.9509 38.0726 37.9459 36.9613 36.2246C35.85 34.5032 34.2664 33.1383 32.3999 32.2932ZM27.9999 31.3332C27.2088 31.3332 26.4354 31.0986 25.7776 30.659C25.1198 30.2195 24.6072 29.5948 24.3044 28.8639C24.0017 28.133 23.9224 27.3287 24.0768 26.5528C24.2311 25.7769 24.6121 25.0642 25.1715 24.5047C25.7309 23.9453 26.4436 23.5644 27.2196 23.41C27.9955 23.2557 28.7997 23.3349 29.5307 23.6377C30.2616 23.9404 30.8863 24.4531 31.3258 25.1109C31.7653 25.7687 31.9999 26.542 31.9999 27.3332C31.9999 28.394 31.5785 29.4115 30.8283 30.1616C30.0782 30.9117 29.0608 31.3332 27.9999 31.3332ZM40.9866 31.7598C41.8399 30.7989 42.3973 29.6119 42.5917 28.3416C42.786 27.0713 42.6092 25.7719 42.0823 24.5998C41.5554 23.4277 40.701 22.4329 39.6219 21.7351C38.5428 21.0372 37.285 20.6662 35.9999 20.6665C35.6463 20.6665 35.3072 20.807 35.0571 21.057C34.8071 21.3071 34.6666 21.6462 34.6666 21.9998C34.6666 22.3535 34.8071 22.6926 35.0571 22.9426C35.3072 23.1927 35.6463 23.3332 35.9999 23.3332C37.0608 23.3332 38.0782 23.7546 38.8283 24.5047C39.5785 25.2549 39.9999 26.2723 39.9999 27.3332C39.998 28.0335 39.8123 28.721 39.4613 29.3271C39.1104 29.9331 38.6064 30.4363 37.9999 30.7865C37.8022 30.9005 37.6371 31.0634 37.5204 31.2595C37.4037 31.4556 37.3392 31.6784 37.3333 31.9065C37.3277 32.1329 37.3798 32.3569 37.4848 32.5575C37.5898 32.7581 37.7441 32.9287 37.9333 33.0532L38.4533 33.3998L38.6266 33.4932C40.2338 34.2555 41.5897 35.4612 42.5346 36.9683C43.4794 38.4754 43.974 40.2211 43.9599 41.9998C43.9599 42.3535 44.1004 42.6926 44.3504 42.9426C44.6005 43.1927 44.9396 43.3332 45.2933 43.3332C45.6469 43.3332 45.986 43.1927 46.2361 42.9426C46.4861 42.6926 46.6266 42.3535 46.6266 41.9998C46.6375 39.9537 46.125 37.9388 45.1379 36.1466C44.1507 34.3543 42.7217 32.8443 40.9866 31.7598Z" fill="white"/>
</svg>
