<svg width="65" height="64" viewBox="0 0 65 64" fill="none" xmlns="http://www.w3.org/2000/svg">
<rect x="0.5" width="64" height="64" rx="8" fill="#466BF0"/>
<rect x="0.5" width="64" height="64" rx="8" fill="#006FAC"/>
<path d="M37.4467 32.9465C38.7539 31.9181 39.708 30.5077 40.1763 28.9118C40.6446 27.3158 40.6039 25.6135 40.0597 24.0418C39.5155 22.4701 38.495 21.107 37.1401 20.1423C35.7852 19.1776 34.1633 18.6592 32.5 18.6592C30.8367 18.6592 29.2148 19.1776 27.8599 20.1423C26.505 21.107 25.4845 22.4701 24.9403 24.0418C24.3961 25.6135 24.3553 27.3158 24.8237 28.9118C25.292 30.5077 26.2461 31.9181 27.5533 32.9465C25.3134 33.8439 23.359 35.3323 21.8985 37.2531C20.438 39.1738 19.5261 41.4549 19.26 43.8532C19.2407 44.0283 19.2562 44.2054 19.3054 44.3746C19.3546 44.5437 19.4366 44.7015 19.5468 44.8389C19.7694 45.1165 20.093 45.2943 20.4467 45.3332C20.8003 45.3721 21.1549 45.2689 21.4324 45.0464C21.71 44.8238 21.8878 44.5001 21.9267 44.1465C22.2194 41.5401 23.4622 39.1329 25.4176 37.3849C27.373 35.6369 29.9039 34.6705 32.5267 34.6705C35.1495 34.6705 37.6803 35.6369 39.6357 37.3849C41.5911 39.1329 42.8339 41.5401 43.1267 44.1465C43.1629 44.4741 43.3192 44.7767 43.5655 44.9959C43.8117 45.215 44.1304 45.3352 44.46 45.3332H44.6067C44.9562 45.293 45.2756 45.1162 45.4954 44.8415C45.7152 44.5668 45.8175 44.2163 45.78 43.8665C45.5127 41.4614 44.5958 39.1745 43.1278 37.2508C41.6598 35.3271 39.6959 33.8391 37.4467 32.9465ZM32.5 31.9998C31.4452 31.9998 30.414 31.687 29.537 31.101C28.6599 30.515 27.9763 29.682 27.5726 28.7075C27.169 27.7329 27.0634 26.6606 27.2691 25.626C27.4749 24.5915 27.9829 23.6412 28.7288 22.8953C29.4746 22.1494 30.4249 21.6414 31.4595 21.4357C32.4941 21.2299 33.5664 21.3355 34.541 21.7391C35.5155 22.1428 36.3485 22.8264 36.9345 23.7035C37.5205 24.5805 37.8333 25.6117 37.8333 26.6665C37.8333 28.081 37.2714 29.4375 36.2712 30.4377C35.271 31.4379 33.9145 31.9998 32.5 31.9998Z" fill="white"/>
</svg>
